<svg width="1000" height="600" xmlns="http://www.w3.org/2000/svg"><defs><linearGradient id="a" gradientTransform="rotate(90)"><stop offset="5%" stop-color="#1c1c22"/><stop offset="95%" stop-color="#545459"/></linearGradient></defs><path fill="#2d2d37" d="M0 0h1000v600H0z"/><path d="M0 300c32.639 18.609 65.278 37.217 102 45 36.722 7.783 77.527 4.74 119-11s83.612-44.176 119-62c35.388-17.824 64.024-25.035 98-7s73.293 61.316 111 63c37.707 1.684 73.803-38.228 113-56s81.496-13.403 117-1c35.504 12.403 64.213 32.84 104 33 39.787.16 90.654-19.954 112-24 21.346-4.046 13.173 7.977 45 20l-40 300H0Z" fill="url(#a)"/></svg>