<svg id="Layer_1" data-name="Layer 1" xmlns="http://www.w3.org/2000/svg" viewBox="0 0 529.1 605.8">
  <title>svg</title>
  <g>
    <path d="M21.6,751.2c1.7-.1,3.4-2.8,4.4-3.9s4.4-4.3,6.4-6.5a63.6,63.6,0,0,0,11.1-16c2.9-6,5-12.3,7.5-18.5s4.8-11.4,7.5-16.9c5.6-11.3,12.1-22.3,20.3-31.9,2-2.3,4.2-4.6,6.3-6.7a41,41,0,0,0,5.8-6.7c3.6-5.3,3.1-12,5.4-17.9a53.3,53.3,0,0,1,10-15.6A107.3,107.3,0,0,1,120.5,597c2.4-1.9,4.9-4.3,7.9-5.3s5.7-.3,7.7-3c.9-1.1,1.4-2.4,2.2-3.4a21.2,21.2,0,0,1,3.3-3.4,27.5,27.5,0,0,0,2.3-3.3,7.7,7.7,0,0,1,3.2-2.7,31.4,31.4,0,0,0,3.7-1.8c1.2-.8,2.4-1.8,3.7-2.5a11.7,11.7,0,0,1,4.4-1.3,19.8,19.8,0,0,0,4.8-1.8c3.1-1.5,6.2-3.1,9.4-4.4l9.8-3.9c3-1.2,6-2.6,8.9-4a33.4,33.4,0,0,0,6-3.7c1.7-1.5,3.4-3.5,3.4-5.9s-1.6-3.3-3.2-4.3-9.7-2.6-7.3-7.1c1-1.9,2.8-3.3,4.3-4.8s5-4.4,7.6-6.5c5.3-4.2,11.2-7.5,16.7-11.4,1.8-1.3,3.6-2.5,5.2-3.9s3.4-3.2,3.5-5.3-2.5-4.7-3.9-6.6A24,24,0,0,1,220,488c-.7-3-1.1-6.2-2.4-9a12.1,12.1,0,0,0-5.5-5.9c-2.2-1.4-4.4-2.7-6-5s-2.4-5.3-3.5-7.9-2.6-5.7-3.2-8.8-.1-6.3.2-9.5a20.7,20.7,0,0,0-.9-9.3c-1-2.8-2.8-4.8-4.8-6.9a15.9,15.9,0,0,1-4-7.3c-.8-3.1-1.9-6.2-2.5-9.4s-.4-6.3,1.5-8.9,4.2-3.6,4.9-6.5,0-5.7-1.2-8.2-2.9-4.1-4.5-6.1c-3-3.8-3.1-9-2.5-13.6s2.3-9.2,5.5-12.6a10.6,10.6,0,0,1,5.3-3.3c1.9-.5,4.4-.8,5.6-2.5s.6-5-.6-7-3.4-4.3-4.7-6.7c-2.9-5.8-.1-11.6,2.2-17,1.4-3,2.8-6,4-9.1s1.6-4.8,3.4-6.6,5-2.9,7.9-3.5,5.5-1.5,7.6-3.6c4.2-4.1,5.4-10.6,7.3-15.9s5.2-13.1,7.6-19.7c1.1-3,1.8-6.1,2.9-9s3.7-4.6,4-7.5-1.4-4.3-3-5.8a71.3,71.3,0,0,1-5.5-5.5,74.6,74.6,0,0,1-5.4-8c-1.8-2.9-3.8-5.8-5.6-8.7a78.6,78.6,0,0,1-5.1-8.9,16.9,16.9,0,0,1-1.5-4.3,16.4,16.4,0,0,0-1-3.8c-1.2-2.5-4.4-3.6-6.2-5.7s-3.4-5-5.6-7.1-9-6.9-8.4-12.3,4.5-7.2,7.9-9,9.8-3.3,14.9-4c6.8-1,13.8-1.5,20.7-2.1,14.4-1.1,28.8-2.8,43.2-3.4,7-.3,14-.1,20.9-.4s13.8-2,20.8-2.4l10.8-.5,10-.9c3.2-.2,6.6-.3,9.6.8a14.7,14.7,0,0,1,6.4,4.9c1.7,2,2.9,4.4,4.7,6.2a4.4,4.4,0,0,0,3,1.5,6.3,6.3,0,0,0,3.7-1.4c2.2-1.2,5.3-1.3,5.5,2s-2,4.9-.7,7.4,3.1,3,4.8,4.1a31.5,31.5,0,0,1,6.2,5.9,75.1,75.1,0,0,1,5.8,7.8,69.2,69.2,0,0,1,5.3,8,25.9,25.9,0,0,1,3,9,52.6,52.6,0,0,0,2.3,9.5,92.7,92.7,0,0,0,4.4,8.2c1.7,3,3.1,6.1,4.5,9.2a348,348,0,0,1,15.9,39.1,377,377,0,0,1,17.3,82.2c1.4,14.3,2.1,28.7,2.1,43,.1,7.1,0,14.2-.6,21.3s-1.8,13.7-3,20.6-2.3,13.9-4,20.8c-.7,3-.9,8-3.8,9.8s-4,0-5.2-1.3-1.8-3.7-2-5.6c-.5-6.3.4-12.7,1.6-18.9s2.8-13.5,3.8-20.3c.4-3.5.8-7,1-10.4a37.7,37.7,0,0,0-.4-9.5c-.7-3.2-2.6-5.7-3.8-8.6s-1.1-6.5-1-9.7a147.2,147.2,0,0,0-.1-21c-.7-7.1-1.9-14.2-3.1-21.2s-2.6-14-4.2-20.9a380.1,380.1,0,0,0-12-40.7c-2.3-6.6-5.2-13.1-7-19.9-.4-1.5-.5-3.1-.9-4.6a19.6,19.6,0,0,0-2-4.7c-1.7-2.9-3.5-5.9-5.1-8.9s-3.3-6-5-9a61.8,61.8,0,0,0-3.7-6.1c-1.5-2-3.5-3.7-6.1-3.9s-5.6,1.3-8.4,1.4c-5.7.1-8.6-5.6-9.7-10.4s-2.3-12.6-8.1-15.1c-2.8-1.1-5.3.3-8,0s-2.5-.3-3.8.4a6.7,6.7,0,0,0-2.9,3.3c-1,2.6.2,5.6,1.3,8s2.3,4.7,3.1,7.3c1.3,4.3,2.7,10.6-2.3,12.9a21.3,21.3,0,0,1-6.6,1.6l-7.7.7a34.9,34.9,0,0,0-9.1,1.1c-2.5.7-3.3,2.1-2.2,4.4s2.9,5.4,4.2,8.2a89.6,89.6,0,0,0,4.8,9.2c3.5,6.2,7.1,12.3,10.3,18.7,1.4,2.8,2.8,5.6,4.3,8.4a19.4,19.4,0,0,0,4.4,5.9c4.6,3.8,11.5,1.1,16.5,4.4a17.6,17.6,0,0,1,5.2,6.3c1.5,2.7,2.8,5.4,4.1,8.1s2.9,6.2,4.2,9.4,2.5,5.5,1.6,8.7-2.1,5.6-2,8.7a10.2,10.2,0,0,0,3.2,7.2c1.9,1.7,4.3,2.7,6.4,4.1a12.8,12.8,0,0,1,4.7,6.5,33.9,33.9,0,0,1,1.5,4.5c.5,1.6.6,3.3,1,4.9.8,3.1,2.7,5.5.7,8.6s-4.1,3.8-5.9,6a7.6,7.6,0,0,0-1.6,7.2c.8,2.6,2.7,4.8,4.4,7a20.1,20.1,0,0,1,4,7.5,23.6,23.6,0,0,1,0,9.9,39.1,39.1,0,0,1-2,9c-1.1,2.8-3.8,4.4-5.1,7a16.5,16.5,0,0,0-1.6,9c.5,6,3.8,11.5,7.4,16.3a145.2,145.2,0,0,0,12.3,14.9,116.1,116.1,0,0,0,15.1,12.8,72.5,72.5,0,0,1,7.5,6.2,42.5,42.5,0,0,0,6.8,5.8,21.2,21.2,0,0,0,8.9,2.5c3.1.3,6.1.5,9.2,1a74.1,74.1,0,0,1,19.7,5.6c11.7,5.4,23.5,11.3,32.3,20.9,4.3,4.7,6.9,10.1,9.5,15.9a144.1,144.1,0,0,1,7.5,19.2c2,6.7,4.2,13.5,5.6,20.4s2.3,13.8,4.2,20.6,4.2,13,6.6,19.4,5,12.6,6.4,19.4c.6,3.2,2,6.2,2.7,9.5.4,1.5.6,3,.9,4.5s1,3.1,1.4,4.6c.9,3.2.9,6.2,1.1,9.5a25.8,25.8,0,0,1-1.4,9.5c-2.1,6.3-4.1,12.7-7.1,18.7s-6.3,12.6-10,18.6c-1.9,2.9-3.8,5.8-5.5,8.9l-5,9.1a80.8,80.8,0,0,0-7.9,18.7c-.3,1.3-.5,2.6-.8,4s-1.2,1.7-2.6,1.7h-4.6a23.8,23.8,0,0,1-3.8.1c-2.6-.3-1.8-3.4-1.5-5.3a47.1,47.1,0,0,1,2.6-9.6,48.3,48.3,0,0,0,2-9.9,92.5,92.5,0,0,1,1.2-9.2,29.5,29.5,0,0,0,1.2-6.6,7.9,7.9,0,0,0-.5-3,8.3,8.3,0,0,0-.8-1.2c-.1-.1-.5-.6-.7-.5s-.5.7-.7.8a37.8,37.8,0,0,0-4.7,6.6,27.1,27.1,0,0,0-2.2,8.8c-.5,3.6-1,7.1-1.4,10.7a71.7,71.7,0,0,0-.8,10.4,12.6,12.6,0,0,0,.8,4.3c.3.9,1.4,2,1.3,2.9s-3,.9-3.8.9l-16.2-.4c-14.5-.1-29.1-.2-43.7-.1s-28.4.3-42.6.2a8.1,8.1,0,0,1-4.3-1.1c-1.3-.6-2.6-1.4-4-1.9s-6.1-1.2-8.5.2-1.7,1.8-2.8,2.4-2.6.3-3.8.3h-7.5a8.1,8.1,0,0,1-2.2,0c-1.3-.4-.6-1.7-.9-2.7s-1.7-2.6-2.6-3.8-2.8-5.6-4.5-8.2c-.6-.8-2.6-3.1-.4-3.2s5.3,2,8,2.7a16.7,16.7,0,0,0,5,.3,14.9,14.9,0,0,1,5.1.6c3,.9,5.7,2.2,8.6,3.1s5.9,1.6,8.9.9,4.3-1.4,5.1-3.1-2.3-2.1-3.5-2.1a20.8,20.8,0,0,1-7-.6c-2.9-.9-5.6-2.3-8.4-3.4a58.4,58.4,0,0,0-9.5-3c-3-.7-6.1-1.5-9.3-2.1a13.3,13.3,0,0,0-7.4.2,6.2,6.2,0,0,0-2.9,2.1c-.7.9-1.2,2.1-2.2,2.6s-4.7-1.7-6.8-2.3-3.7.6-5.5.5-1.4-.1-1.5-.8.7-1.2,1.2-1.5,3.6-1,5.4-1.7,5.2-2.7,7.9-3.8a21.9,21.9,0,0,1,9.5-1.6c3.3.2,6.7,1.5,10,1.1s5.1-1.8,7.1-4,3.9-3.4,6.9-2.4a29.9,29.9,0,0,0,4.2,1.5,12,12,0,0,0,5,.1c3-.5,5.8-2,8.7-2.9s5.9-1.7,8.7-1,1.5,3.5,1.6,5.2a11.5,11.5,0,0,1-.1,3.7,16.1,16.1,0,0,1-1.5,3.6,44.2,44.2,0,0,0-2.4,6c-1.3,4-2.1,8.6-.2,12.5s7.3,6.4,11.8,6.7c2.7.2,5.3-.4,7.1-2.5s1.3-1.8,2.5-2a4,4,0,0,0,2.7-1.7,24,24,0,0,0,2.1-3.1c.9-1.3,1.9-2.5,2.8-3.7s4-5.4,6-8.2a129.6,129.6,0,0,0,10.2-16.8c1.4-2.9,2.5-6,3.9-8.9a39,39,0,0,1,5-8.3,140.6,140.6,0,0,1,12.9-14.9c2.3-2.2,4.3-4.5,6.5-6.8s4.5-4.5,6.8-6.7a57.3,57.3,0,0,0,6.3-6.7c1.8-2.4,3.4-4.9,5-7.4,3.5-5.2,6.9-10.6,11.1-15.3,2.7-3.1,7.7-7.2,6.9-11.9-9.3,1.8-17,9.1-23.6,15.3s-15,13.5-22.2,20.5a119.1,119.1,0,0,0-9.2,10.8,117.2,117.2,0,0,1-9.7,10.3,100.5,100.5,0,0,0-9.7,11c-3,4-5.7,8.2-8.6,12.2a45.5,45.5,0,0,0-4.4,6.4,42.3,42.3,0,0,0-3,6.9c-.8,2.5-1.5,5-2.2,7.5s-1.8,5.6-2.4,8.4c1.1-.2,2.3.3,3.4.1-1.6,5.2-5.5,9.8-9.9,13-2.8-5.5-.4-11.4,1.7-16.6a44.5,44.5,0,0,0,2.8-8.5c.6-3.3.3-6.5,1.1-9.7s3.1-6.8,4.6-10.2,2.7-6.6,4.3-9.8c3.4-6.7,8.1-12.5,12.6-18.4s8.4-12.2,13.2-17.9,10.1-10.7,14.8-16.4c2.2-2.7,4.4-5.6,6.9-8.2s5.1-4.9,7.8-7.2c5.7-5,11.5-9.8,17.6-14.4s11.3-7.7,15.9-12.8a69.7,69.7,0,0,0,6.1-8.2,29.5,29.5,0,0,0,4-8.4,20.9,20.9,0,0,0,.8-4.9c-7.4,2.3-13.6,7.3-19.4,12.3s-13,11.1-19.7,16.4c-1.5,1.2-2.9,2.5-4.5,3.6a44.6,44.6,0,0,1-5.2,3.1c-3.6,1.8-6.8,4.2-10.3,6.2a68.7,68.7,0,0,1-11.1,5,46.7,46.7,0,0,1-12,2.9c-3.9.3-7.9-.1-11.4,2.1l-4.2,3a22.4,22.4,0,0,1-5,2.2l-5.7,1.6c-2,.6-3.9,1.5-5.9,2.3-3.7,1.6-7.6,2.5-11.3,4.3a45.3,45.3,0,0,0-7,4.3c-1,.6-2,1.3-3,1.8a4.2,4.2,0,0,1-2.6.8c-2.7-.6,4.5-7.1,5.3-7.8a68.1,68.1,0,0,1,9.5-7.5,84.9,84.9,0,0,1,10.7-5.8c7.5-3.7,15-7.5,22.8-10.6,3.8-1.5,7.6-2.9,11.4-4s7.5-2.1,11.2-3.3a35.8,35.8,0,0,0,10.2-5c1.5-1.1,3-2.3,4.6-3.3a41.2,41.2,0,0,1,5.2-2.4,18.3,18.3,0,0,0,4.9-3.3,42.2,42.2,0,0,1,4.6-3.8c3.4-2.4,6.8-4.6,10.3-6.8s6.9-4.5,10.2-6.9,6.9-4.9,10.7-6.6,6.6-2.1,6.6-5.9-1.3-5.7-4.3-6.4-5.8.6-8.5,1.9a25.8,25.8,0,0,1-5.3,1.9,58.3,58.3,0,0,1-5.9.3,15.3,15.3,0,0,0-5.6.9,22.2,22.2,0,0,0-4.9,3,35.6,35.6,0,0,1-4.8,3.1c-1.8.8-3.7,1.5-5.5,2.4-3.9,1.7-7.5,4.2-11.2,6.3l-11.3,6.2-11.3,6.4c-3.2,1.9-6.5,4.3-10.2,5.1-.7.1-3.7.6-3.8-.5s2.6-2.2,3.2-2.6c3.5-2.4,6.4-5.3,9.6-8.1,6.2-5.5,13.4-9.4,20.4-13.7s14.7-9.4,22.2-13.6,13.2-6.1,18.1-11.5c1.2-1.3,3.8-4,3.2-6s-5.6-2.3-7.6-2.2a63.8,63.8,0,0,0-9.6,1.5,103.8,103.8,0,0,0-11,2.7A79.3,79.3,0,0,0,456,552a107.6,107.6,0,0,0-9.3,7,35.9,35.9,0,0,1-5,3.7c-1.6,1-3.2,1.8-4.7,2.8-3.3,2-5.4,5.2-8.3,7.7s-6.7,4.1-10.2,5.7a34.4,34.4,0,0,0-10,5.8c-2.8,2.4-4.2,5.9-7,8.3-.6.4-1.7,1.4-2.6,1.2s-.4-2,.1-2.7,1.6-2,2.4-3,2.1-3.3,3.3-5a33.2,33.2,0,0,1,8.1-8.6,116.7,116.7,0,0,0,9.4-7.7c6.4-5.7,13.3-10.8,20.2-15.9,1.7-1.3,3.3-2.6,5-3.7s3.6-2,5.4-2.9c3.4-1.9,6.4-4.5,9.8-6.4,1.8-1,3.8-1.8,5.7-2.7a21.3,21.3,0,0,1,5-1.1c1.8-.2,3.2-1.3,4.9-2.1a16.9,16.9,0,0,1,5.9-1.3c2.1,0,4,.5,6.1.1s4.2-.8,6.3-1a12.4,12.4,0,0,1,4.7.2c1.1.1,2.4.2,2.8-1s-.1-2.8-.3-3.9a7.3,7.3,0,0,0-2.2-3.9c-1.2-1.1-2.4-2.5-3.7-3.6a6.9,6.9,0,0,0-2-1.3,25.1,25.1,0,0,0-2.7-.4c-1.9-.5-3.7-2.2-5.4-3.2s-3.4-2.1-5.1-3c-3.6-2-7.3-3.8-11-5.4s-7.3-3.6-11.2-3.7-6.9,1.8-10.2,3.4-7.9,2.4-11.8,3.5-8.3,2.5-12.3,4A84.6,84.6,0,0,0,405.9,524c-3.2,2.6-6.4,5.1-9.7,7.5a28,28,0,0,0-7.9,7.8,59.8,59.8,0,0,0-4.7,9.9c-1.4,3.5-2.8,6.9-4,10.5-.6,1.9-1.1,3.8-1.9,5.7a13,13,0,0,1-1.7,3.8c-.7.9-1.5.8-1.7-.3a9.2,9.2,0,0,1,.3-2.9c.7-3.8,1.4-7.6,2.4-11.4a75.6,75.6,0,0,1,4.2-11.2c3-6.9,5.9-14.1,10.7-20,2.5-3,5.6-5.4,8.5-7.9s6-5.5,9.2-8c5.8-4.5,13.2-5.2,20.2-6.6,1.2-.3,3.1-.4,4.1-1.2s-.1-1.5-.9-1.6l-3.3-.4a17.4,17.4,0,0,1-3.8-1.4,8.8,8.8,0,0,0-4.2-.8c-1.6.3-2.4,1.6-3.1,2.9-2,3.4-5.3,5.5-8.8,7a30.7,30.7,0,0,0-9.6,5.5,67.8,67.8,0,0,0-6.6,7.6c-2.4,3.1-5.2,5.8-7.8,8.7a43,43,0,0,0-6.4,9.9c-3.7,7.4-7.7,14.7-10.1,22.6a66,66,0,0,0-2.3,12.4c-.2,2.1-.4,4.2-.7,6.3a46.8,46.8,0,0,0-.8,5.4c0,1,.4,3,1.9,2.7s2-1.3,2.6-2.1a16.3,16.3,0,0,1,2.3-2.9c.8-.5,1.7.4,2.6.4s1.6-1.2,1.9-2.2a52.2,52.2,0,0,1,1.8-5.6,90.8,90.8,0,0,1,5-11.5c3.8-7.4,8.9-13.8,13.9-20.4,2.4-3.2,4.5-6.4,7.4-9.2l3.4-3.1c.6-.6,2.1-1.4,2.6-.3s-.1,2.1-.4,2.8a52,52,0,0,1-2.6,5.3,92.7,92.7,0,0,1-6.2,10c-2.5,3.3-5.1,6.5-7.4,9.9a104.4,104.4,0,0,0-6.6,10.6,58.4,58.4,0,0,0-5,9.6c-.4,1.2-1.1,3.5-.4,4.8s2.1-.9,2.5-1.5,1.6-3.1,2.5-4.6l2.7-4.6c1.8-3.1,3.6-6.1,5.5-9.1a91.6,91.6,0,0,1,13.3-17c5.6-5.4,12.2-9.1,19.2-12.2s15.1-6.4,23.4-7.3c3.6-.3,7.1-.2,10.7-.2,2-.1,6.2.3,5.4,3.4s-3.8,2.6-5.4,3.2l-11.8,3.4A80.2,80.2,0,0,0,428,546.7c-6.9,4.5-12.8,10.4-18.7,16.1a124.5,124.5,0,0,0-15.8,19l-6.9,10.1c-2.2,3.1-4.3,6.1-7.6,7.9s-5.6,3-6.2,6.5a32.6,32.6,0,0,0-.3,5.4,29.6,29.6,0,0,1-4.3,13.7c-.5.8-2.6,4-1,4.5s2.1-1.1,2.7-1.8,1.9-2.2,2.8-3.4c2.6-3.1,4.8-6.5,7.3-9.7,4.9-6.3,10.6-12.1,17.7-16.1l4.8-2.6a21.2,21.2,0,0,0,3.9-3.4,1.8,1.8,0,0,1,3.2.7c.4,1.6-.8,3.2-1.7,4.4-2.5,3.2-5,6.4-7.8,9.4a120.4,120.4,0,0,1-8.8,8.7,169.7,169.7,0,0,0-16.9,18c-5.2,6.6-9.7,13.7-14.5,20.6a70.2,70.2,0,0,1-7.2,9.1,12.5,12.5,0,0,0-3,4.2c-.8,1.9-1.3,3.9-2,5.9-2.8,8.2-6.9,16-10.5,23.9a120.7,120.7,0,0,0-4.7,11.2c-.7,1.8-1.1,3.7-1.9,5.5a46.6,46.6,0,0,1-2.5,5c-3.8,6.7-8.7,12.8-11.9,19.8,3.1-1.1,6.4.2,9.5,1s6.4.3,9.5,1.6,6.2,2.7,9.1,4.3a34.6,34.6,0,0,1,6.3,3.9c1.9,1.6-.5,1.8-2,1.8H341l-21.6-.2-6.1.2c-1.9,0-3.9-.2-5.8-.1a8.6,8.6,0,0,0-3,1.2c-1.3.7-2.9.4-4.3.4.4-3.3,2.7-6.1,4.8-8.5a65.2,65.2,0,0,0,6.4-8.5c1-1.8,2-3.6,3.1-5.3a53.3,53.3,0,0,0,3.1-5.1c.1-.3.6-.9.6-1.3s-.7-.5-1.1-.7l-2.8-1.1c-2-.8-3.9-1.5-5.8-2.4a53,53,0,0,1-10.5-5.6c-1.4-1-2.7-2.1-4.2-3a14.2,14.2,0,0,0-5.3-1.3c-4.3-.4-8.6-.2-12.8-.3H262.3a45.6,45.6,0,0,0-6.4.1c-1.9.3-3.8,1-5.7,1.3-4.3.8-8.8.1-13.1.4s-8.9,1-13.3,1.5l-6.5.8a30.9,30.9,0,0,0-6,.8,24.4,24.4,0,0,1-6,1.1c-2.1,0-4.2-.2-6.4-.1a20.5,20.5,0,0,0-10.4,3.2c-3.1,1.8-6,3.9-9.1,5.7s-7.4,4.5-11.2,6.6a174.7,174.7,0,0,1-22.3,10.5,27.8,27.8,0,0,0-4.9,2.4,29.3,29.3,0,0,0-4.3,3.6c-2.9,2.5-6.1,5-10,5.9a17.7,17.7,0,0,1-5.6.4c1.1.1,2.5-.8,3.4-1.3a49.3,49.3,0,0,0,5.3-3.6c3.5-2.7,7-5.6,10.3-8.6l3.2-2.9c2.1-1.9,4.8-4,5.3-7s-3.7-4.5-6.6-4.5-7.2.6-10.9.9c-2,.1-4.4-.6-5.1-2.7s2.7-5.8,5.4-6.4,6.7-.2,9.9-1,5.4-1.3,6.4-3.2-.5-3-1.4-4a4,4,0,0,1-1.4-2.7,54.4,54.4,0,0,1,0-12.1c.5-3.9.8-7.8,1.6-11.5a22.4,22.4,0,0,1,1.9-5.5,22.9,22.9,0,0,1,1-2.3c.5-.6.9-.6,1.5-.9,2.4-1.1,1.9-4.5,3.4-6.4s2.1.4,2.4,1.8.3,1.7.9,2.2c1.1-1.1,2.4-1.4,3.9-1.9l5.3-1.6c1.9-.6,3.7-1.3,5.7-1.8a50.7,50.7,0,0,1,5.4-.9,10.3,10.3,0,0,0,4.5-1.4c.8-.7.8-1.8,1.2-2.8s.9-2.1-.6-3a5.7,5.7,0,0,0-3.6-.7c-2.7.3-5.2,1.5-7.7,2.5l-4.2,1.8c-1.1.5-3.5,1.7-4.7,1.1s2.8-4.5,3.5-5c2.5-1.5,4.9-2.8,6-5.6.5-1.1.5-2.6-1.2-2.5a8.2,8.2,0,0,1-2.2.2,6.9,6.9,0,0,0-2.5.3,14.1,14.1,0,0,0-5,3.3c-1.3,1.3-2.1,3-3.6,4-.7-3.4,1.7-7,2.5-10.2a6.6,6.6,0,0,0-.2-4.8c-.9-1.7-2.9-1.8-4.6-1.4s-4.1,1-4.4,2.7,2.5,3.3,1.1,4.7-3.7,1-4.9.6-2.5-2.2-3.9-3.2-4.2-1.2-6.1-2.5-.7-4.1-.2-6c-4.7-.3-9.5,5.3-13.2.1s-6.4-11.1-7-17.3c-.3-2.7-.3-5.8,2.4-7.4s4.4,2.4,5.2,4.6a18.8,18.8,0,0,1,1,7.1c0,1.6-.2,3.6.6,5.1s2.5-.1,3.2-1.2a14.9,14.9,0,0,1,1.4-2.4c.9-1.2,2.2-2.2,3.2-3.4a18.2,18.2,0,0,0,2.7-3.5,7.5,7.5,0,0,1,2.5-2.8,3.3,3.3,0,0,1,3.4.6c.7.7.3,1.4-.2,2.1a10.2,10.2,0,0,0-1.6,2.9c-.4,1.6-.8,3.2-1.1,4.8s-2,4.7,0,5.7a8,8,0,0,0,2.6.5,43.6,43.6,0,0,0,5.2.5c3.5.2,6.9,1.3,10.4,1.6s7.3-1,11.1-1.6a16.6,16.6,0,0,1,10,1.9,24,24,0,0,1,8.1,6.8c1.5,1.8,1.9,4.4,4.9,3.6a26.6,26.6,0,0,1-3.3-12c0-1.9.4-4.1-.6-5.8s-2.2-2.5-1.5-3.9a11.8,11.8,0,0,1,4.2,3.8l4.1,5.1a53,53,0,0,1,3.9,5.4,8.7,8.7,0,0,1,1.9,4.4c.1.9,0,2.3.7,3s2.2-.1,2.9-.8c2.5-2.5,4-6,5.9-9s4.8-7.3,6.9-11.2a58.5,58.5,0,0,1,2.8-5.6c.9-1.5,2-2.8,3-4.2a12.6,12.6,0,0,0,2.3-4.8c.5-2.2.8-4.4,1.3-6.6,1-4.4,2.3-9,2.1-13.5a6.5,6.5,0,0,0-.8-3.1c-.4-.8-.8-1.5-.4-2.3a9.1,9.1,0,0,1,1.8-2.1,7.6,7.6,0,0,0,1.5-2.8,34.7,34.7,0,0,0,1-7.2,12.4,12.4,0,0,1,.9-3.3c.4-.9,1.2-1.8.6-2.8s-.4.9-.8,1.2-1,.1-1.4.4-1.2,2.1-1.5,3a15.6,15.6,0,0,1-3.6,6.4,8.2,8.2,0,0,1-7.8,2.9c-3-.5-5.7-2.2-8.4-3.7s-5.1-2.3-7.6-.5-3.5,3.8-4.8,6c-3.6,5.7-7.4,11.1-10.6,17-1.7,3.3-3.2,6.6-4.6,10a32.7,32.7,0,0,1-5.1,9.1c-3.6-4.2-1.7-9.3.2-13.8a167.7,167.7,0,0,1,7.4-15.4c.8-1.5,2.2-3,2.7-4.6s.1-1.1-.5-1.3-1.6.5-2.2,1c-4.1,3.4-8.6,6.2-12.6,9.6l-2.3,2c-.7.5-1.9,1.7-2.8,1.7s-.7-.5-1.3-.4a4.7,4.7,0,0,0-.9.6l-2.3,1.8c-.7.5-6,4.8-6,2.2-.1-.9.9-1.9,1.4-2.6a32.8,32.8,0,0,1,3.1-3.4l5.6-5.3c4.4-4,9.3-7.1,13.9-10.7a74.5,74.5,0,0,0,6.9-5.7c1.1-1.1,3-3.7,4.9-3.1a46.4,46.4,0,0,1-4.1,8c2.4-.5,4.4-3,5.9-4.8a80.6,80.6,0,0,0,5.9-7.2,33.9,33.9,0,0,0,4.4-9.2,35.9,35.9,0,0,1,1.7-3.4c.8-1.3.2-2.4-.1-3.7-.6.4-1.6,1.8-2.3,1.7s-.5-.5-.9-.5-.9.7-1.2.9a39.8,39.8,0,0,1-5.1,3.8,34.3,34.3,0,0,0-4.9,3.6,40.7,40.7,0,0,0-4,4.3,86.3,86.3,0,0,1-8.4,8.7c-3.1,2.6-6.4,5.1-9.6,7.7a78.3,78.3,0,0,0-8.9,8.4c-2.6,2.9-5,6.1-8.1,8.5-.7.5-3,2.6-3.9,1.7s.5-2.8.8-3.5a46.9,46.9,0,0,1,7.3-10.3c6.2-7,13.8-12.6,20.9-18.7-3,.9-6.1,1.5-8.8,3s-4.6,3.3-7.2,4.4c-4.7,1.9-10.2,2.2-13.9,6.2-1.8,1.9-3.5,4-4.1,6.5s-3.1,3.3-5.2,4.4a4.9,4.9,0,0,0-2.4,1.4c-.6.9-.5,1.7-1.6,2.4a20,20,0,0,0-2.6,1c-1.1.8-1.4,2.3-1.6,3.6s.6,5.3,1.4,7.9a26.2,26.2,0,0,1,1.4,7.8,16.1,16.1,0,0,1-.6,4.4c-.2,1.1-.6,3-1.7,3.7s-3.4-3-3.9-4a16.1,16.1,0,0,1-1.5-8.9c.1-2.6.3-5.1.4-7.7s-.1-3.5-2-2.6a7.8,7.8,0,0,0-2.6,2.1l-3.3,3.1c-4,3.7-9,7.6-9.2,13.5,0,3.3.2,6.8,1.5,9.8s2.8,5.1,1.4,8c-2.4-2.1-4.9-4.1-7.2-6.3-.6-.6-1.6-1.8-2.6-1.4s-.9,1.6-1.1,2.4c-.8,2.8-1.2,5.6-1.9,8.3a20.1,20.1,0,0,1-3.9,7.7,72.1,72.1,0,0,1-5.9,6.5c-1.9,2-4.2,4-5.7,6.3s-1.6,4.3-2.5,6.4-3,4-5.2,5.6-3.9,4.3-5.4,7L65.6,689c-2.9,5.7-5.7,11.5-8.1,17.4s-4.5,11.7-7.1,17.4-5,11.2-9.1,15.6c-2.2,2.3-4.6,4.4-6.4,7s-2.5,4.5-4.6,5.2S21.6,752.4,21.6,751.2ZM382.1,526.7c-2,.4-3.5,2.3-4.7,3.7a28.5,28.5,0,0,1-4.8,4.4c-1.8,1.1-3.6,2-5.3,3.2s-2.9,3.1-4.8,4.1c-4.1,2.1-8.3,4.1-12.6,5.8s-7.7,2.6-10.7,5.7c-1.4,1.5-2.4,3.3-3.7,4.8a49.9,49.9,0,0,1-4.6,4.6,26.6,26.6,0,0,0-3.9,4.3c-1.2,1.8-1.8,3.9-3.1,5.5s-2.8,3.1-4,4.8a20.7,20.7,0,0,0-1.5,2.5c-.5.9-1.1,1.1-2,.4-4-3.2,2.2-7.5,3.3-10.4.2-.8,0-1.7-1.1-1.5a12.8,12.8,0,0,0-2.6,1.7c-1.7,1.2-3.6,2.2-5.4,3.5a56.4,56.4,0,0,0-9.3,8.3c-2.8,3.1-5.2,6.5-8.3,9.4a39.2,39.2,0,0,1-5,3.9c-1.8,1.2-3.7,2.2-5.5,3.5a32.8,32.8,0,0,0-4.9,4.3,10,10,0,0,1-2.1,2l-2.9,1.8c-1.9,1.4-3.6,2.9-5.3,4.4l-5.2,4.3a42.7,42.7,0,0,0-4.8,4.7c-.4.6-1.1,1.4-.8,2.1s1.9.7,2.7.8,4.5.6,6.7.3a11.6,11.6,0,0,0,5.6-2.1c3.9-2.7,7.9-5.1,11.7-7.8a26.7,26.7,0,0,0,7.9-8.5c1-1.8,1.7-3.7,2.8-5.5s.7-1.7,1.6-1.7,1.3,1.3,1.5,2.1c.8,3.8,1.1,7.6-.2,11.3s-4.3,6.6-7.4,9.2a97.7,97.7,0,0,1-11.1,8c-3.7,2.3-7.8,5.1-12.2,5.6a13.2,13.2,0,0,1-6.5-.9c-1.9-.7-3.9-1.9-6-1.4s-3.3,2.2-4.7,3.6-3.5,3.1-5.4,4.6a29.1,29.1,0,0,0-4.3,4.3c-1.3,1.7-2.2,3.7-3.4,5.4-2.7,3.8-6.6,6.7-9.9,9.9l-10.5,10.4c-3.4,3.5-6.8,6.9-10.3,10.3a26.9,26.9,0,0,0-6.3,10.4c-.3.6-2.1,4.8,0,4s2.7-2.9,3.6-4.4c2.1-3.9,5.1-6.9,8.4-9.9,6.8-6.4,13.4-13.2,19.6-20.2,2.9-3.2,5.6-6.3,9-8.8a34.1,34.1,0,0,1,10.5-5.1c4-1.2,7.9-2.2,11.4-4.5,1.8-1.1,3.3-2.6,5-3.8a16.7,16.7,0,0,1,6-2.5,33.8,33.8,0,0,1,13.8-.8c4.8.7,9.6,2.3,14.3,3.6l6.7,1.9,3.6,1.1a4,4,0,0,0,2.6.4,6.9,6.9,0,0,1-1.9-6.3c.3-2.7-.2-5.4,0-8.1a61.5,61.5,0,0,1,4.4-15.9,17.7,17.7,0,0,1,3.6-6.4,22.1,22.1,0,0,0,4.4-6.1c2.1-4.1,3.5-8.3,7.8-10.7,2-1.1,4.2-1.5,6.1-2.8s1.6-2,2.5-1.7.9,1.8.9,2.6a6.9,6.9,0,0,1-2.8,5.3,15.4,15.4,0,0,0-4.7,4.8,51.6,51.6,0,0,0-3.1,7.3,64.8,64.8,0,0,0-2.6,7.8c-.6,2.4-.8,4.9-2.2,7s-2.7,3.9-2.9,6.5a18.4,18.4,0,0,1-1.7,6.5c-2.6,4.9-7.1,11.9-.6,15.8,3.4,2,7.9,3.5,11.8,2.6s5.9-5,7.5-8.6,2.9-8.1,6.9-10.5c1.8-1.2,3.8-1.4,5.7-2.3s3.4-3.1,4.6-5.2a32,32,0,0,0,3.8-14.5c0-5.7.3-11.4,0-17.1-.2-2.8-.6-5.6-.8-8.5s-.1-5.7-.1-8.6,0-2.8.1-4.2a10.9,10.9,0,0,1,.4-4c.5-1.1,1.3-2,1.9-3.1s1-2.2,1.4-3.3,1.5-5.1,2.4-7.6a46.8,46.8,0,0,1,3.5-7.1c2.6-4.6,5-9.3,8.3-13.5a30.1,30.1,0,0,1,2.2-2.8A11.6,11.6,0,0,0,382.1,526.7Zm-52-19.4c-4.4.6-7.9,3.1-11.8,4.9a8.9,8.9,0,0,0-4.2,3.4,30.2,30.2,0,0,0-2.3,4.8,27.8,27.8,0,0,1-3,5.3,48.9,48.9,0,0,1-4.5,4.6,3.6,3.6,0,0,1-2.2,1.1,7.2,7.2,0,0,0-2.5.3,13.9,13.9,0,0,0-2.1,2.1l-2.7,2.1c-3.1,2.5-6.5,4.7-8.6,8.2a4.9,4.9,0,0,0-.5,4.4c.8,1.8,2.8,2.8,1.3,4.9-2.6,3.6-6.2,6.6-9.4,9.7a33.2,33.2,0,0,1-4.7,3.7,33.1,33.1,0,0,0-5.2,3.8,53,53,0,0,0-8.5,9.8c-2.3,3.3-4.2,7-7.1,9.9s-6.6,4.6-9.4,7.6a95.1,95.1,0,0,0-8.5,10.5c-1,1.5-2.3,3-2.7,4.7a7.5,7.5,0,0,1-.9,2.5l-2,2.8a90.1,90.1,0,0,1-8.3,10.2,5.9,5.9,0,0,0-1.3,1.8c-.3,1-.1,1.9-.6,2.9a48.1,48.1,0,0,1-3.7,5.5l-4.1,5.7c-1.2,1.6-3,3.2-3.7,5s-.6,4.4-1,6.5a46.4,46.4,0,0,1-1.7,6.4l-2.2,6.3-.9,3.3a9.6,9.6,0,0,0-.7,2.8c.2,2.5,3.1-.7,3.6-1.3l4.4-5.4c2.8-3.6,5.6-7.1,8.3-10.8a94.8,94.8,0,0,1,8.7-10.3c3-3.2,5.5-6.7,8.9-9.5s7.4-5.8,10.9-9a19.1,19.1,0,0,0,3.7-4.3c1.1-1.7,1.8-3.7,3.2-5.3s2.8-3.1,4.1-4.8,2.3-3.4,3.6-4.9,3.1-2.5,4.5-4a36.1,36.1,0,0,0,3.6-5.1,62.3,62.3,0,0,0,6.6-11.5c1.8-3.9,2.8-8,4.8-11.7a51,51,0,0,1,7.1-10.1c2.8-3.3,4.9-7,7.4-10.5a29.6,29.6,0,0,1,8.7-8.2c3.7-2.1,8-2.6,12.2-3.5s9.1-2.1,13.8-3,8-.6,11.1-3.3a40.1,40.1,0,0,0,3.7-4.7c1.3-1.8,2.7-3.5,4.2-5.2L352,523c1.2-1.5,3.1-3.1,2.5-5.2s-2.2-3.4-3.4-4.7a23.8,23.8,0,0,0-4.3-3.4c-2.6-1.5-6.3-3.3-9.1-1.3s-2.6,2.9-3.6,4.5l-3.5,5.7-1.6,2.7c-.4.6-.8,1.8-1.7,1.7s-.6-.4-.4-.9.3-1,.4-1.5a14.5,14.5,0,0,0,.1-3.6,8.6,8.6,0,0,0,0-1.6c-.1-.5-.4-.7-.5-1.1a2.4,2.4,0,0,1,.6-2C328.5,511,330.4,509.1,330.1,507.3Zm115.6-116c-.2-8.9-.1-17.7-.7-26.5s-1.9-17.7-3.1-26.4-2.8-17.5-4.7-26.1c-.9-4.2-1.9-8.5-2.8-12.7a67.2,67.2,0,0,0-3.4-12.2c-1.4-4-2.2-8.1-3.4-12.1a132.6,132.6,0,0,0-4.5-12.5c-1.5-4.2-3.1-8.4-4.7-12.5s-3.5-7.8-5.4-11.6-3.5-7.8-5.5-11.6-4-7.6-6.1-11.3c-.4-.8-.6-.8-1.5-.8a5.9,5.9,0,0,0-2.3.4c-1.6.6-2.5,2.2-3.7,3.3s-1.5,1-1.7,1.7.5,1.7.6,2.5.4,3.6,1.5,5.2a149.7,149.7,0,0,1,12.6,21,196.7,196.7,0,0,1,9.8,22.7c1.5,4.1,2.6,8.2,4.3,12.1a71.2,71.2,0,0,1,3.9,12.1c2.2,8.4,5,16.7,7.1,25.2.5,2.2,1,4.3,1.3,6.5s.3,4.1.6,6.2a57.6,57.6,0,0,0,1.8,5.9,41.6,41.6,0,0,1,1.3,5.9c.5,4.4.6,8.8.9,13.1s.8,9,1,13.4.5,9,.4,13.5a98,98,0,0,0,.5,13.3,73.1,73.1,0,0,1,.8,13.2,94,94,0,0,1-1.4,13c-.7,4.3-1.6,8.6-2.3,12.8-.4,2.2-.8,4.4-1.3,6.5a63.8,63.8,0,0,0-1.2,6.3,46.8,46.8,0,0,0-.1,6.5c0,1,.1,2,.1,2.9a18.2,18.2,0,0,0,.1,3.3c.1.5.7,1.6,1.4,1.5s1.1-1.8,1.3-2.4c.6-2.1,1.1-4.2,1.6-6.3,2.1-8.6,3.4-17.3,4.8-26.1a160.9,160.9,0,0,0,2-26C445.7,399.9,445.7,395.6,445.7,391.3ZM236.6,566.4c1.8-.3,3.2-.8,5.1-.5a43.1,43.1,0,0,1,4.9,1.1c3.2.9,5.9,2.7,8.9,4s4.1.8,5.6-1.2,2.6-5.8,3.7-8.8a25.3,25.3,0,0,1,4.6-7.5,88.3,88.3,0,0,0,6.5-7.1,53.6,53.6,0,0,1,12.6-13c2.8-2,5.8-3.5,8.3-5.8s4.6-5.1,7.1-7.5a3.6,3.6,0,0,0-2.3-.1l-2.6.3a25.3,25.3,0,0,0-5.3,1.2,37.9,37.9,0,0,1-10.7,1.6,67.9,67.9,0,0,1-11-.4c-3.6-.5-7.1-1.5-10.7-2.1a95.8,95.8,0,0,1-10.7-1.9c-1.5-.4-3.1-1.3-4.7-1a2.8,2.8,0,0,0-1.7.9c-.6.7-.4,1.6-.4,2.4,0,3.6-.9,7.2-.8,10.8a40.3,40.3,0,0,1-1.4,10.9c-1,4-2.1,8-3.1,12-.4,1.8-1,3.7-1.3,5.5A26.1,26.1,0,0,0,236.6,566.4Zm2.7-351a48.6,48.6,0,0,0-5.4,0c-1,.2-1.2.6-.8,1.5,1.2,3.4,3.8,6.5,6,9.3s4.5,6.1,7.7,7.8,7.1.6,10.7-.1l12.3-2.2c3.9-.8,7.7-1.9,11.7-2.6s7.9-1.1,11.9-1.9l6.1-1.1c1.8-.4,3.8-.3,5.5-.8a79.6,79.6,0,0,1,11.7-2.8c3.8-.5,8-.5,11.6-1.7s3.3-3.1,3.2-5.8-2.1-7.5-3.1-11.3c-.3-1-.5-1.9-.7-2.9a3.5,3.5,0,0,0-1-2.1c-1.7-1.2-2.2,2.2-2.5,3.2-.8,3-2.3,4.9-5.4,5.5a38.1,38.1,0,0,1-5.9.5l-6.4.2-12.5.3c-8.4.4-16.8,1-25.2,2a92.2,92.2,0,0,0-11.7,2,68.3,68.3,0,0,1-11.7,2.7A42.2,42.2,0,0,1,239.3,215.4ZM431.8,746c-.8,1-1.9,2.5,0,2.9s3.6-.3,5.1-.7c3.7-1,6.5-3.2,9.4-5.7s4.9-5,8.1-6.4a18.8,18.8,0,0,1,4.5-1.2,6.3,6.3,0,0,0,3.6-2.6l3.5-4.5a8.9,8.9,0,0,1,3.7-2.6,16.4,16.4,0,0,0,6.8-6.5c2-3.4,4.4-6.4,6.4-9.8s3.2-6.8,5.3-10,3.7-5.9,5.7-8.8a110.2,110.2,0,0,0,6.1-10.5c.7-1.3,2-3.2,1.3-4.6s-2.8-.9-4.2-.2a75.3,75.3,0,0,0-9.2,6.8c-2.9,2.2-4.9,5.2-7.7,7.5a73.1,73.1,0,0,1-9.3,6.4c-3.5,2.1-7,4-10.4,6.1s-4.9,4.6-6.4,7.8c-.7,1.6-1,3.3-2,4.7s-2.5,2.1-3.8,3.2-4.5,5.9-6.2,9-3.1,6.6-5.1,9.7a41.5,41.5,0,0,1-6.4,8.1,15.4,15.4,0,0,1-1.9,1.7c-.4.4-1.1.8-1.1,1.4A24.4,24.4,0,0,0,431.8,746ZM343.2,191.4a12.4,12.4,0,0,0,4.7-4.1c1.1-1.9,1.1-4.2,1.9-6.2a18.2,18.2,0,0,1,3.6-5.1c1.7-1.7,3.7-2.9,5.4-4.6a31.1,31.1,0,0,0,2.3-2.8c.4-.6,1.2-1.5.9-2.2s-1.4-.9-1.9-1.4-.6-1.6-.5-2.7-.9-2.4-1.5-3.2c-6-8.3-18.7-5.2-27.1-4.1,3.7,2,7.9.1,11.7,2.3s5.6,5.8,6.4,9.6c.2,1.2.4,2.4.5,3.6s.5,2.5,0,3.3-1.3.2-1.9,0a20,20,0,0,0-4.2-1.1l-8.3-.7a75,75,0,0,1-8.2-.4c-2.6-.4-5.2-1-7.9-1.2a37,37,0,0,0-8.1.7,25,25,0,0,0-3.8.6c-1.2.2-1.6.8-2.5,1.6a4.4,4.4,0,0,1-2.9,1.1l-4.2.7c-2.6.3-5.3.9-7.9.4a35.2,35.2,0,0,1-7.1-2.5,24.2,24.2,0,0,0-3.6-1h-1.4l-.9.3c-.5.2-.4.2-.3.6s.5,1.3.6,1.8a6.8,6.8,0,0,1,.2,1.4,5.5,5.5,0,0,1-.9,3c-1.1,1.6-3.9,2.5-5.8,2.9a4.5,4.5,0,0,1-4.4-1.5c-1.1-1.6-.6-3.6-2.2-4.9s-4.9-1.5-7.3-1.5c-5.6.1-11.2.6-16.8,1.1l-3.9.4a15,15,0,0,0-3.7.4c-1.9.6.1,3.5.6,4.5s2.2,4.3,4,5.7,3.5,1.4,5.6,1.3a25.2,25.2,0,0,1,7.7,1.1,35.8,35.8,0,0,0,8,1c2.7,0,5.2-.9,7.9-1.4s5.4-.6,8.2-1c5.3-.7,9.9-3.4,14.9-5a29.2,29.2,0,0,1,7.7-1.5c1.2,0,2.5.2,3.7.1s2.9-.5,4.4-.5a15.8,15.8,0,0,1,3.8.4c1,.2,2.7.8,3.7.1s-.3-1.5-.6-2.1,0-1.9,1.1-2c5.3-.5,9.2,3.4,13.6,5.5a12.7,12.7,0,0,0,6.9,1.3,7.2,7.2,0,0,1,5.9,2.3,12.9,12.9,0,0,1,2.2,3A12.4,12.4,0,0,0,343.2,191.4Zm-75,500.1c0-3.4-.5-7.6-3.2-10.2s-7.9-1.8-11.1.6a19.5,19.5,0,0,0-6.8,8.5c-.9,2.2-1.9,6-4.4,6.9a3.1,3.1,0,0,1-3.7-1.8c-.3-.9-.1-1.9-.6-2.8a2.6,2.6,0,0,0-2.3-1.7,5.2,5.2,0,0,0-2.1.7,2.5,2.5,0,0,1-1.2.2c-.5-.1-.5-.1-.6-.6s1.1-2.9,1.6-3.9,1.6-2.7,1-4.1a3.6,3.6,0,0,0-3.8-2.1c-3.3.3-6.9,2.1-9.6,4-8,5.4-10.3,16-13.4,24.6,8.7,0,17.4-1.6,26.1-2.2s17.8.4,26.6-.4c5-.4,9.9-1.5,14.9-1.8-.4-1.6.9-2.8.1-4.4s-1.5-2.7-2.2-4S271.3,690,268.2,691.5ZM253.1,291.1a21.2,21.2,0,0,0,9,1.6,63.7,63.7,0,0,0,9.8-.5,78.9,78.9,0,0,0,9.5-1.7,28.2,28.2,0,0,1,9.6-.7,91.8,91.8,0,0,0,19.6-.4,22,22,0,0,1,4.4-.2c1.7.2,3.2.8,4.8.9a18.1,18.1,0,0,0,4.6-.3,36.2,36.2,0,0,1,4.7-.2,4.7,4.7,0,0,0,4.7-3.8c.6-2.7-1.1-4.9-3.3-6.3s-5.3-2.1-8-2.6-5.8.7-8.8,1.4c-1.3.2-2.7.8-4.1,1a40.3,40.3,0,0,1-4.9.3,83.4,83.4,0,0,1-10,0,76.1,76.1,0,0,1-9.6-.6c-1-.2-2.9-.2-2.9-1.3s.9-1.4,2.1-1.6a12.4,12.4,0,0,1,4.3,0c1.5.2,3,.9,4.5.8s2.7-.9,4.1-1.2l4.6-1c3.2-.8,6.5-.4,9.7-.3s6.5,0,9.8.2c1.4,0,2.9.3,4.3.2a2,2,0,0,0,1.9-1.4c.4-1.9-1.6-4.5-2.9-5.7s-4.4-2.6-6.9-3.4-2.7-1-4.2-1.3a19.3,19.3,0,0,0-4.8-.2,80.6,80.6,0,0,1-9.8-.2c-1.6-.2-2.1-.3-2.9,1.2a28.3,28.3,0,0,0-1.4,4.1c-.8,2.5-3.8,2.9-6.1,3.3a52.9,52.9,0,0,0-9,1.6,19.9,19.9,0,0,1-4,1.1c-1.7.2-3.3-.1-4.9,0a66.4,66.4,0,0,0-10,.9c-1.7.3-6.9.3-6.7,3.1s5,1.9,6.7,1.9,6.4,0,9.6.4,6.4,1.1,9.6,1.5,6.4.8,9.7,1h4.9c.3,0,3.4,0,2,1.1s-1.1.2-1.4.3l-2.5.3-5,.3c-3.3.2-6.5,0-9.7,0-6.2-.1-12.7-.3-18.5,1.8A12.2,12.2,0,0,0,253.1,291.1Zm110.1,99a3.5,3.5,0,0,0-2.6-1.6l-4.6-.8a50.7,50.7,0,0,0-8.7-.4c-3.1.1-6.1.6-9.1.4a88.3,88.3,0,0,0-8.9-.4c-3,.1-5.9.3-8.9.6s-4.8.4-7.1-.5-3.7-2.9-6-3.7-4.5-1.1-6.2,0-1.7,4-1.6,6,.5,5.7.7,8.6.5,5.8.8,8.8c0,.9.1,2,1.2,2.3s2-1.1,2.5-2.1,1.3-5.1,1.7-7.7a26.6,26.6,0,0,1,.7-3.9c.4-1.1,1.4-1.5,2-.4s1.2,5.7,1.2,8.1a66.4,66.4,0,0,0,.5,8.9c.4,1.9,1.1,5.4,3.8,3.8s3.5-4.6,3.6-7.1-.8-6.3-1.3-9.4-1.3-6.3-2.2-9.5c.6-.1,1,.4,1.5.7a5.7,5.7,0,0,0,2.1,1.3c1.6.7,3.3.6,5.1.8s2.8.1,3.5.9.3,2,.1,2.8a41.1,41.1,0,0,0-1.5,11c0,2.9.4,6.1,2.8,8.2s6,2.6,9,2.8a22.3,22.3,0,0,0,10.1-2c2.7-1.3,5.1-3.1,6.1-6.1s.4-7.2.1-10.5-.2-4.7,1.5-6.2S360.9,392.1,363.2,390.1Zm-122.6,6.1a6,6,0,0,1,5.1,4.4c.5,1.6.6,3.2,1,4.8a18.2,18.2,0,0,0,1.6,5,9.3,9.3,0,0,0,6,5.1c1.8.5,3.5.7,5.2,1.3a41.4,41.4,0,0,1,4.9,1.9c3.3,1.5,6.5,2.3,10.1,1.5a54,54,0,0,1,5.8-.8,36.2,36.2,0,0,0,4.7.2c2.3-.2,3.7-1.8,4.3-4a13.5,13.5,0,0,0,.4-5.3,46.4,46.4,0,0,0-1.6-5.3c-.9-4,.5-7.9,2.4-11.4,1.1-1.9,2.2-3.7,3.2-5.7a12.1,12.1,0,0,0,1.9-5.2,17.1,17.1,0,0,0-5,1,15.7,15.7,0,0,0-4.2,2.9,13.3,13.3,0,0,1-9.5,3.4h-13c-4.3.1-8.8,0-13.1.5S242.9,392.6,240.6,396.2Zm45.7-46.7c2.2,1.5,2.1,5.1,3,7.4.3.7.7,1.8,1.7,1.7s1-1.8,1.1-2.6c.5-3.2,1.1-6.4,1.8-9.5s.9-6.3-.9-8.6-4.3-1.7-6.5-1.1-5.9,2.6-8.7,3.9a11.7,11.7,0,0,1-4,1.3,21,21,0,0,1-5-.2,83.4,83.4,0,0,0-10-.1c-2.5.2-5.6,0-8,.9-.8.3-1.3,1.2-.5,1.9s1.9.4,2.5,1.3-.8,1.9-1.4,2.5l-3.5,3.2a10.3,10.3,0,0,0-3.5,5.9c-.8,4.1.3,9.4,4,11.8a11.2,11.2,0,0,0,6.9,1.5,77.2,77.2,0,0,1,9.6-.5,37.7,37.7,0,0,0,10.6-1.5,46,46,0,0,1,5-1.3c1.2-.2,2.6,0,3.7-.5a2.2,2.2,0,0,0,1.2-1.9,22.1,22.1,0,0,0,.5-5.1C286,356.4,285.4,353,286.3,349.5ZM274.4,686.1a54.4,54.4,0,0,0,4.5,6.2c1.2,1.6,2.8,3.2,3.6,5.1a6.9,6.9,0,0,0,.5,1.3,4.7,4.7,0,0,0,2.4,1.3,25.5,25.5,0,0,0,5.5.4l5.9-.6a13.5,13.5,0,0,1,6,0c4.7,1.2,9,3.7,13.3,5.9,2,1,4.3,2.2,5.4,4.3s.9,3.9,1.9,5.7c1.5-2.2,3.2-4.1,1.7-6.7a25.1,25.1,0,0,1-2.6-4.5c-.6-1.6-1-3.3-1.5-5s-1-5.9-2.5-8.4a48.7,48.7,0,0,1-4.5-8.8c-.7-2.2-.8-6-3-7.4s-4.5,0-6.5,0a7.6,7.6,0,0,1-4.9-2.2c-2.5-2.4-5.1-7.1-9.3-6.4-2.3.4-4,2.7-5.7,4.1s-2.6,2.3-2.9,4.2.5,5.7-.6,8.2a5.1,5.1,0,0,1-3.2,2.7C276.7,685.7,275.5,685.3,274.4,686.1ZM227.3,518.6c-2.5-.1-4.7,1.1-6.9,2.1l-7.2,3.4a40.4,40.4,0,0,0-11.3,7.7c-1,.9-3.5,2.7-2.4,4.2s3.5,2.5,4.9,4a14.8,14.8,0,0,1,2.9,5.2,12.5,12.5,0,0,0,1,2.7,32.1,32.1,0,0,0,2.1,3c1.3,2,2.2,4.3,3.7,6.1a63.8,63.8,0,0,0,5.2,5.2,5.3,5.3,0,0,0,2.5,1.7,2.8,2.8,0,0,0,2.5-1.2c1.5-1.4,2.8-3.1,4.4-4.5a8.7,8.7,0,0,1,2.4-1.5c.9-.5,1-1.7,1.3-2.6s1.6-4.8,2.1-7.3a17.4,17.4,0,0,1,2.3-6.1,7.7,7.7,0,0,0,.7-6.3c-.8-2.6-.6-5.4-.6-8.1a28.8,28.8,0,0,1,.2-4.1,10.1,10.1,0,0,0,.6-3.8,1.6,1.6,0,0,0-.6-1.3c-.4-.2-.7.2-1,.5a5.2,5.2,0,0,1-1.1,1c-.4.3-.7.9-1.1,1.2s-1.9-.4-2.7-.6A13.2,13.2,0,0,0,227.3,518.6ZM353.2,436a7.3,7.3,0,0,1-3.3.8l-4.7.3h-9c-6-.1-12-.4-18-.7a10.2,10.2,0,0,1-3.5-.5,33,33,0,0,1-3.2-1.8,12.6,12.6,0,0,0-6.9-.8c-2.4.5-3,3-3.3,5.2-.1.6-.5,2.6,0,3.1s2-.7,2.7-.8,4.8.1,5.9,1.7a4.2,4.2,0,0,1,.5,2.2,24.2,24.2,0,0,1-.3,4.7,25.1,25.1,0,0,0,.3,8.2c.5,2.3,1.3,5.3,3.1,6.9s1.9.4,1.9-.8a28.1,28.1,0,0,1,.1-4.1c.4-2.9,1.2-5.6,1.3-8.5.1-1.3.1-2.7.2-4.1a9.1,9.1,0,0,1,.5-3.3,2.4,2.4,0,0,1,1.8-.9l4.4-.3a18.8,18.8,0,0,1,4.1.2c.7.2,2,.3,2.5,1a3.4,3.4,0,0,1,.1,2,2.9,2.9,0,0,0-.1,1.3,6.6,6.6,0,0,1,.6,2c0,1.2-.7,2.4-.9,3.7a13.3,13.3,0,0,0-.4,4c0,2,.3,3.3,2.6,3.2a8.8,8.8,0,0,1,2.8,0c1,.4,1.3,1.3,1.8,2.2,1.5,2.5,4-.4,5.2-1.7s3.2-3.3,3.1-5.5a6.9,6.9,0,0,0-.8-2.8c-.3-.8-1.3-2.1-1.2-3s1.4-1.1,1.6-2-1.3-1.8-1.6-2.8.2-1.2,1-1.4a31.8,31.8,0,0,1,4.3-.6,61.3,61.3,0,0,1,8.5-.9,1.7,1.7,0,0,1,1.7.4c.6.6.7,2.1.8,3a17.1,17.1,0,0,1-.3,7.8c-.8,2.7-2.4,4.8-2.1,7.8a21.2,21.2,0,0,0,1,3.6s.3.8.4.8.8-.3.9-.4a7.8,7.8,0,0,0,1.8-1.1,27.8,27.8,0,0,0,2.7-2.1,5.4,5.4,0,0,0,1.2-.9c.5-.4.4-.9.4-1.5.1-2.9.1-5.8,0-8.8s.2-5.3-.4-7.8a13.1,13.1,0,0,0-3.8-5.8,23.7,23.7,0,0,0-5.9-4.5,42.3,42.3,0,0,0-15.2-4.4,35.7,35.7,0,0,0-8,0c-2.7.3-5.5.4-8,1.3a36,36,0,0,0-6.8,3.4c1.7,2.4,5.3,1.7,7.8,1.7s6.8-.1,10.2,0l10.1.3,4.8.4C351.3,434.9,352.5,435,353.2,436Zm7.1-93.8a65.3,65.3,0,0,0-10.9-1.8,109.2,109.2,0,0,0-11.5-.9,112.4,112.4,0,0,0-11.6.4l-5.6.4a33.8,33.8,0,0,1-5.5.3c-3.2-.2-5-2.2-6.9-4.6-.7-.8-1.9-2.7-3.1-2.5s-2.1,2.5-2.3,3.7a7.6,7.6,0,0,0,.6,4.2c.6,1.4,1.7,2.4,2.5,3.7a9.9,9.9,0,0,1,1.3,4.1,29.1,29.1,0,0,1-.3,5.1,23.7,23.7,0,0,0,.4,5.3,14,14,0,0,0,1.5,4.9c1.2,1.9,5.9,3.3,6.7.2.4-1.4-.9-3-1.4-4.2a19.6,19.6,0,0,1-1.3-5.3,49,49,0,0,1-.4-5.4c-.1-1.7,0-2.7,1.7-3.4a6.3,6.3,0,0,1,6.8,1.4c2.3,2.3,1.9,5.7,2.1,8.6s1.7,6.6,4.2,8.4a8.1,8.1,0,0,0,4.3,1.4c2,.2,4,.4,6,.4a45.6,45.6,0,0,0,6.4-.2c1.8-.1,4-.1,5.6-.9a4.3,4.3,0,0,0,2.3-3.2,31.5,31.5,0,0,0,.6-6.1,23.6,23.6,0,0,0-1.1-6c-.4-1.2-.7-2.2.5-3C354.8,345.5,358.9,345.8,360.3,342.2Zm-5.7,138.2c-.3-.9-.5-2-1.6-1.3a24.3,24.3,0,0,0-3.4,3c-2.3,2.3-3.4,5.1-4.9,8a69.8,69.8,0,0,1-5.5,8.6c-.5.8-2.2,2.6-1.2,3.5s1.5.7,2.2.9a25.1,25.1,0,0,0,5.5.7l5-.3c.8-.1,1.7-.5,2.2.4s.2,2,1.2,2.4c3.2,1.2,5.7-3,6.9-5.1a32.7,32.7,0,0,1,3-3.5,41.2,41.2,0,0,0,3.3-4c2.1-2.8,4.1-5.7,6.1-8.5a64.3,64.3,0,0,1,6.2-7.6c2.1-2.1,4.1-4.1,5.2-7a12.3,12.3,0,0,0,.8-3.9c.1-.9,0-1.5,1-1.6a20.6,20.6,0,0,1,4.2.4l2.8.2c.7.1,2,.5,2.7.1s.7-2,0-2.6a10.4,10.4,0,0,0-4.1-2.3,9.1,9.1,0,0,1-5.2-5.3c-.1-.2-.1-.4-.3-.6s-.6-.1-1.1.2l-2.2,2a44.8,44.8,0,0,1-4.4,3.2l-4.6,3.3a34.3,34.3,0,0,0-4.3,3.2,24.3,24.3,0,0,1-3.8,3.3c-.7.5-1.6.8-2.4,1.3a14.5,14.5,0,0,0-1.6,1.8c-1.2,1.3-2.7,2.5-3.8,3.9a4.7,4.7,0,0,1-1.9,1.5Zm7.8,44a42.8,42.8,0,0,0,8,0,4.9,4.9,0,0,0,3.3-1.3l2.9-2.3a34.8,34.8,0,0,1,6.4-3.2,18.5,18.5,0,0,0,5.6-4c1.8-1.9,3.4-4.1,5.2-6l5.5-6c3.7-3.8,7.3-7.7,10.8-11.8,1.6-1.9,3.4-3.9,4.9-6s1.3-1.6.9-2.5-1.7-1.6-2.5-2.1c-3.5-2.3-7.5-5.2-11.6-2.4s-5.2,7.9-8.8,11-7.9,6.8-11.9,10.2a43.1,43.1,0,0,0-5.6,5.7,62.4,62.4,0,0,0-4.6,6.8c-1.5,2.3-3.5,4.2-4.9,6.5A45.8,45.8,0,0,0,362.4,524.4ZM397.9,211a29.6,29.6,0,0,0-2.6-11,66.6,66.6,0,0,0-6.3-10.2,96.5,96.5,0,0,0-7.5-9.4c-.9-1-2.7-2.6-4.2-2.7s-2.7,2.1-3.5,3.1c-2.7,3.2-5.3,6.5-7.8,9.8l-1.7,2.4a7.7,7.7,0,0,0-1.4,2.5c-.3,1.7,1.7,3.6,2.6,5a32.3,32.3,0,0,1,4.3,10.5c.4,1.8.4,3.8,1.3,5.4a4.8,4.8,0,0,0,3.8,2.3c2.4.4,4.8-.2,7.2-.4a18.8,18.8,0,0,1,3.4-.2,10.3,10.3,0,0,0,3.5.2,18.1,18.1,0,0,0,5.7-2.9C396.1,214.5,398.4,213,397.9,211Zm-94-13.4a4.5,4.5,0,0,0,2,3.3,7.9,7.9,0,0,0,4.3.8h6.5c1.4,0,3.3.3,4.4-.8s.8-2.8.6-4.1-.5-4.3-.8-6.4-.2-3.5-1.6-4.2-3.8-.6-5.3-.3-4.1,1-6.2,1.4l-6.3,1.1-12.7,1.7c-8.6,1.2-17.3,1.8-25.9,2.6l-7.1.6c-1.7.2-4,.5-5.2,1.9s-.5,1.4-.7,2.2-1,.9-1.5,1.6-.1,1.4,0,2.1.4,2.4.7,3.6c3.5-1.5,7.2-1.4,10.9-1.6a64.2,64.2,0,0,1,11.6-.2,35.2,35.2,0,0,0,11.2-.5l5.4-1.4,5.4-.6C297.4,200.4,300.9,200.5,303.9,197.6ZM233.7,324.5c3.6,1.2,6.9-.2,10.5-.9s7.4-.6,11-.7l11.2-.4c3.3-.1,6.9-.4,10.1.3a10.2,10.2,0,0,1,6.4,4c1.5,2.2,3.1,3.6,5.8,3.2a5.8,5.8,0,0,0,2.5-1.2c1-1.1.9-2.7,1-4.1a43.6,43.6,0,0,0,.3-5.1c0-1.2-.2-2.2-1.5-2.5s-5.2.3-7.1-2-.8-5.6-.6-8.1a35.9,35.9,0,0,0-.9-10.8c-.3-1.1-1-2.1-2.3-2a4.1,4.1,0,0,0-3.2,3c-1.4,3.4-.6,7.1-.6,10.6a23.5,23.5,0,0,1,.1,2.6,5.7,5.7,0,0,1-.3,1.8c-1.2,1.6-2.3-1.2-2.7-2-1.3-2.4-1.8-5-4.8-5.8a11.8,11.8,0,0,0-7.2.5,10.8,10.8,0,0,0-5.2,5.9c-.6,1.5-1,3.2-2.1,4.5a7.6,7.6,0,0,1-3.3,2.3c-1.9.6-3.8.7-5.7,1.2a8.9,8.9,0,0,0-3.8,2.6c-1.3,1.3-2.4,1.4-4.1,1.2S234.5,323.2,233.7,324.5ZM330,162.6c-2.1-2.8-6.3-3.4-9.6-3.5a103.7,103.7,0,0,0-12.4.5,23.2,23.2,0,0,1-5.9.2c-2-.3-3.9-1.1-5.9-1.4-4-.5-8.3,0-12.3.2-11.5.6-23.1,4.1-34.5,3.7-2.1,0-3.8-.3-5.9.4l-5.3,2a34.7,34.7,0,0,1-5.6,1.1c-3.8.4-7.6-.5-11.4-.5a26,26,0,0,0-5.6.6c-1.5.4-1.6,1.9-.3,2.5,3.6,1.8,7.9,1,11.7.7s8,.2,12.1.3,8.2-.1,12.3-.4c8.2-.6,16.5-1.5,24.8-2,4.1-.2,8.2.1,12.3-.1s8.1-.7,12.2-1c8.3-.8,16.6-1.5,24.9-1.7A5.9,5.9,0,0,0,330,162.6Zm1.1,157.7a106.5,106.5,0,0,0,11.3-.1c1.6-.2,4.1-.4,5.4-1.4s0-2.2-.7-3-2.9-2.8-4.2-4.2-2.3-2.9-3.7-4.2a16.3,16.3,0,0,0-9.6-4.3c-3.3-.3-7.6-.2-10.5,1.6a7.7,7.7,0,0,0-2.7,3c-.7,1.4-1,2.9-1.9,4.1a6.9,6.9,0,0,1-3.4,2.2c-1.6.5-3.3.3-4.9.7s-3,.9-3,2.5,1.3,3.2,2.4,4.1,3.4-.4,4.9-.8a19.9,19.9,0,0,1,6.4-.6C321.6,320,326.4,320.6,331.1,320.3Zm-13.2-74.4c-.9-1.8-2-3.5-2.9-5.3s-.7-1.7-1.1-2.6-1-1.1-1.9-1.4a7.3,7.3,0,0,0-2.5-.8c-1.1-.1-2.1.2-3.2,0a21.6,21.6,0,0,0-6.2-.9,34,34,0,0,0-6.3.8c-1.9.4-3.3,1.8-5.2,2.1a29.4,29.4,0,0,1-5.9.2,18.1,18.1,0,0,0-6.1.9,24.1,24.1,0,0,0-9.1,6c-1.1,1-2.4,2.9-1.9,4.5s2.2,1.9,3.4,2.3a12.9,12.9,0,0,0,4.8.3c1.8-.3,3-1.3,4.5-2.2a15.8,15.8,0,0,1,5.2-2.1c2-.4,4-.3,6-.5s2.5-.5,3.7-.7l3.6-.3,7.6.2h3.7a17.1,17.1,0,0,1,3.2.1l3.6.2A3.9,3.9,0,0,0,317.9,245.9ZM289.4,445.7a17.8,17.8,0,0,0-2.4,8.2c-.2,2.7-.1,6,1.1,8.4.4.8,1.2,1.9,2.2,1.3s1.2-2.4,1.4-3.3a21.1,21.1,0,0,0,.6-8.3c-.1-1.4-.3-2.8-.5-4.2a11.6,11.6,0,0,0-.4-1.8c-.2-.5-.9-.8-.8-1.4s1.4-1.7,1.8-2.2a17.3,17.3,0,0,0,2.1-3.4,14.8,14.8,0,0,0,1.3-3.5c.2-.7.7-2.2.3-2.9s-1.4-.6-2-.6a13.8,13.8,0,0,0-4,1c-2.3,1.1-4.2,2.8-6.3,4.2s-4.9,2.1-7.8,2.3l-8.7.2c-3-.1-6.1-.5-9.1-.4s-5.7.4-8.6.5-6,0-8.5,1.2-1.2,3.8.7,4.6,5.6,1,8.4,1a56.9,56.9,0,0,1,10.1.3c3.2.5,6.6-.1,9.9-.2s3.4.2,5.1.3,3.2-.3,4.9-.5S286.5,446.8,289.4,445.7Zm-76.2-45.2c2,1.6,2.6,3.8,3.3,6.1s1.6,5.1,2.5,7.7a62.3,62.3,0,0,1,2.2,7.7c.5,2.1.4,4.6,2.5,5.8s5.6.2,5.1-2.3-.8-2.2-1.1-3.3-.5-3-.8-4.5-.8-5.3-1.4-8-1.6-5.4-2.1-8.3-.2-5.3-.6-7.9-1.1-3.8-3.3-3.9a6.3,6.3,0,0,0-5.1,2.5c-.7.7-1.1,1.7-1.8,2.4s-1.9,1-2.7,1.8-2.2,4.5-2.4,6.7.5,5.7.5,8.5-.3,5.9-.4,8.8-.8,4.7,1.5,5.6,5.4,1.4,6.6-.6a7.1,7.1,0,0,0,.7-3.5,13.5,13.5,0,0,0-.5-4.4c-.7-2.8-2.1-5.3-2.5-8.2A50.6,50.6,0,0,1,213.2,400.5Zm9.6-35.6v-9.7c0-2.6,0-5.2-2.2-7s-7.1-2.1-10-.2c-4.6,3.2-3.1,9.4-3.6,14.2a27.1,27.1,0,0,1-2.2,8c-.4.8-.8,2.1-1.7,2.5s-2.2-.3-3.1-.5-6.3-.5-6.2,2.4,2.8,3.1,4.5,3.1,2.2-.6,3.4-.8a14.8,14.8,0,0,1,4.7-.1,3.9,3.9,0,0,0,3-.2,5.9,5.9,0,0,0,1.9-3.2,32.9,32.9,0,0,0,.3-4.5c.1-1.6.1-3.3.2-4.9s.1-5.9,1.2-8.7c.3-.7,1.2-2.9,2.4-2.5s.4,2.7.3,3.5c-.5,3.2-1,6.4-1.3,9.6s-.6,7.3.2,10.7a5.5,5.5,0,0,0,5.6,4.1c2.3-.3,2.6-2.6,2.6-4.5C222.9,372.4,222.8,368.6,222.8,364.9Zm-47,329.4c-2.2,2.5-3.1,5.8-4.5,8.8s-3.9,5.7-5.7,8.6-3.4,5.3-2.2,7.7,3.1,1.2,4.7,1.1,3.2.2,4.6-1.2,2.2-4.1,2.4-6.2.2-5.2.4-7.7a22.4,22.4,0,0,1,1.9-7.6,64.4,64.4,0,0,1,9.5-16,34.1,34.1,0,0,0,3-4.4c.7-1,2.1-3.1,1.7-4.4s-3.7.2-4.5.7c-2.5,1.7-4.5,4.2-7.4,5.4a58.1,58.1,0,0,1-17.5,3.6c-1.7.1-8.8.1-6.6,3.5s9.9,2.8,14.5,2.6a13.1,13.1,0,0,1,3.4.3,9.5,9.5,0,0,0-.3,5.3A7.5,7.5,0,0,1,175.8,694.3Zm154.3,7.2a24.8,24.8,0,0,0,1.7-3.2c.5-1.2.8-2.3,1.3-3.5a50.5,50.5,0,0,0,3.3-7.1c.8-2.6,1.4-5.2,2.4-7.6a70.5,70.5,0,0,1,3.6-7.3c-1.8-.2-1.7-2.2-2.2-3.6s-1.6-1.3-3-1c-4.8,1-9.9,1.8-14.6,3.6a41.6,41.6,0,0,1-7.1,2.1c-.5.1-1.7,0-1.5.9s.8.7,1,1l1.3,1.3a12.8,12.8,0,0,1,1.7,2.2,22.4,22.4,0,0,0,1.3,2.7l2.2,2.9a9.7,9.7,0,0,1,1.9,2.6,4.4,4.4,0,0,1,.2,1.6,3.5,3.5,0,0,0,.6,1.4c.6,1.2,1.1,2.4,1.8,3.6S328.7,699,330.1,701.5ZM276.2,255.4c2.1,2.3,4,5.3,7.3,5.8a18.3,18.3,0,0,0,4.7-.2c2-.3,4-.4,6-.5,3.9-.2,7.8-.2,11.6-.1s7.3.6,10.8-.3a8.3,8.3,0,0,0,4.1-2c1-1.1.7-2.4,0-3.6-1.7-2.9-5.1-3.3-8.1-4.1-1.2-.4-1.3-1.7-2.6-1.8a34.9,34.9,0,0,0-4.6.1h-5.7c-1,0-2.4-.4-3.3.4s-.5,1.1-1.3,1.5l-2.6,1.6a26.5,26.5,0,0,1-5.4,2.5,15.1,15.1,0,0,1-5.6.7C279.8,255.3,277.8,254.1,276.2,255.4Zm9.9,124c-3.5-1.9-7.6-2.3-11.4-2.4a93.1,93.1,0,0,0-12.9.8,55.5,55.5,0,0,0-11.5,2.1,37.6,37.6,0,0,0-5.5,2.3,14,14,0,0,1-5.3,1.9c-1.9.3-3.9-.1-5.9.1a16.6,16.6,0,0,0-5.8,1.5c-2.1,1-.2,2.2,1.2,2.5s4.2.3,6.3.5a46,46,0,0,0,12.3-.5,87.7,87.7,0,0,1,12.5-1.9l7.4-.2a23.5,23.5,0,0,0,7-.8C278.7,384,282.3,381.6,286.1,379.4Zm92.8-18.8c-.5-5.7-1-12.2-4.5-17-1.7-2.1-3.8-3.5-6.6-3.4a8,8,0,0,0-5.7,3.1c-1,1.2-2.8,3.2-1.6,4.7a9.1,9.1,0,0,0,2.4,2,7.2,7.2,0,0,1,2.4,2.8c1.2,2.5,1.1,5.8,1.3,8.5s.9,5.9,2.9,7.5,4.8-.1,6.4-1.4A8.7,8.7,0,0,0,378.9,360.6Zm-116,127.3c3.2,0,6.4,0,9.7-.2a75.7,75.7,0,0,1,9.5.2,49.1,49.1,0,0,0,9.4-.1c2.6-.3,5.4-.8,7.2-2.9a5.7,5.7,0,0,0,.7-5.9c-.9-2.3-2.9-3.1-5.3-2.7s-2.3.9-3.6,1.2a9.3,9.3,0,0,1-4.4.1,25.7,25.7,0,0,0-4-.6,12.2,12.2,0,0,0-4.6.9,49.4,49.4,0,0,1-5.2,1.3,34.3,34.3,0,0,0-4.6,1.1C264.8,481.6,263.6,485,262.9,487.9ZM372.7,321.4c-2-1.9-3-4.3-4.1-6.8s-2.5-5.7-3.8-8.5-4-9.2-9-9.1c-1.6,0-4.6.3-5.2,2.1s.6,5.4,1.4,7.7,2.2,5.5,3.2,8.4,1.1,5.3,2.7,7.2a5.6,5.6,0,0,0,5.9,1.7C366.9,323.4,369.6,321.9,372.7,321.4Zm-88.6,10.3a14.1,14.1,0,0,0-6.7-4.3c-3.1-.8-6.5-.3-9.6-.3-6.8,0-13.6-.3-20.3,1.2a17.1,17.1,0,0,0-7.7,3.6c-.8.6-2.3,1.7-2,2.9s2.2,1,3.1,1.1a155,155,0,0,0,21.5.7,23.3,23.3,0,0,0,5.3-.6,47.2,47.2,0,0,0,5.3-1.8A68.7,68.7,0,0,1,284.1,331.7ZM247.2,501.2c-2.6-.4-3.2-3.7-4.3-5.7a11.8,11.8,0,0,0-4.6-4.8,10.1,10.1,0,0,0-3-1.3c-1.7-.5-1.4,1-.8,2.1,1.5,2.6,3.1,5.2,4.7,7.7s3.2,4.9,5,7.2a10,10,0,0,0,5.1,3.7c1.8.5,4.6.7,5.9-1s1.4-5.2,1-7.7a32.8,32.8,0,0,0-3.4-9.2c-.5-.9-1.6-2.5-1.1-3.6s2.5-1.4,3.5-1.8c-2.4-1.2-4.9-2-7.1-3.4l-1.3-1.1c-.2-.2-.4-.5-.7-.6s-.2-.4-.6,0-.9,2.4-1,3.3c-.3,2.9,1,5.2,1.8,7.9A21.2,21.2,0,0,1,247.2,501.2ZM355.5,330.5c-2.1-2.1-4.8-2.5-7.7-2.8l-10.1-.7a123.7,123.7,0,0,0-20.2.7c-1.4.2-2.9.3-4.3.6a4.9,4.9,0,0,0-1.7.6l-.9.5c-.6.4-.6.4-.4.8s2,2.1,2.8,2.7a10.6,10.6,0,0,0,3.3,1.8,27.6,27.6,0,0,0,4,.6l5.3.4a51.5,51.5,0,0,0,9.6-.5,47.7,47.7,0,0,0,5.1-1.3,44.6,44.6,0,0,1,5.1-.7C348.9,332.8,352.6,332.6,355.5,330.5Zm2.9,52.9c-.3-.7-2.5-1.2-3.2-1.5a15.8,15.8,0,0,1-3.1-2.7c-2-1.9-5.3-2-8-2.1a151.3,151.3,0,0,0-20.2.2c-2.7.2-5.9-.1-8,2a2.8,2.8,0,0,0-.7,3c.5,1.2,2,1.8,3.1,2.1a8.5,8.5,0,0,0,4.2.1l4.8-.2a69.5,69.5,0,0,1,10.2.2l5.4.5a33.3,33.3,0,0,0,5.4-.7,49.3,49.3,0,0,1,5.5-.3C355.1,384,357.3,384.6,358.4,383.4ZM245.8,434.8c1.2,1.1,3.6,1.5,5.1,1.8a21.8,21.8,0,0,0,5.7.3,33.1,33.1,0,0,0,5.5-.4,33.5,33.5,0,0,1,5.5-1.1,68.5,68.5,0,0,1,12,.3,17.2,17.2,0,0,0,2.4.4c.8-.1,1.4-1,1.9-1.5a57.1,57.1,0,0,0,3.9-4.7c-3.7.2-7.4-.2-11-.3s-8-.2-12-.1-7.7,0-11.3.7A11.9,11.9,0,0,0,245.8,434.8ZM224.1,439c-4.5,0-7.7,3-7.6,7.5a80.9,80.9,0,0,0,.8,9.9c.4,2.9,2.1,5.5,2.8,8.4a24.3,24.3,0,0,1,.8,4.7c.2,1.3.2,3,.9,4.2s3.9-1.2,4.3-2.3a17.3,17.3,0,0,0,.4-9.3c-.6-3-2.5-5.5-3.4-8.4s.5-6.5,2-9.6a19.6,19.6,0,0,0,1.2-2.6c.2-.5.6-1.1.5-1.6S224.9,439,224.1,439Zm20.8-245.1c.2-2.4-2.7-1.3-4.1-1.1l-7.4,1-3.3.7a1.7,1.7,0,0,0-1.2.6c-.4.6-.3,1.4-.5,2a8,8,0,0,1-.9,2.6,8.9,8.9,0,0,1-2,1.9c-.9.8-.1,1.8.3,2.8s1.6,4.5,3.5,3.4a15.6,15.6,0,0,1,6-1.5c2.6-.1,5.2-.4,7.8-.7.6,0,1.1,0,1.4-.5a7.6,7.6,0,0,0,.1-2.6A61.3,61.3,0,0,1,244.9,193.9Zm21.8,256.9h-3.6c-.5,0-1.9-.3-2.4.2s-.1,1.4,0,1.9a9.4,9.4,0,0,0,1.2,3,15.7,15.7,0,0,0,8.5,6.9,23.5,23.5,0,0,0,5.3.9c1.6.1,3.8.5,4.4-1.4a17,17,0,0,0,.2-7.1c-.1-1.4,0-3.6-1.1-4.7s-3.2-.6-4.6-.2S269.3,450.8,266.7,450.8ZM329,486.3c2.4,0,4.9.1,7.3-.1s4.4-.3,6.2-1.5c3.9-2.8-1.5-6.5-4-7.4a20.5,20.5,0,0,0-13.4-.3,10,10,0,0,0-4.8,3.2c-.9,1-2,2.6-1.8,4s1.5,1.8,2.7,2A68,68,0,0,0,329,486.3Zm-32.9-122a61.9,61.9,0,0,0,.3,7.4c.2,1.7.6,4.6,2.2,5.5s3.3.5,4.6-.1a4.7,4.7,0,0,0,2.7-3.1c.5-1.9-.1-4-.5-5.9s-1-5-1.6-7.5-1-5.1-1.6-7.6-1-6-3.1-4.1-2.2,4.7-2.5,6.8A62,62,0,0,0,296.1,364.3Zm10.8,134.2v9c0,1.3.1,2.2,1.5,1.6s3.7-1.9,3.9-4.3-.2-6.1-.2-9.1.3-5.2,1.8-7.3,1.8-1.8,2-3.2a5.5,5.5,0,0,0-.8-3.5,10.2,10.2,0,0,0-4.9-4.5c-1.7-.8-3.9-1.6-4.1,1a30.1,30.1,0,0,0,.1,5.2,38.5,38.5,0,0,1,.8,4.7A51.6,51.6,0,0,1,306.9,498.5ZM218.6,175.4c1.5,2.1,2.9,4.8.6,7s-2.6,1.1-4.1,1.4-1.6,1.5-.7,2.6a26.7,26.7,0,0,0,3.7,3.8,9,9,0,0,0,1.9,1.5c.5.4,1.4,1.1,2.1,1s.8-.8,1.2-1.2a14.2,14.2,0,0,1,2.2-.5,54.6,54.6,0,0,1,5.7-.4c-1.3-4.1-3.2-7.9-4.3-12-.4-1.5-.7-3.1-2.5-3.3A28.2,28.2,0,0,0,218.6,175.4ZM370.3,405.1l.3-6.3a5.2,5.2,0,0,0-1-4,6.6,6.6,0,0,0-3.6-2.3c-1.5-.4-1.6.9-1.8,2.1-.4,4.7-1,9.6-.6,14.3.2,2.1,1.3,10,4.9,8.6,1.7-.7,1.5-3.3,1.6-4.8S370.1,407.6,370.3,405.1ZM241.6,455.2c-.1-1.4-.2-2.8-1.6-3.4s-3.4,0-4.8,1a3.3,3.3,0,0,0-1.5,3.6c.2,2,.6,3.9.9,5.8s.8,3.8,1.3,5.7a10,10,0,0,0,2.2,4.2c.9.9,2.3,1.5,3.4.6s1.2-3.1,1-4.6-1-4.3-1.2-6.5A27.2,27.2,0,0,1,241.6,455.2ZM213.5,323.1a24.6,24.6,0,0,0-6,1.2c-1.3.5-3.8,1.3-3.5,3.2s3.3,1.5,4.6,1.5a12.4,12.4,0,0,1,5,1,12.2,12.2,0,0,1,4.3,3.1c1.1,1.1,3,3.1,4.7,3,3.7,0,1.3-6.5.2-8.1A11.9,11.9,0,0,0,213.5,323.1ZM386,391.8c-.7-1.3-1.4-3.5-2.9-4s-3,.4-4,1.2c-2.9,2.2-2.9,6.6-3,9.9a50.2,50.2,0,0,0,.4,6.7c.1,1.4.1,4.5,1.6,5.3s2.9-1.9,3.2-3a21.5,21.5,0,0,0,.8-6.2c.1-2.4.2-4.9.2-7.3.1-.8.1-1.8.9-2.2S385.1,392.2,386,391.8Zm-28.7-205a11,11,0,0,0,7.4-3.9c2.2-2.8,3.1-6.6,4.1-10,.3-1,1.3-3.3-.5-3.6s-2.6,2-3.4,2.9a50.2,50.2,0,0,1-7.8,7.5c-1.5,1.2-3.2,2.5-3.2,4.5S355.6,186.9,357.3,186.8ZM271.6,472.7a19.9,19.9,0,0,0,6.9-.9l3.3-1a3.1,3.1,0,0,0,1.8-.7c1.3-1.4-.6-2.3-1.7-2.7a32,32,0,0,0-6.8-1.6l-6.9-.7c-2-.2-3.9-.6-4.6,1.9C262.4,471.4,268.5,472.8,271.6,472.7Zm-.8-216a16.3,16.3,0,0,0-5.2,1.2c-1.2.6-3.6,1.8-2.8,3.5s3,2.6,4.5,3.2a15.2,15.2,0,0,0,5.6,1.7c3,.1,4.8-3.3,4.1-6.1S273.4,256.7,270.8,256.7Zm24.5,231.9a6.7,6.7,0,0,0-3.6,1.2,5.6,5.6,0,0,0-1.3,2.8,22.9,22.9,0,0,0-.3,6.4c.1,1.9.4,4.1,1.6,5.6a15,15,0,0,0,2.4,2l1,.7c.5.3.8.8,1.3.3s.5-2.1.6-2.9,0-2.2-.1-3.3a37,37,0,0,0-.7-6.6C295.7,492.8,294.9,490.7,295.3,488.6ZM228.5,352.1c-1.5.9-2,3.3-2.4,4.8a24.7,24.7,0,0,0-.8,6,30.8,30.8,0,0,0,.7,6.1c.2,1.3.5,3.9,2.2,4.1s2.1-2.8,2.2-4a21.5,21.5,0,0,0-.2-6.2,26.9,26.9,0,0,1-.6-6.3C229.8,354.8,230.1,353.3,228.5,352.1Zm-2.4-57.7a13.8,13.8,0,0,1-7,5.1c-1.3.6-3,.8-3.7,2.2s.6,1.9,1.8,2.2c3,.6,6.8.3,9-2.2S227.7,296.7,226.1,294.4Zm2.6,117.7a32.4,32.4,0,0,0,2,10.2c.4,1.2,1.1,2.2,2.6,1.7a2.2,2.2,0,0,0,1.5-2.8c-.8-3.6-2-7.2-3-10.8-.3-.8-.6-3.4-2.1-2.9S228.8,411.1,228.7,412.1Zm73.8-89c-.1-.8-.2-3.1-1.2-3.6s-2,.9-2.5,1.3c-2.1,1.9-2.9,4.4-3.5,7-.2.8-1,2.6.1,3.1s2.5-.9,3.3-1.4A7.9,7.9,0,0,0,302.5,323.1Zm-.5-10c1.2-.5,1.8-2.1,2.4-3.2a16.6,16.6,0,0,0,1.1-3.8c.3-2,.4-6-1.6-7.2s-3,3.7-3.1,4.9a41.7,41.7,0,0,0,.1,5C301.1,310.2,301.1,311.9,302,313.1ZM147.7,717.5c-.7.1-1.1.8-1.7,1.2l-1.6.7a7,7,0,0,0-3.2,1.3c-2,1.9,2.1,3,3.3,3.2s4.9,1.2,4.7-1.4C149.1,721.6,148.9,717.4,147.7,717.5ZM269.3,172.1a2.7,2.7,0,0,0-3.3,3.2,3.1,3.1,0,0,0,2,1.9,14.2,14.2,0,0,0,3.1,1.1c1.9.1,2.9-2.1,2.7-3.8a3.6,3.6,0,0,0-1.3-2.1l-1.3-.4C270.6,172,269.9,172.4,269.3,172.1ZM242.9,274.7c-1.5.1-4.2.5-4.7,2.4s2.5,2.8,3.8,3.1,3.5,0,4.2-1.9a2.4,2.4,0,0,0-.5-2.4A4.2,4.2,0,0,0,242.9,274.7ZM222.5,515.5c1,.5,2.8-.6,3.6-.9s2.8-1.3,4.2-2,3.1-1.7,2.2-3.9a9.1,9.1,0,0,0-.7-1.4c-.1-.1-.4-.5-.6-.5s-.4.1-.6.4a21.3,21.3,0,0,1-2.6,2.6C226,511.6,223.9,513.3,222.5,515.5Zm-3.8-202.4c0-1.2.1-4.6-2.2-3.1s-1.8,4-1.7,5.8a4.4,4.4,0,0,0,.8,2.5c.4.4,1.3,1.1,2,.8s.7-1.9.9-2.6A12.7,12.7,0,0,0,218.7,313.1Zm32.4-64.6c.1,1.3,0,4.2,2,4.3s2.5-2.9,2.4-4.3a4,4,0,0,0-2.5-3.6C251,244.3,251.2,247.3,251.1,248.5Zm-34.9-70.1c-.2-3.5-5.4-3.2-5.2.2S216.3,181.7,216.2,178.4ZM436.4,383.6v3.2A6.9,6.9,0,0,0,436.4,383.6Z" transform="translate(-21.6 -148.8)"/>
    <path d="M98,662.4c1.9,2.4,1.9,5.8,1.8,8.7s-.4,6.7-.7,10c-.5,6.3-3,12.2-4.3,18.4-.7,3.3-1.2,6.5-1.6,9.8-.1,1.5-.3,3-.5,4.5a28.7,28.7,0,0,0-.7,5c-.1,3.1.9,6,2,8.9s2.1,6.1,1.2,9.4c-.4,1.4-1,2.7-1.3,4.1s-.5,2.6-.9,3.9-2.5,3.6-4.6,5-.7.9-1.2,1.3a1.8,1.8,0,0,1-1.4.4c-.7,0-1.3.1-1.5-.6a4.8,4.8,0,0,1,0-1.2,6.6,6.6,0,0,0-.1-2c-.1-1.9-.1-3.7-.1-5.6s0-6.3.3-9.4,2.1-5.7,2.5-8.8c.1-1.5-.1-2.9-.1-4.4a23.3,23.3,0,0,1,.6-5.3c.5-3.2,1.4-6.3,2-9.4,1.6-7.5,2.4-15,3.4-22.5a99.1,99.1,0,0,1,1.8-10.9c.4-1.8.8-3.6,1.3-5.3S96.7,663.3,98,662.4Z" transform="translate(-21.6 -148.8)"/>
    <path d="M109.2,749.9c-1.4-.1-3.6-.5-4.5-1.8s-.3-3.2,0-4.5a105.1,105.1,0,0,1,4.1-11.1,24.1,24.1,0,0,0,1.6-5.4,44.7,44.7,0,0,0-.1-5.2,14.2,14.2,0,0,1,3.3-8.4,47.3,47.3,0,0,1,3.7-4,7,7,0,0,0,1.3-1.7c.1-.7-.7-1.3-.4-1.9s3.1,2.4,3.4,2.9,2.2,2.8,1.3,4.5a42.1,42.1,0,0,0-2.8,4.5c-.3.6-.5,1.4-1.1,1.8s-1,.3-1.4,1a21.8,21.8,0,0,0-1.1,4.4c-.6,1.9-1.1,3.8-1.6,5.8-1.1,3.9-1.8,8-4.1,11.4a9.9,9.9,0,0,0-1.7,3.2A17,17,0,0,0,109.2,749.9Z" transform="translate(-21.6 -148.8)"/>
    <path d="M127.5,660.2c-.1-4.8,3.5-7.5,7.8-8.4s8.1-1.1,10.5,1.9,2.2,7.1,1.1,10.1-6.3,5.9-10,6.3C131.5,670.7,127.6,665.1,127.5,660.2ZM139,662c0-4.3-6.6-4.4-6.7-.1S138.9,666.3,139,662Z" transform="translate(-21.6 -148.8)"/>
    <path d="M321.5,216.4a4.2,4.2,0,0,1,.1-5.7,7.5,7.5,0,0,1,2.5-1.3c1.4-.5,2,.3,2.6,1.5a4.7,4.7,0,0,1-1.1,5C324.5,217,322.7,217.7,321.5,216.4Z" transform="translate(-21.6 -148.8)"/>
    <path d="M383.9,197.8c2.6,0,4.9,1.9,4.6,4.6a4.2,4.2,0,0,1-5.4,4c-2.2-.5-3.8-1.8-4-4.1S381.4,197.7,383.9,197.8Zm2.4,4.2c-.1-3.4-5.4-3.2-5.2.2S386.4,205.3,386.3,202Z" transform="translate(-21.6 -148.8)"/>
  </g>
</svg>
