<?xml version="1.0" encoding="UTF-8" standalone="no"?>
<svg
   id="Layer_1"
   data-name="Layer 1"
   viewBox="0 0 529.1 605.8"
   version="1.1"
   sodipodi:docname="mde_granada_red.svg"
   inkscape:version="1.3 (0e150ed6c4, 2023-07-21)"
   xmlns:inkscape="http://www.inkscape.org/namespaces/inkscape"
   xmlns:sodipodi="http://sodipodi.sourceforge.net/DTD/sodipodi-0.dtd"
   xmlns="http://www.w3.org/2000/svg"
   xmlns:svg="http://www.w3.org/2000/svg"
   xmlns:rdf="http://www.w3.org/1999/02/22-rdf-syntax-ns#"
   xmlns:cc="http://creativecommons.org/ns#"
   xmlns:dc="http://purl.org/dc/elements/1.1/">
  <defs
     id="defs6" />
  <sodipodi:namedview
     id="namedview6"
     pagecolor="#ffffff"
     bordercolor="#000000"
     borderopacity="0.25"
     inkscape:showpageshadow="2"
     inkscape:pageopacity="0.0"
     inkscape:pagecheckerboard="0"
     inkscape:deskcolor="#d1d1d1"
     showgrid="false"
     inkscape:zoom="0.93261527"
     inkscape:cx="251.97958"
     inkscape:cy="313.63415"
     inkscape:window-width="1878"
     inkscape:window-height="1003"
     inkscape:window-x="1940"
     inkscape:window-y="20"
     inkscape:window-maximized="1"
     inkscape:current-layer="Layer_1" />
  <title
     id="title1">svg</title>
  <g
     id="g6"
     style="fill:#e71d36;fill-opacity:1">
    <path
       d="m 21.6,751.2 c 1.7,-0.1 3.4,-2.8 4.4,-3.9 1,-1.1 4.4,-4.3 6.4,-6.5 a 63.6,63.6 0 0 0 11.1,-16 c 2.9,-6 5,-12.3 7.5,-18.5 2.5,-6.2 4.8,-11.4 7.5,-16.9 5.6,-11.3 12.1,-22.3 20.3,-31.9 2,-2.3 4.2,-4.6 6.3,-6.7 a 41,41 0 0 0 5.8,-6.7 c 3.6,-5.3 3.1,-12 5.4,-17.9 a 53.3,53.3 0 0 1 10,-15.6 107.3,107.3 0 0 1 14.2,-13.6 c 2.4,-1.9 4.9,-4.3 7.9,-5.3 3,-1 5.7,-0.3 7.7,-3 0.9,-1.1 1.4,-2.4 2.2,-3.4 a 21.2,21.2 0 0 1 3.3,-3.4 27.5,27.5 0 0 0 2.3,-3.3 7.7,7.7 0 0 1 3.2,-2.7 31.4,31.4 0 0 0 3.7,-1.8 c 1.2,-0.8 2.4,-1.8 3.7,-2.5 a 11.7,11.7 0 0 1 4.4,-1.3 19.8,19.8 0 0 0 4.8,-1.8 c 3.1,-1.5 6.2,-3.1 9.4,-4.4 l 9.8,-3.9 c 3,-1.2 6,-2.6 8.9,-4 a 33.4,33.4 0 0 0 6,-3.7 c 1.7,-1.5 3.4,-3.5 3.4,-5.9 0,-2.4 -1.6,-3.3 -3.2,-4.3 -1.6,-1 -9.7,-2.6 -7.3,-7.1 1,-1.9 2.8,-3.3 4.3,-4.8 1.5,-1.5 5,-4.4 7.6,-6.5 5.3,-4.2 11.2,-7.5 16.7,-11.4 1.8,-1.3 3.6,-2.5 5.2,-3.9 1.6,-1.4 3.4,-3.2 3.5,-5.3 0.1,-2.1 -2.5,-4.7 -3.9,-6.6 A 24,24 0 0 1 220,488 c -0.7,-3 -1.1,-6.2 -2.4,-9 a 12.1,12.1 0 0 0 -5.5,-5.9 c -2.2,-1.4 -4.4,-2.7 -6,-5 -1.6,-2.3 -2.4,-5.3 -3.5,-7.9 -1.1,-2.6 -2.6,-5.7 -3.2,-8.8 -0.6,-3.1 -0.1,-6.3 0.2,-9.5 a 20.7,20.7 0 0 0 -0.9,-9.3 c -1,-2.8 -2.8,-4.8 -4.8,-6.9 a 15.9,15.9 0 0 1 -4,-7.3 c -0.8,-3.1 -1.9,-6.2 -2.5,-9.4 -0.6,-3.2 -0.4,-6.3 1.5,-8.9 1.9,-2.6 4.2,-3.6 4.9,-6.5 0.7,-2.9 0,-5.7 -1.2,-8.2 -1.2,-2.5 -2.9,-4.1 -4.5,-6.1 -3,-3.8 -3.1,-9 -2.5,-13.6 0.6,-4.6 2.3,-9.2 5.5,-12.6 a 10.6,10.6 0 0 1 5.3,-3.3 c 1.9,-0.5 4.4,-0.8 5.6,-2.5 1.2,-1.7 0.6,-5 -0.6,-7 -1.2,-2 -3.4,-4.3 -4.7,-6.7 -2.9,-5.8 -0.1,-11.6 2.2,-17 1.4,-3 2.8,-6 4,-9.1 1.2,-3.1 1.6,-4.8 3.4,-6.6 1.8,-1.8 5,-2.9 7.9,-3.5 2.9,-0.6 5.5,-1.5 7.6,-3.6 4.2,-4.1 5.4,-10.6 7.3,-15.9 1.9,-5.3 5.2,-13.1 7.6,-19.7 1.1,-3 1.8,-6.1 2.9,-9 1.1,-2.9 3.7,-4.6 4,-7.5 0.3,-2.9 -1.4,-4.3 -3,-5.8 a 71.3,71.3 0 0 1 -5.5,-5.5 74.6,74.6 0 0 1 -5.4,-8 c -1.8,-2.9 -3.8,-5.8 -5.6,-8.7 a 78.6,78.6 0 0 1 -5.1,-8.9 16.9,16.9 0 0 1 -1.5,-4.3 16.4,16.4 0 0 0 -1,-3.8 c -1.2,-2.5 -4.4,-3.6 -6.2,-5.7 -1.8,-2.1 -3.4,-5 -5.6,-7.1 -2.2,-2.1 -9,-6.9 -8.4,-12.3 0.6,-5.4 4.5,-7.2 7.9,-9 3.4,-1.8 9.8,-3.3 14.9,-4 6.8,-1 13.8,-1.5 20.7,-2.1 14.4,-1.1 28.8,-2.8 43.2,-3.4 7,-0.3 14,-0.1 20.9,-0.4 6.9,-0.3 13.8,-2 20.8,-2.4 l 10.8,-0.5 10,-0.9 c 3.2,-0.2 6.6,-0.3 9.6,0.8 a 14.7,14.7 0 0 1 6.4,4.9 c 1.7,2 2.9,4.4 4.7,6.2 a 4.4,4.4 0 0 0 3,1.5 6.3,6.3 0 0 0 3.7,-1.4 c 2.2,-1.2 5.3,-1.3 5.5,2 0.2,3.3 -2,4.9 -0.7,7.4 1.3,2.5 3.1,3 4.8,4.1 a 31.5,31.5 0 0 1 6.2,5.9 75.1,75.1 0 0 1 5.8,7.8 69.2,69.2 0 0 1 5.3,8 25.9,25.9 0 0 1 3,9 52.6,52.6 0 0 0 2.3,9.5 92.7,92.7 0 0 0 4.4,8.2 c 1.7,3 3.1,6.1 4.5,9.2 a 348,348 0 0 1 15.9,39.1 377,377 0 0 1 17.3,82.2 c 1.4,14.3 2.1,28.7 2.1,43 0.1,7.1 0,14.2 -0.6,21.3 -0.6,7.1 -1.8,13.7 -3,20.6 -1.2,6.9 -2.3,13.9 -4,20.8 -0.7,3 -0.9,8 -3.8,9.8 -2.9,1.8 -4,0 -5.2,-1.3 -1.2,-1.3 -1.8,-3.7 -2,-5.6 -0.5,-6.3 0.4,-12.7 1.6,-18.9 1.2,-6.2 2.8,-13.5 3.8,-20.3 0.4,-3.5 0.8,-7 1,-10.4 a 37.7,37.7 0 0 0 -0.4,-9.5 c -0.7,-3.2 -2.6,-5.7 -3.8,-8.6 -1.2,-2.9 -1.1,-6.5 -1,-9.7 a 147.2,147.2 0 0 0 -0.1,-21 c -0.7,-7.1 -1.9,-14.2 -3.1,-21.2 -1.2,-7 -2.6,-14 -4.2,-20.9 a 380.1,380.1 0 0 0 -12,-40.7 c -2.3,-6.6 -5.2,-13.1 -7,-19.9 -0.4,-1.5 -0.5,-3.1 -0.9,-4.6 a 19.6,19.6 0 0 0 -2,-4.7 c -1.7,-2.9 -3.5,-5.9 -5.1,-8.9 -1.6,-3 -3.3,-6 -5,-9 a 61.8,61.8 0 0 0 -3.7,-6.1 c -1.5,-2 -3.5,-3.7 -6.1,-3.9 -2.6,-0.2 -5.6,1.3 -8.4,1.4 -5.7,0.1 -8.6,-5.6 -9.7,-10.4 -1.1,-4.8 -2.3,-12.6 -8.1,-15.1 -2.8,-1.1 -5.3,0.3 -8,0 -2.7,-0.3 -2.5,-0.3 -3.8,0.4 a 6.7,6.7 0 0 0 -2.9,3.3 c -1,2.6 0.2,5.6 1.3,8 1.1,2.4 2.3,4.7 3.1,7.3 1.3,4.3 2.7,10.6 -2.3,12.9 a 21.3,21.3 0 0 1 -6.6,1.6 l -7.7,0.7 a 34.9,34.9 0 0 0 -9.1,1.1 c -2.5,0.7 -3.3,2.1 -2.2,4.4 1.1,2.3 2.9,5.4 4.2,8.2 a 89.6,89.6 0 0 0 4.8,9.2 c 3.5,6.2 7.1,12.3 10.3,18.7 1.4,2.8 2.8,5.6 4.3,8.4 a 19.4,19.4 0 0 0 4.4,5.9 c 4.6,3.8 11.5,1.1 16.5,4.4 a 17.6,17.6 0 0 1 5.2,6.3 c 1.5,2.7 2.8,5.4 4.1,8.1 1.3,2.7 2.9,6.2 4.2,9.4 1.3,3.2 2.5,5.5 1.6,8.7 -0.9,3.2 -2.1,5.6 -2,8.7 a 10.2,10.2 0 0 0 3.2,7.2 c 1.9,1.7 4.3,2.7 6.4,4.1 a 12.8,12.8 0 0 1 4.7,6.5 33.9,33.9 0 0 1 1.5,4.5 c 0.5,1.6 0.6,3.3 1,4.9 0.8,3.1 2.7,5.5 0.7,8.6 -2,3.1 -4.1,3.8 -5.9,6 a 7.6,7.6 0 0 0 -1.6,7.2 c 0.8,2.6 2.7,4.8 4.4,7 a 20.1,20.1 0 0 1 4,7.5 23.6,23.6 0 0 1 0,9.9 39.1,39.1 0 0 1 -2,9 c -1.1,2.8 -3.8,4.4 -5.1,7 a 16.5,16.5 0 0 0 -1.6,9 c 0.5,6 3.8,11.5 7.4,16.3 a 145.2,145.2 0 0 0 12.3,14.9 116.1,116.1 0 0 0 15.1,12.8 72.5,72.5 0 0 1 7.5,6.2 42.5,42.5 0 0 0 6.8,5.8 21.2,21.2 0 0 0 8.9,2.5 c 3.1,0.3 6.1,0.5 9.2,1 a 74.1,74.1 0 0 1 19.7,5.6 c 11.7,5.4 23.5,11.3 32.3,20.9 4.3,4.7 6.9,10.1 9.5,15.9 a 144.1,144.1 0 0 1 7.5,19.2 c 2,6.7 4.2,13.5 5.6,20.4 1.4,6.9 2.3,13.8 4.2,20.6 1.9,6.8 4.2,13 6.6,19.4 2.4,6.4 5,12.6 6.4,19.4 0.6,3.2 2,6.2 2.7,9.5 0.4,1.5 0.6,3 0.9,4.5 0.3,1.5 1,3.1 1.4,4.6 0.9,3.2 0.9,6.2 1.1,9.5 a 25.8,25.8 0 0 1 -1.4,9.5 c -2.1,6.3 -4.1,12.7 -7.1,18.7 -3,6 -6.3,12.6 -10,18.6 -1.9,2.9 -3.8,5.8 -5.5,8.9 l -5,9.1 a 80.8,80.8 0 0 0 -7.9,18.7 c -0.3,1.3 -0.5,2.6 -0.8,4 -0.3,1.4 -1.2,1.7 -2.6,1.7 h -4.6 a 23.8,23.8 0 0 1 -3.8,0.1 c -2.6,-0.3 -1.8,-3.4 -1.5,-5.3 a 47.1,47.1 0 0 1 2.6,-9.6 48.3,48.3 0 0 0 2,-9.9 92.5,92.5 0 0 1 1.2,-9.2 29.5,29.5 0 0 0 1.2,-6.6 7.9,7.9 0 0 0 -0.5,-3 8.3,8.3 0 0 0 -0.8,-1.2 c -0.1,-0.1 -0.5,-0.6 -0.7,-0.5 -0.2,0.1 -0.5,0.7 -0.7,0.8 a 37.8,37.8 0 0 0 -4.7,6.6 27.1,27.1 0 0 0 -2.2,8.8 c -0.5,3.6 -1,7.1 -1.4,10.7 a 71.7,71.7 0 0 0 -0.8,10.4 12.6,12.6 0 0 0 0.8,4.3 c 0.3,0.9 1.4,2 1.3,2.9 -0.1,0.9 -3,0.9 -3.8,0.9 l -16.2,-0.4 c -14.5,-0.1 -29.1,-0.2 -43.7,-0.1 -14.6,0.1 -28.4,0.3 -42.6,0.2 a 8.1,8.1 0 0 1 -4.3,-1.1 c -1.3,-0.6 -2.6,-1.4 -4,-1.9 -1.4,-0.5 -6.1,-1.2 -8.5,0.2 -2.4,1.4 -1.7,1.8 -2.8,2.4 -1.1,0.6 -2.6,0.3 -3.8,0.3 h -7.5 a 8.1,8.1 0 0 1 -2.2,0 c -1.3,-0.4 -0.6,-1.7 -0.9,-2.7 -0.3,-1 -1.7,-2.6 -2.6,-3.8 -0.9,-1.2 -2.8,-5.6 -4.5,-8.2 -0.6,-0.8 -2.6,-3.1 -0.4,-3.2 2.2,-0.1 5.3,2 8,2.7 a 16.7,16.7 0 0 0 5,0.3 14.9,14.9 0 0 1 5.1,0.6 c 3,0.9 5.7,2.2 8.6,3.1 2.9,0.9 5.9,1.6 8.9,0.9 3,-0.7 4.3,-1.4 5.1,-3.1 0.8,-1.7 -2.3,-2.1 -3.5,-2.1 a 20.8,20.8 0 0 1 -7,-0.6 c -2.9,-0.9 -5.6,-2.3 -8.4,-3.4 a 58.4,58.4 0 0 0 -9.5,-3 c -3,-0.7 -6.1,-1.5 -9.3,-2.1 a 13.3,13.3 0 0 0 -7.4,0.2 6.2,6.2 0 0 0 -2.9,2.1 c -0.7,0.9 -1.2,2.1 -2.2,2.6 -1,0.5 -4.7,-1.7 -6.8,-2.3 -2.1,-0.6 -3.7,0.6 -5.5,0.5 -1.8,-0.1 -1.4,-0.1 -1.5,-0.8 -0.1,-0.7 0.7,-1.2 1.2,-1.5 0.5,-0.3 3.6,-1 5.4,-1.7 1.8,-0.7 5.2,-2.7 7.9,-3.8 a 21.9,21.9 0 0 1 9.5,-1.6 c 3.3,0.2 6.7,1.5 10,1.1 3.3,-0.4 5.1,-1.8 7.1,-4 2,-2.2 3.9,-3.4 6.9,-2.4 a 29.9,29.9 0 0 0 4.2,1.5 12,12 0 0 0 5,0.1 c 3,-0.5 5.8,-2 8.7,-2.9 2.9,-0.9 5.9,-1.7 8.7,-1 2.8,0.7 1.5,3.5 1.6,5.2 a 11.5,11.5 0 0 1 -0.1,3.7 16.1,16.1 0 0 1 -1.5,3.6 44.2,44.2 0 0 0 -2.4,6 c -1.3,4 -2.1,8.6 -0.2,12.5 1.9,3.9 7.3,6.4 11.8,6.7 2.7,0.2 5.3,-0.4 7.1,-2.5 1.8,-2.1 1.3,-1.8 2.5,-2 a 4,4 0 0 0 2.7,-1.7 24,24 0 0 0 2.1,-3.1 c 0.9,-1.3 1.9,-2.5 2.8,-3.7 0.9,-1.2 4,-5.4 6,-8.2 a 129.6,129.6 0 0 0 10.2,-16.8 c 1.4,-2.9 2.5,-6 3.9,-8.9 a 39,39 0 0 1 5,-8.3 140.6,140.6 0 0 1 12.9,-14.9 c 2.3,-2.2 4.3,-4.5 6.5,-6.8 2.2,-2.3 4.5,-4.5 6.8,-6.7 a 57.3,57.3 0 0 0 6.3,-6.7 c 1.8,-2.4 3.4,-4.9 5,-7.4 3.5,-5.2 6.9,-10.6 11.1,-15.3 2.7,-3.1 7.7,-7.2 6.9,-11.9 -9.3,1.8 -17,9.1 -23.6,15.3 -6.6,6.2 -15,13.5 -22.2,20.5 a 119.1,119.1 0 0 0 -9.2,10.8 117.2,117.2 0 0 1 -9.7,10.3 100.5,100.5 0 0 0 -9.7,11 c -3,4 -5.7,8.2 -8.6,12.2 a 45.5,45.5 0 0 0 -4.4,6.4 42.3,42.3 0 0 0 -3,6.9 c -0.8,2.5 -1.5,5 -2.2,7.5 -0.7,2.5 -1.8,5.6 -2.4,8.4 1.1,-0.2 2.3,0.3 3.4,0.1 -1.6,5.2 -5.5,9.8 -9.9,13 -2.8,-5.5 -0.4,-11.4 1.7,-16.6 a 44.5,44.5 0 0 0 2.8,-8.5 c 0.6,-3.3 0.3,-6.5 1.1,-9.7 0.8,-3.2 3.1,-6.8 4.6,-10.2 1.5,-3.4 2.7,-6.6 4.3,-9.8 3.4,-6.7 8.1,-12.5 12.6,-18.4 4.5,-5.9 8.4,-12.2 13.2,-17.9 4.8,-5.7 10.1,-10.7 14.8,-16.4 2.2,-2.7 4.4,-5.6 6.9,-8.2 2.5,-2.6 5.1,-4.9 7.8,-7.2 5.7,-5 11.5,-9.8 17.6,-14.4 6.1,-4.6 11.3,-7.7 15.9,-12.8 a 69.7,69.7 0 0 0 6.1,-8.2 29.5,29.5 0 0 0 4,-8.4 20.9,20.9 0 0 0 0.8,-4.9 c -7.4,2.3 -13.6,7.3 -19.4,12.3 -5.8,5 -13,11.1 -19.7,16.4 -1.5,1.2 -2.9,2.5 -4.5,3.6 a 44.6,44.6 0 0 1 -5.2,3.1 c -3.6,1.8 -6.8,4.2 -10.3,6.2 a 68.7,68.7 0 0 1 -11.1,5 46.7,46.7 0 0 1 -12,2.9 c -3.9,0.3 -7.9,-0.1 -11.4,2.1 l -4.2,3 a 22.4,22.4 0 0 1 -5,2.2 l -5.7,1.6 c -2,0.6 -3.9,1.5 -5.9,2.3 -3.7,1.6 -7.6,2.5 -11.3,4.3 a 45.3,45.3 0 0 0 -7,4.3 c -1,0.6 -2,1.3 -3,1.8 a 4.2,4.2 0 0 1 -2.6,0.8 c -2.7,-0.6 4.5,-7.1 5.3,-7.8 a 68.1,68.1 0 0 1 9.5,-7.5 84.9,84.9 0 0 1 10.7,-5.8 c 7.5,-3.7 15,-7.5 22.8,-10.6 3.8,-1.5 7.6,-2.9 11.4,-4 3.8,-1.1 7.5,-2.1 11.2,-3.3 a 35.8,35.8 0 0 0 10.2,-5 c 1.5,-1.1 3,-2.3 4.6,-3.3 a 41.2,41.2 0 0 1 5.2,-2.4 18.3,18.3 0 0 0 4.9,-3.3 42.2,42.2 0 0 1 4.6,-3.8 c 3.4,-2.4 6.8,-4.6 10.3,-6.8 3.5,-2.2 6.9,-4.5 10.2,-6.9 3.3,-2.4 6.9,-4.9 10.7,-6.6 3.8,-1.7 6.6,-2.1 6.6,-5.9 0,-3.8 -1.3,-5.7 -4.3,-6.4 -3,-0.7 -5.8,0.6 -8.5,1.9 a 25.8,25.8 0 0 1 -5.3,1.9 58.3,58.3 0 0 1 -5.9,0.3 15.3,15.3 0 0 0 -5.6,0.9 22.2,22.2 0 0 0 -4.9,3 35.6,35.6 0 0 1 -4.8,3.1 c -1.8,0.8 -3.7,1.5 -5.5,2.4 -3.9,1.7 -7.5,4.2 -11.2,6.3 l -11.3,6.2 -11.3,6.4 c -3.2,1.9 -6.5,4.3 -10.2,5.1 -0.7,0.1 -3.7,0.6 -3.8,-0.5 -0.1,-1.1 2.6,-2.2 3.2,-2.6 3.5,-2.4 6.4,-5.3 9.6,-8.1 6.2,-5.5 13.4,-9.4 20.4,-13.7 7,-4.3 14.7,-9.4 22.2,-13.6 7.5,-4.2 13.2,-6.1 18.1,-11.5 1.2,-1.3 3.8,-4 3.2,-6 -0.6,-2 -5.6,-2.3 -7.6,-2.2 a 63.8,63.8 0 0 0 -9.6,1.5 103.8,103.8 0 0 0 -11,2.7 79.3,79.3 0 0 0 -20.8,9.3 107.6,107.6 0 0 0 -9.3,7 35.9,35.9 0 0 1 -5,3.7 c -1.6,1 -3.2,1.8 -4.7,2.8 -3.3,2 -5.4,5.2 -8.3,7.7 -2.9,2.5 -6.7,4.1 -10.2,5.7 a 34.4,34.4 0 0 0 -10,5.8 c -2.8,2.4 -4.2,5.9 -7,8.3 -0.6,0.4 -1.7,1.4 -2.6,1.2 -0.9,-0.2 -0.4,-2 0.1,-2.7 0.5,-0.7 1.6,-2 2.4,-3 0.8,-1 2.1,-3.3 3.3,-5 a 33.2,33.2 0 0 1 8.1,-8.6 116.7,116.7 0 0 0 9.4,-7.7 c 6.4,-5.7 13.3,-10.8 20.2,-15.9 1.7,-1.3 3.3,-2.6 5,-3.7 1.7,-1.1 3.6,-2 5.4,-2.9 3.4,-1.9 6.4,-4.5 9.8,-6.4 1.8,-1 3.8,-1.8 5.7,-2.7 a 21.3,21.3 0 0 1 5,-1.1 c 1.8,-0.2 3.2,-1.3 4.9,-2.1 a 16.9,16.9 0 0 1 5.9,-1.3 c 2.1,0 4,0.5 6.1,0.1 2.1,-0.4 4.2,-0.8 6.3,-1 a 12.4,12.4 0 0 1 4.7,0.2 c 1.1,0.1 2.4,0.2 2.8,-1 0.4,-1.2 -0.1,-2.8 -0.3,-3.9 a 7.3,7.3 0 0 0 -2.2,-3.9 c -1.2,-1.1 -2.4,-2.5 -3.7,-3.6 a 6.9,6.9 0 0 0 -2,-1.3 25.1,25.1 0 0 0 -2.7,-0.4 c -1.9,-0.5 -3.7,-2.2 -5.4,-3.2 -1.7,-1 -3.4,-2.1 -5.1,-3 -3.6,-2 -7.3,-3.8 -11,-5.4 -3.7,-1.6 -7.3,-3.6 -11.2,-3.7 -3.9,-0.1 -6.9,1.8 -10.2,3.4 -3.3,1.6 -7.9,2.4 -11.8,3.5 -3.9,1.1 -8.3,2.5 -12.3,4 A 84.6,84.6 0 0 0 405.9,524 c -3.2,2.6 -6.4,5.1 -9.7,7.5 a 28,28 0 0 0 -7.9,7.8 59.8,59.8 0 0 0 -4.7,9.9 c -1.4,3.5 -2.8,6.9 -4,10.5 -0.6,1.9 -1.1,3.8 -1.9,5.7 a 13,13 0 0 1 -1.7,3.8 c -0.7,0.9 -1.5,0.8 -1.7,-0.3 a 9.2,9.2 0 0 1 0.3,-2.9 c 0.7,-3.8 1.4,-7.6 2.4,-11.4 a 75.6,75.6 0 0 1 4.2,-11.2 c 3,-6.9 5.9,-14.1 10.7,-20 2.5,-3 5.6,-5.4 8.5,-7.9 2.9,-2.5 6,-5.5 9.2,-8 5.8,-4.5 13.2,-5.2 20.2,-6.6 1.2,-0.3 3.1,-0.4 4.1,-1.2 1,-0.8 -0.1,-1.5 -0.9,-1.6 l -3.3,-0.4 a 17.4,17.4 0 0 1 -3.8,-1.4 8.8,8.8 0 0 0 -4.2,-0.8 c -1.6,0.3 -2.4,1.6 -3.1,2.9 -2,3.4 -5.3,5.5 -8.8,7 a 30.7,30.7 0 0 0 -9.6,5.5 67.8,67.8 0 0 0 -6.6,7.6 c -2.4,3.1 -5.2,5.8 -7.8,8.7 a 43,43 0 0 0 -6.4,9.9 c -3.7,7.4 -7.7,14.7 -10.1,22.6 a 66,66 0 0 0 -2.3,12.4 c -0.2,2.1 -0.4,4.2 -0.7,6.3 a 46.8,46.8 0 0 0 -0.8,5.4 c 0,1 0.4,3 1.9,2.7 1.5,-0.3 2,-1.3 2.6,-2.1 a 16.3,16.3 0 0 1 2.3,-2.9 c 0.8,-0.5 1.7,0.4 2.6,0.4 0.9,0 1.6,-1.2 1.9,-2.2 a 52.2,52.2 0 0 1 1.8,-5.6 90.8,90.8 0 0 1 5,-11.5 c 3.8,-7.4 8.9,-13.8 13.9,-20.4 2.4,-3.2 4.5,-6.4 7.4,-9.2 l 3.4,-3.1 c 0.6,-0.6 2.1,-1.4 2.6,-0.3 0.5,1.1 -0.1,2.1 -0.4,2.8 a 52,52 0 0 1 -2.6,5.3 92.7,92.7 0 0 1 -6.2,10 c -2.5,3.3 -5.1,6.5 -7.4,9.9 a 104.4,104.4 0 0 0 -6.6,10.6 58.4,58.4 0 0 0 -5,9.6 c -0.4,1.2 -1.1,3.5 -0.4,4.8 0.7,1.3 2.1,-0.9 2.5,-1.5 0.4,-0.6 1.6,-3.1 2.5,-4.6 l 2.7,-4.6 c 1.8,-3.1 3.6,-6.1 5.5,-9.1 a 91.6,91.6 0 0 1 13.3,-17 c 5.6,-5.4 12.2,-9.1 19.2,-12.2 7,-3.1 15.1,-6.4 23.4,-7.3 3.6,-0.3 7.1,-0.2 10.7,-0.2 2,-0.1 6.2,0.3 5.4,3.4 -0.8,3.1 -3.8,2.6 -5.4,3.2 l -11.8,3.4 A 80.2,80.2 0 0 0 428,546.7 c -6.9,4.5 -12.8,10.4 -18.7,16.1 a 124.5,124.5 0 0 0 -15.8,19 l -6.9,10.1 c -2.2,3.1 -4.3,6.1 -7.6,7.9 -3.3,1.8 -5.6,3 -6.2,6.5 a 32.6,32.6 0 0 0 -0.3,5.4 29.6,29.6 0 0 1 -4.3,13.7 c -0.5,0.8 -2.6,4 -1,4.5 1.6,0.5 2.1,-1.1 2.7,-1.8 0.6,-0.7 1.9,-2.2 2.8,-3.4 2.6,-3.1 4.8,-6.5 7.3,-9.7 4.9,-6.3 10.6,-12.1 17.7,-16.1 l 4.8,-2.6 a 21.2,21.2 0 0 0 3.9,-3.4 1.8,1.8 0 0 1 3.2,0.7 c 0.4,1.6 -0.8,3.2 -1.7,4.4 -2.5,3.2 -5,6.4 -7.8,9.4 a 120.4,120.4 0 0 1 -8.8,8.7 169.7,169.7 0 0 0 -16.9,18 c -5.2,6.6 -9.7,13.7 -14.5,20.6 a 70.2,70.2 0 0 1 -7.2,9.1 12.5,12.5 0 0 0 -3,4.2 c -0.8,1.9 -1.3,3.9 -2,5.9 -2.8,8.2 -6.9,16 -10.5,23.9 a 120.7,120.7 0 0 0 -4.7,11.2 c -0.7,1.8 -1.1,3.7 -1.9,5.5 a 46.6,46.6 0 0 1 -2.5,5 c -3.8,6.7 -8.7,12.8 -11.9,19.8 3.1,-1.1 6.4,0.2 9.5,1 3.1,0.8 6.4,0.3 9.5,1.6 3.1,1.3 6.2,2.7 9.1,4.3 a 34.6,34.6 0 0 1 6.3,3.9 c 1.9,1.6 -0.5,1.8 -2,1.8 H 341 l -21.6,-0.2 -6.1,0.2 c -1.9,0 -3.9,-0.2 -5.8,-0.1 a 8.6,8.6 0 0 0 -3,1.2 c -1.3,0.7 -2.9,0.4 -4.3,0.4 0.4,-3.3 2.7,-6.1 4.8,-8.5 a 65.2,65.2 0 0 0 6.4,-8.5 c 1,-1.8 2,-3.6 3.1,-5.3 a 53.3,53.3 0 0 0 3.1,-5.1 c 0.1,-0.3 0.6,-0.9 0.6,-1.3 0,-0.4 -0.7,-0.5 -1.1,-0.7 l -2.8,-1.1 c -2,-0.8 -3.9,-1.5 -5.8,-2.4 A 53,53 0 0 1 298,714.9 c -1.4,-1 -2.7,-2.1 -4.2,-3 a 14.2,14.2 0 0 0 -5.3,-1.3 c -4.3,-0.4 -8.6,-0.2 -12.8,-0.3 h -13.4 a 45.6,45.6 0 0 0 -6.4,0.1 c -1.9,0.3 -3.8,1 -5.7,1.3 -4.3,0.8 -8.8,0.1 -13.1,0.4 -4.3,0.3 -8.9,1 -13.3,1.5 l -6.5,0.8 a 30.9,30.9 0 0 0 -6,0.8 24.4,24.4 0 0 1 -6,1.1 c -2.1,0 -4.2,-0.2 -6.4,-0.1 a 20.5,20.5 0 0 0 -10.4,3.2 c -3.1,1.8 -6,3.9 -9.1,5.7 -3.1,1.8 -7.4,4.5 -11.2,6.6 a 174.7,174.7 0 0 1 -22.3,10.5 27.8,27.8 0 0 0 -4.9,2.4 29.3,29.3 0 0 0 -4.3,3.6 c -2.9,2.5 -6.1,5 -10,5.9 a 17.7,17.7 0 0 1 -5.6,0.4 c 1.1,0.1 2.5,-0.8 3.4,-1.3 a 49.3,49.3 0 0 0 5.3,-3.6 c 3.5,-2.7 7,-5.6 10.3,-8.6 l 3.2,-2.9 c 2.1,-1.9 4.8,-4 5.3,-7 0.5,-3 -3.7,-4.5 -6.6,-4.5 -2.9,0 -7.2,0.6 -10.9,0.9 -2,0.1 -4.4,-0.6 -5.1,-2.7 -0.7,-2.1 2.7,-5.8 5.4,-6.4 2.7,-0.6 6.7,-0.2 9.9,-1 3.2,-0.8 5.4,-1.3 6.4,-3.2 1,-1.9 -0.5,-3 -1.4,-4 a 4,4 0 0 1 -1.4,-2.7 54.4,54.4 0 0 1 0,-12.1 c 0.5,-3.9 0.8,-7.8 1.6,-11.5 a 22.4,22.4 0 0 1 1.9,-5.5 22.9,22.9 0 0 1 1,-2.3 c 0.5,-0.6 0.9,-0.6 1.5,-0.9 2.4,-1.1 1.9,-4.5 3.4,-6.4 1.5,-1.9 2.1,0.4 2.4,1.8 0.3,1.4 0.3,1.7 0.9,2.2 1.1,-1.1 2.4,-1.4 3.9,-1.9 l 5.3,-1.6 c 1.9,-0.6 3.7,-1.3 5.7,-1.8 a 50.7,50.7 0 0 1 5.4,-0.9 10.3,10.3 0 0 0 4.5,-1.4 c 0.8,-0.7 0.8,-1.8 1.2,-2.8 0.4,-1 0.9,-2.1 -0.6,-3 a 5.7,5.7 0 0 0 -3.6,-0.7 c -2.7,0.3 -5.2,1.5 -7.7,2.5 l -4.2,1.8 c -1.1,0.5 -3.5,1.7 -4.7,1.1 -1.2,-0.6 2.8,-4.5 3.5,-5 2.5,-1.5 4.9,-2.8 6,-5.6 0.5,-1.1 0.5,-2.6 -1.2,-2.5 a 8.2,8.2 0 0 1 -2.2,0.2 6.9,6.9 0 0 0 -2.5,0.3 14.1,14.1 0 0 0 -5,3.3 c -1.3,1.3 -2.1,3 -3.6,4 -0.7,-3.4 1.7,-7 2.5,-10.2 a 6.6,6.6 0 0 0 -0.2,-4.8 c -0.9,-1.7 -2.9,-1.8 -4.6,-1.4 -1.7,0.4 -4.1,1 -4.4,2.7 -0.3,1.7 2.5,3.3 1.1,4.7 -1.4,1.4 -3.7,1 -4.9,0.6 -1.2,-0.4 -2.5,-2.2 -3.9,-3.2 -1.4,-1 -4.2,-1.2 -6.1,-2.5 -1.9,-1.3 -0.7,-4.1 -0.2,-6 -4.7,-0.3 -9.5,5.3 -13.2,0.1 -3.7,-5.2 -6.4,-11.1 -7,-17.3 -0.3,-2.7 -0.3,-5.8 2.4,-7.4 2.7,-1.6 4.4,2.4 5.2,4.6 a 18.8,18.8 0 0 1 1,7.1 c 0,1.6 -0.2,3.6 0.6,5.1 0.8,1.5 2.5,-0.1 3.2,-1.2 a 14.9,14.9 0 0 1 1.4,-2.4 c 0.9,-1.2 2.2,-2.2 3.2,-3.4 a 18.2,18.2 0 0 0 2.7,-3.5 7.5,7.5 0 0 1 2.5,-2.8 3.3,3.3 0 0 1 3.4,0.6 c 0.7,0.7 0.3,1.4 -0.2,2.1 a 10.2,10.2 0 0 0 -1.6,2.9 c -0.4,1.6 -0.8,3.2 -1.1,4.8 -0.3,1.6 -2,4.7 0,5.7 a 8,8 0 0 0 2.6,0.5 43.6,43.6 0 0 0 5.2,0.5 c 3.5,0.2 6.9,1.3 10.4,1.6 3.5,0.3 7.3,-1 11.1,-1.6 a 16.6,16.6 0 0 1 10,1.9 24,24 0 0 1 8.1,6.8 c 1.5,1.8 1.9,4.4 4.9,3.6 a 26.6,26.6 0 0 1 -3.3,-12 c 0,-1.9 0.4,-4.1 -0.6,-5.8 -1,-1.7 -2.2,-2.5 -1.5,-3.9 a 11.8,11.8 0 0 1 4.2,3.8 l 4.1,5.1 a 53,53 0 0 1 3.9,5.4 8.7,8.7 0 0 1 1.9,4.4 c 0.1,0.9 0,2.3 0.7,3 0.7,0.7 2.2,-0.1 2.9,-0.8 2.5,-2.5 4,-6 5.9,-9 1.9,-3 4.8,-7.3 6.9,-11.2 a 58.5,58.5 0 0 1 2.8,-5.6 c 0.9,-1.5 2,-2.8 3,-4.2 a 12.6,12.6 0 0 0 2.3,-4.8 c 0.5,-2.2 0.8,-4.4 1.3,-6.6 1,-4.4 2.3,-9 2.1,-13.5 a 6.5,6.5 0 0 0 -0.8,-3.1 c -0.4,-0.8 -0.8,-1.5 -0.4,-2.3 a 9.1,9.1 0 0 1 1.8,-2.1 7.6,7.6 0 0 0 1.5,-2.8 34.7,34.7 0 0 0 1,-7.2 12.4,12.4 0 0 1 0.9,-3.3 c 0.4,-0.9 1.2,-1.8 0.6,-2.8 -0.6,-1 -0.4,0.9 -0.8,1.2 -0.4,0.3 -1,0.1 -1.4,0.4 -0.4,0.3 -1.2,2.1 -1.5,3 a 15.6,15.6 0 0 1 -3.6,6.4 8.2,8.2 0 0 1 -7.8,2.9 c -3,-0.5 -5.7,-2.2 -8.4,-3.7 -2.7,-1.5 -5.1,-2.3 -7.6,-0.5 -2.5,1.8 -3.5,3.8 -4.8,6 -3.6,5.7 -7.4,11.1 -10.6,17 -1.7,3.3 -3.2,6.6 -4.6,10 a 32.7,32.7 0 0 1 -5.1,9.1 c -3.6,-4.2 -1.7,-9.3 0.2,-13.8 a 167.7,167.7 0 0 1 7.4,-15.4 c 0.8,-1.5 2.2,-3 2.7,-4.6 0.5,-1.6 0.1,-1.1 -0.5,-1.3 -0.6,-0.2 -1.6,0.5 -2.2,1 -4.1,3.4 -8.6,6.2 -12.6,9.6 l -2.3,2 c -0.7,0.5 -1.9,1.7 -2.8,1.7 -0.9,0 -0.7,-0.5 -1.3,-0.4 a 4.7,4.7 0 0 0 -0.9,0.6 l -2.3,1.8 c -0.7,0.5 -6,4.8 -6,2.2 -0.1,-0.9 0.9,-1.9 1.4,-2.6 a 32.8,32.8 0 0 1 3.1,-3.4 l 5.6,-5.3 c 4.4,-4 9.3,-7.1 13.9,-10.7 a 74.5,74.5 0 0 0 6.9,-5.7 c 1.1,-1.1 3,-3.7 4.9,-3.1 a 46.4,46.4 0 0 1 -4.1,8 c 2.4,-0.5 4.4,-3 5.9,-4.8 a 80.6,80.6 0 0 0 5.9,-7.2 33.9,33.9 0 0 0 4.4,-9.2 35.9,35.9 0 0 1 1.7,-3.4 c 0.8,-1.3 0.2,-2.4 -0.1,-3.7 -0.6,0.4 -1.6,1.8 -2.3,1.7 -0.7,-0.1 -0.5,-0.5 -0.9,-0.5 -0.4,0 -0.9,0.7 -1.2,0.9 a 39.8,39.8 0 0 1 -5.1,3.8 34.3,34.3 0 0 0 -4.9,3.6 40.7,40.7 0 0 0 -4,4.3 86.3,86.3 0 0 1 -8.4,8.7 c -3.1,2.6 -6.4,5.1 -9.6,7.7 a 78.3,78.3 0 0 0 -8.9,8.4 c -2.6,2.9 -5,6.1 -8.1,8.5 -0.7,0.5 -3,2.6 -3.9,1.7 -0.9,-0.9 0.5,-2.8 0.8,-3.5 a 46.9,46.9 0 0 1 7.3,-10.3 c 6.2,-7 13.8,-12.6 20.9,-18.7 -3,0.9 -6.1,1.5 -8.8,3 -2.7,1.5 -4.6,3.3 -7.2,4.4 -4.7,1.9 -10.2,2.2 -13.9,6.2 -1.8,1.9 -3.5,4 -4.1,6.5 -0.6,2.5 -3.1,3.3 -5.2,4.4 a 4.9,4.9 0 0 0 -2.4,1.4 c -0.6,0.9 -0.5,1.7 -1.6,2.4 a 20,20 0 0 0 -2.6,1 c -1.1,0.8 -1.4,2.3 -1.6,3.6 -0.2,1.3 0.6,5.3 1.4,7.9 a 26.2,26.2 0 0 1 1.4,7.8 16.1,16.1 0 0 1 -0.6,4.4 c -0.2,1.1 -0.6,3 -1.7,3.7 -1.1,0.7 -3.4,-3 -3.9,-4 a 16.1,16.1 0 0 1 -1.5,-8.9 c 0.1,-2.6 0.3,-5.1 0.4,-7.7 0.1,-2.6 -0.1,-3.5 -2,-2.6 a 7.8,7.8 0 0 0 -2.6,2.1 l -3.3,3.1 c -4,3.7 -9,7.6 -9.2,13.5 0,3.3 0.2,6.8 1.5,9.8 1.3,3 2.8,5.1 1.4,8 -2.4,-2.1 -4.9,-4.1 -7.2,-6.3 -0.6,-0.6 -1.6,-1.8 -2.6,-1.4 -1,0.4 -0.9,1.6 -1.1,2.4 -0.8,2.8 -1.2,5.6 -1.9,8.3 a 20.1,20.1 0 0 1 -3.9,7.7 72.1,72.1 0 0 1 -5.9,6.5 c -1.9,2 -4.2,4 -5.7,6.3 -1.5,2.3 -1.6,4.3 -2.5,6.4 -0.9,2.1 -3,4 -5.2,5.6 -2.2,1.6 -3.9,4.3 -5.4,7 l -4.4,8.4 c -2.9,5.7 -5.7,11.5 -8.1,17.4 -2.4,5.9 -4.5,11.7 -7.1,17.4 -2.6,5.7 -5,11.2 -9.1,15.6 -2.2,2.3 -4.6,4.4 -6.4,7 -1.8,2.6 -2.5,4.5 -4.6,5.2 -2.1,0.7 -8.7,0.8 -8.7,-0.4 z M 382.1,526.7 c -2,0.4 -3.5,2.3 -4.7,3.7 a 28.5,28.5 0 0 1 -4.8,4.4 c -1.8,1.1 -3.6,2 -5.3,3.2 -1.7,1.2 -2.9,3.1 -4.8,4.1 -4.1,2.1 -8.3,4.1 -12.6,5.8 -4.3,1.7 -7.7,2.6 -10.7,5.7 -1.4,1.5 -2.4,3.3 -3.7,4.8 a 49.9,49.9 0 0 1 -4.6,4.6 26.6,26.6 0 0 0 -3.9,4.3 c -1.2,1.8 -1.8,3.9 -3.1,5.5 -1.3,1.6 -2.8,3.1 -4,4.8 a 20.7,20.7 0 0 0 -1.5,2.5 c -0.5,0.9 -1.1,1.1 -2,0.4 -4,-3.2 2.2,-7.5 3.3,-10.4 0.2,-0.8 0,-1.7 -1.1,-1.5 a 12.8,12.8 0 0 0 -2.6,1.7 c -1.7,1.2 -3.6,2.2 -5.4,3.5 a 56.4,56.4 0 0 0 -9.3,8.3 c -2.8,3.1 -5.2,6.5 -8.3,9.4 a 39.2,39.2 0 0 1 -5,3.9 c -1.8,1.2 -3.7,2.2 -5.5,3.5 a 32.8,32.8 0 0 0 -4.9,4.3 10,10 0 0 1 -2.1,2 l -2.9,1.8 c -1.9,1.4 -3.6,2.9 -5.3,4.4 l -5.2,4.3 a 42.7,42.7 0 0 0 -4.8,4.7 c -0.4,0.6 -1.1,1.4 -0.8,2.1 0.3,0.7 1.9,0.7 2.7,0.8 0.8,0.1 4.5,0.6 6.7,0.3 a 11.6,11.6 0 0 0 5.6,-2.1 c 3.9,-2.7 7.9,-5.1 11.7,-7.8 a 26.7,26.7 0 0 0 7.9,-8.5 c 1,-1.8 1.7,-3.7 2.8,-5.5 1.1,-1.8 0.7,-1.7 1.6,-1.7 0.9,0 1.3,1.3 1.5,2.1 0.8,3.8 1.1,7.6 -0.2,11.3 -1.3,3.7 -4.3,6.6 -7.4,9.2 a 97.7,97.7 0 0 1 -11.1,8 c -3.7,2.3 -7.8,5.1 -12.2,5.6 a 13.2,13.2 0 0 1 -6.5,-0.9 c -1.9,-0.7 -3.9,-1.9 -6,-1.4 -2.1,0.5 -3.3,2.2 -4.7,3.6 -1.4,1.4 -3.5,3.1 -5.4,4.6 a 29.1,29.1 0 0 0 -4.3,4.3 c -1.3,1.7 -2.2,3.7 -3.4,5.4 -2.7,3.8 -6.6,6.7 -9.9,9.9 l -10.5,10.4 c -3.4,3.5 -6.8,6.9 -10.3,10.3 a 26.9,26.9 0 0 0 -6.3,10.4 c -0.3,0.6 -2.1,4.8 0,4 2.1,-0.8 2.7,-2.9 3.6,-4.4 2.1,-3.9 5.1,-6.9 8.4,-9.9 6.8,-6.4 13.4,-13.2 19.6,-20.2 2.9,-3.2 5.6,-6.3 9,-8.8 a 34.1,34.1 0 0 1 10.5,-5.1 c 4,-1.2 7.9,-2.2 11.4,-4.5 1.8,-1.1 3.3,-2.6 5,-3.8 a 16.7,16.7 0 0 1 6,-2.5 33.8,33.8 0 0 1 13.8,-0.8 c 4.8,0.7 9.6,2.3 14.3,3.6 l 6.7,1.9 3.6,1.1 a 4,4 0 0 0 2.6,0.4 6.9,6.9 0 0 1 -1.9,-6.3 c 0.3,-2.7 -0.2,-5.4 0,-8.1 a 61.5,61.5 0 0 1 4.4,-15.9 17.7,17.7 0 0 1 3.6,-6.4 22.1,22.1 0 0 0 4.4,-6.1 c 2.1,-4.1 3.5,-8.3 7.8,-10.7 2,-1.1 4.2,-1.5 6.1,-2.8 1.9,-1.3 1.6,-2 2.5,-1.7 0.9,0.3 0.9,1.8 0.9,2.6 a 6.9,6.9 0 0 1 -2.8,5.3 15.4,15.4 0 0 0 -4.7,4.8 51.6,51.6 0 0 0 -3.1,7.3 64.8,64.8 0 0 0 -2.6,7.8 c -0.6,2.4 -0.8,4.9 -2.2,7 -1.4,2.1 -2.7,3.9 -2.9,6.5 a 18.4,18.4 0 0 1 -1.7,6.5 c -2.6,4.9 -7.1,11.9 -0.6,15.8 3.4,2 7.9,3.5 11.8,2.6 3.9,-0.9 5.9,-5 7.5,-8.6 1.6,-3.6 2.9,-8.1 6.9,-10.5 1.8,-1.2 3.8,-1.4 5.7,-2.3 1.9,-0.9 3.4,-3.1 4.6,-5.2 a 32,32 0 0 0 3.8,-14.5 c 0,-5.7 0.3,-11.4 0,-17.1 -0.2,-2.8 -0.6,-5.6 -0.8,-8.5 -0.2,-2.9 -0.1,-5.7 -0.1,-8.6 0,-2.9 0,-2.8 0.1,-4.2 a 10.9,10.9 0 0 1 0.4,-4 c 0.5,-1.1 1.3,-2 1.9,-3.1 0.6,-1.1 1,-2.2 1.4,-3.3 0.4,-1.1 1.5,-5.1 2.4,-7.6 a 46.8,46.8 0 0 1 3.5,-7.1 c 2.6,-4.6 5,-9.3 8.3,-13.5 a 30.1,30.1 0 0 1 2.2,-2.8 11.6,11.6 0 0 0 2,-2.4 z m -52,-19.4 c -4.4,0.6 -7.9,3.1 -11.8,4.9 a 8.9,8.9 0 0 0 -4.2,3.4 30.2,30.2 0 0 0 -2.3,4.8 27.8,27.8 0 0 1 -3,5.3 48.9,48.9 0 0 1 -4.5,4.6 3.6,3.6 0 0 1 -2.2,1.1 7.2,7.2 0 0 0 -2.5,0.3 13.9,13.9 0 0 0 -2.1,2.1 l -2.7,2.1 c -3.1,2.5 -6.5,4.7 -8.6,8.2 a 4.9,4.9 0 0 0 -0.5,4.4 c 0.8,1.8 2.8,2.8 1.3,4.9 -2.6,3.6 -6.2,6.6 -9.4,9.7 a 33.2,33.2 0 0 1 -4.7,3.7 33.1,33.1 0 0 0 -5.2,3.8 53,53 0 0 0 -8.5,9.8 c -2.3,3.3 -4.2,7 -7.1,9.9 -2.9,2.9 -6.6,4.6 -9.4,7.6 a 95.1,95.1 0 0 0 -8.5,10.5 c -1,1.5 -2.3,3 -2.7,4.7 a 7.5,7.5 0 0 1 -0.9,2.5 l -2,2.8 a 90.1,90.1 0 0 1 -8.3,10.2 5.9,5.9 0 0 0 -1.3,1.8 c -0.3,1 -0.1,1.9 -0.6,2.9 a 48.1,48.1 0 0 1 -3.7,5.5 l -4.1,5.7 c -1.2,1.6 -3,3.2 -3.7,5 -0.7,1.8 -0.6,4.4 -1,6.5 a 46.4,46.4 0 0 1 -1.7,6.4 l -2.2,6.3 -0.9,3.3 a 9.6,9.6 0 0 0 -0.7,2.8 c 0.2,2.5 3.1,-0.7 3.6,-1.3 l 4.4,-5.4 c 2.8,-3.6 5.6,-7.1 8.3,-10.8 a 94.8,94.8 0 0 1 8.7,-10.3 c 3,-3.2 5.5,-6.7 8.9,-9.5 3.4,-2.8 7.4,-5.8 10.9,-9 a 19.1,19.1 0 0 0 3.7,-4.3 c 1.1,-1.7 1.8,-3.7 3.2,-5.3 1.4,-1.6 2.8,-3.1 4.1,-4.8 1.3,-1.7 2.3,-3.4 3.6,-4.9 1.3,-1.5 3.1,-2.5 4.5,-4 a 36.1,36.1 0 0 0 3.6,-5.1 62.3,62.3 0 0 0 6.6,-11.5 c 1.8,-3.9 2.8,-8 4.8,-11.7 a 51,51 0 0 1 7.1,-10.1 c 2.8,-3.3 4.9,-7 7.4,-10.5 a 29.6,29.6 0 0 1 8.7,-8.2 c 3.7,-2.1 8,-2.6 12.2,-3.5 4.2,-0.9 9.1,-2.1 13.8,-3 4.7,-0.9 8,-0.6 11.1,-3.3 a 40.1,40.1 0 0 0 3.7,-4.7 c 1.3,-1.8 2.7,-3.5 4.2,-5.2 L 352,523 c 1.2,-1.5 3.1,-3.1 2.5,-5.2 -0.6,-2.1 -2.2,-3.4 -3.4,-4.7 a 23.8,23.8 0 0 0 -4.3,-3.4 c -2.6,-1.5 -6.3,-3.3 -9.1,-1.3 -2.8,2 -2.6,2.9 -3.6,4.5 l -3.5,5.7 -1.6,2.7 c -0.4,0.6 -0.8,1.8 -1.7,1.7 -0.9,-0.1 -0.6,-0.4 -0.4,-0.9 0.2,-0.5 0.3,-1 0.4,-1.5 a 14.5,14.5 0 0 0 0.1,-3.6 8.6,8.6 0 0 0 0,-1.6 c -0.1,-0.5 -0.4,-0.7 -0.5,-1.1 a 2.4,2.4 0 0 1 0.6,-2 c 1,-1.3 2.9,-3.2 2.6,-5 z m 115.6,-116 c -0.2,-8.9 -0.1,-17.7 -0.7,-26.5 -0.6,-8.8 -1.9,-17.7 -3.1,-26.4 -1.2,-8.7 -2.8,-17.5 -4.7,-26.1 -0.9,-4.2 -1.9,-8.5 -2.8,-12.7 A 67.2,67.2 0 0 0 431,287.4 c -1.4,-4 -2.2,-8.1 -3.4,-12.1 a 132.6,132.6 0 0 0 -4.5,-12.5 c -1.5,-4.2 -3.1,-8.4 -4.7,-12.5 -1.6,-4.1 -3.5,-7.8 -5.4,-11.6 -1.9,-3.8 -3.5,-7.8 -5.5,-11.6 -2,-3.8 -4,-7.6 -6.1,-11.3 -0.4,-0.8 -0.6,-0.8 -1.5,-0.8 a 5.9,5.9 0 0 0 -2.3,0.4 c -1.6,0.6 -2.5,2.2 -3.7,3.3 -1.2,1.1 -1.5,1 -1.7,1.7 -0.2,0.7 0.5,1.7 0.6,2.5 0.1,0.8 0.4,3.6 1.5,5.2 a 149.7,149.7 0 0 1 12.6,21 196.7,196.7 0 0 1 9.8,22.7 c 1.5,4.1 2.6,8.2 4.3,12.1 a 71.2,71.2 0 0 1 3.9,12.1 c 2.2,8.4 5,16.7 7.1,25.2 0.5,2.2 1,4.3 1.3,6.5 0.3,2.2 0.3,4.1 0.6,6.2 a 57.6,57.6 0 0 0 1.8,5.9 41.6,41.6 0 0 1 1.3,5.9 c 0.5,4.4 0.6,8.8 0.9,13.1 0.3,4.3 0.8,9 1,13.4 0.2,4.4 0.5,9 0.4,13.5 a 98,98 0 0 0 0.5,13.3 73.1,73.1 0 0 1 0.8,13.2 94,94 0 0 1 -1.4,13 c -0.7,4.3 -1.6,8.6 -2.3,12.8 -0.4,2.2 -0.8,4.4 -1.3,6.5 a 63.8,63.8 0 0 0 -1.2,6.3 46.8,46.8 0 0 0 -0.1,6.5 c 0,1 0.1,2 0.1,2.9 a 18.2,18.2 0 0 0 0.1,3.3 c 0.1,0.5 0.7,1.6 1.4,1.5 0.7,-0.1 1.1,-1.8 1.3,-2.4 0.6,-2.1 1.1,-4.2 1.6,-6.3 2.1,-8.6 3.4,-17.3 4.8,-26.1 a 160.9,160.9 0 0 0 2,-26 c 0.1,-4.3 0.1,-8.6 0.1,-12.9 z M 236.6,566.4 c 1.8,-0.3 3.2,-0.8 5.1,-0.5 a 43.1,43.1 0 0 1 4.9,1.1 c 3.2,0.9 5.9,2.7 8.9,4 3,1.3 4.1,0.8 5.6,-1.2 1.5,-2 2.6,-5.8 3.7,-8.8 a 25.3,25.3 0 0 1 4.6,-7.5 88.3,88.3 0 0 0 6.5,-7.1 53.6,53.6 0 0 1 12.6,-13 c 2.8,-2 5.8,-3.5 8.3,-5.8 2.5,-2.3 4.6,-5.1 7.1,-7.5 a 3.6,3.6 0 0 0 -2.3,-0.1 l -2.6,0.3 a 25.3,25.3 0 0 0 -5.3,1.2 37.9,37.9 0 0 1 -10.7,1.6 67.9,67.9 0 0 1 -11,-0.4 c -3.6,-0.5 -7.1,-1.5 -10.7,-2.1 a 95.8,95.8 0 0 1 -10.7,-1.9 c -1.5,-0.4 -3.1,-1.3 -4.7,-1 a 2.8,2.8 0 0 0 -1.7,0.9 c -0.6,0.7 -0.4,1.6 -0.4,2.4 0,3.6 -0.9,7.2 -0.8,10.8 a 40.3,40.3 0 0 1 -1.4,10.9 c -1,4 -2.1,8 -3.1,12 -0.4,1.8 -1,3.7 -1.3,5.5 a 26.1,26.1 0 0 0 -0.6,6.2 z m 2.7,-351 a 48.6,48.6 0 0 0 -5.4,0 c -1,0.2 -1.2,0.6 -0.8,1.5 1.2,3.4 3.8,6.5 6,9.3 2.2,2.8 4.5,6.1 7.7,7.8 3.2,1.7 7.1,0.6 10.7,-0.1 l 12.3,-2.2 c 3.9,-0.8 7.7,-1.9 11.7,-2.6 4,-0.7 7.9,-1.1 11.9,-1.9 l 6.1,-1.1 c 1.8,-0.4 3.8,-0.3 5.5,-0.8 a 79.6,79.6 0 0 1 11.7,-2.8 c 3.8,-0.5 8,-0.5 11.6,-1.7 3.6,-1.2 3.3,-3.1 3.2,-5.8 -0.1,-2.7 -2.1,-7.5 -3.1,-11.3 -0.3,-1 -0.5,-1.9 -0.7,-2.9 a 3.5,3.5 0 0 0 -1,-2.1 c -1.7,-1.2 -2.2,2.2 -2.5,3.2 -0.8,3 -2.3,4.9 -5.4,5.5 a 38.1,38.1 0 0 1 -5.9,0.5 l -6.4,0.2 -12.5,0.3 c -8.4,0.4 -16.8,1 -25.2,2 a 92.2,92.2 0 0 0 -11.7,2 68.3,68.3 0 0 1 -11.7,2.7 42.2,42.2 0 0 1 -6.1,0.3 z M 431.8,746 c -0.8,1 -1.9,2.5 0,2.9 1.9,0.4 3.6,-0.3 5.1,-0.7 3.7,-1 6.5,-3.2 9.4,-5.7 2.9,-2.5 4.9,-5 8.1,-6.4 a 18.8,18.8 0 0 1 4.5,-1.2 6.3,6.3 0 0 0 3.6,-2.6 l 3.5,-4.5 a 8.9,8.9 0 0 1 3.7,-2.6 16.4,16.4 0 0 0 6.8,-6.5 c 2,-3.4 4.4,-6.4 6.4,-9.8 2,-3.4 3.2,-6.8 5.3,-10 2.1,-3.2 3.7,-5.9 5.7,-8.8 a 110.2,110.2 0 0 0 6.1,-10.5 c 0.7,-1.3 2,-3.2 1.3,-4.6 -0.7,-1.4 -2.8,-0.9 -4.2,-0.2 a 75.3,75.3 0 0 0 -9.2,6.8 c -2.9,2.2 -4.9,5.2 -7.7,7.5 a 73.1,73.1 0 0 1 -9.3,6.4 c -3.5,2.1 -7,4 -10.4,6.1 -3.4,2.1 -4.9,4.6 -6.4,7.8 -0.7,1.6 -1,3.3 -2,4.7 -1,1.4 -2.5,2.1 -3.8,3.2 -1.3,1.1 -4.5,5.9 -6.2,9 -1.7,3.1 -3.1,6.6 -5.1,9.7 a 41.5,41.5 0 0 1 -6.4,8.1 15.4,15.4 0 0 1 -1.9,1.7 c -0.4,0.4 -1.1,0.8 -1.1,1.4 a 24.4,24.4 0 0 0 4.2,-1.2 z M 343.2,191.4 a 12.4,12.4 0 0 0 4.7,-4.1 c 1.1,-1.9 1.1,-4.2 1.9,-6.2 a 18.2,18.2 0 0 1 3.6,-5.1 c 1.7,-1.7 3.7,-2.9 5.4,-4.6 a 31.1,31.1 0 0 0 2.3,-2.8 c 0.4,-0.6 1.2,-1.5 0.9,-2.2 -0.3,-0.7 -1.4,-0.9 -1.9,-1.4 -0.5,-0.5 -0.6,-1.6 -0.5,-2.7 0.1,-1.1 -0.9,-2.4 -1.5,-3.2 -6,-8.3 -18.7,-5.2 -27.1,-4.1 3.7,2 7.9,0.1 11.7,2.3 3.8,2.2 5.6,5.8 6.4,9.6 0.2,1.2 0.4,2.4 0.5,3.6 0.1,1.2 0.5,2.5 0,3.3 -0.5,0.8 -1.3,0.2 -1.9,0 a 20,20 0 0 0 -4.2,-1.1 l -8.3,-0.7 a 75,75 0 0 1 -8.2,-0.4 c -2.6,-0.4 -5.2,-1 -7.9,-1.2 a 37,37 0 0 0 -8.1,0.7 25,25 0 0 0 -3.8,0.6 c -1.2,0.2 -1.6,0.8 -2.5,1.6 a 4.4,4.4 0 0 1 -2.9,1.1 l -4.2,0.7 c -2.6,0.3 -5.3,0.9 -7.9,0.4 a 35.2,35.2 0 0 1 -7.1,-2.5 24.2,24.2 0 0 0 -3.6,-1 h -1.4 l -0.9,0.3 c -0.5,0.2 -0.4,0.2 -0.3,0.6 0.1,0.4 0.5,1.3 0.6,1.8 a 6.8,6.8 0 0 1 0.2,1.4 5.5,5.5 0 0 1 -0.9,3 c -1.1,1.6 -3.9,2.5 -5.8,2.9 a 4.5,4.5 0 0 1 -4.4,-1.5 c -1.1,-1.6 -0.6,-3.6 -2.2,-4.9 -1.6,-1.3 -4.9,-1.5 -7.3,-1.5 -5.6,0.1 -11.2,0.6 -16.8,1.1 l -3.9,0.4 a 15,15 0 0 0 -3.7,0.4 c -1.9,0.6 0.1,3.5 0.6,4.5 0.5,1 2.2,4.3 4,5.7 1.8,1.4 3.5,1.4 5.6,1.3 a 25.2,25.2 0 0 1 7.7,1.1 35.8,35.8 0 0 0 8,1 c 2.7,0 5.2,-0.9 7.9,-1.4 2.7,-0.5 5.4,-0.6 8.2,-1 5.3,-0.7 9.9,-3.4 14.9,-5 a 29.2,29.2 0 0 1 7.7,-1.5 c 1.2,0 2.5,0.2 3.7,0.1 1.2,-0.1 2.9,-0.5 4.4,-0.5 a 15.8,15.8 0 0 1 3.8,0.4 c 1,0.2 2.7,0.8 3.7,0.1 1,-0.7 -0.3,-1.5 -0.6,-2.1 -0.3,-0.6 0,-1.9 1.1,-2 5.3,-0.5 9.2,3.4 13.6,5.5 a 12.7,12.7 0 0 0 6.9,1.3 7.2,7.2 0 0 1 5.9,2.3 12.9,12.9 0 0 1 2.2,3 12.4,12.4 0 0 0 1.7,2.6 z m -75,500.1 c 0,-3.4 -0.5,-7.6 -3.2,-10.2 -2.7,-2.6 -7.9,-1.8 -11.1,0.6 a 19.5,19.5 0 0 0 -6.8,8.5 c -0.9,2.2 -1.9,6 -4.4,6.9 a 3.1,3.1 0 0 1 -3.7,-1.8 c -0.3,-0.9 -0.1,-1.9 -0.6,-2.8 a 2.6,2.6 0 0 0 -2.3,-1.7 5.2,5.2 0 0 0 -2.1,0.7 2.5,2.5 0 0 1 -1.2,0.2 c -0.5,-0.1 -0.5,-0.1 -0.6,-0.6 -0.1,-0.5 1.1,-2.9 1.6,-3.9 0.5,-1 1.6,-2.7 1,-4.1 a 3.6,3.6 0 0 0 -3.8,-2.1 c -3.3,0.3 -6.9,2.1 -9.6,4 -8,5.4 -10.3,16 -13.4,24.6 8.7,0 17.4,-1.6 26.1,-2.2 8.7,-0.6 17.8,0.4 26.6,-0.4 5,-0.4 9.9,-1.5 14.9,-1.8 -0.4,-1.6 0.9,-2.8 0.1,-4.4 -0.8,-1.6 -1.5,-2.7 -2.2,-4 -0.7,-1.3 -2.2,-7 -5.3,-5.5 z M 253.1,291.1 a 21.2,21.2 0 0 0 9,1.6 63.7,63.7 0 0 0 9.8,-0.5 78.9,78.9 0 0 0 9.5,-1.7 28.2,28.2 0 0 1 9.6,-0.7 91.8,91.8 0 0 0 19.6,-0.4 22,22 0 0 1 4.4,-0.2 c 1.7,0.2 3.2,0.8 4.8,0.9 a 18.1,18.1 0 0 0 4.6,-0.3 36.2,36.2 0 0 1 4.7,-0.2 4.7,4.7 0 0 0 4.7,-3.8 c 0.6,-2.7 -1.1,-4.9 -3.3,-6.3 -2.2,-1.4 -5.3,-2.1 -8,-2.6 -2.7,-0.5 -5.8,0.7 -8.8,1.4 -1.3,0.2 -2.7,0.8 -4.1,1 a 40.3,40.3 0 0 1 -4.9,0.3 83.4,83.4 0 0 1 -10,0 76.1,76.1 0 0 1 -9.6,-0.6 c -1,-0.2 -2.9,-0.2 -2.9,-1.3 0,-1.1 0.9,-1.4 2.1,-1.6 a 12.4,12.4 0 0 1 4.3,0 c 1.5,0.2 3,0.9 4.5,0.8 1.5,-0.1 2.7,-0.9 4.1,-1.2 l 4.6,-1 c 3.2,-0.8 6.5,-0.4 9.7,-0.3 3.2,0.1 6.5,0 9.8,0.2 1.4,0 2.9,0.3 4.3,0.2 a 2,2 0 0 0 1.9,-1.4 c 0.4,-1.9 -1.6,-4.5 -2.9,-5.7 -1.3,-1.2 -4.4,-2.6 -6.9,-3.4 -2.5,-0.8 -2.7,-1 -4.2,-1.3 a 19.3,19.3 0 0 0 -4.8,-0.2 80.6,80.6 0 0 1 -9.8,-0.2 c -1.6,-0.2 -2.1,-0.3 -2.9,1.2 a 28.3,28.3 0 0 0 -1.4,4.1 c -0.8,2.5 -3.8,2.9 -6.1,3.3 a 52.9,52.9 0 0 0 -9,1.6 19.9,19.9 0 0 1 -4,1.1 c -1.7,0.2 -3.3,-0.1 -4.9,0 a 66.4,66.4 0 0 0 -10,0.9 c -1.7,0.3 -6.9,0.3 -6.7,3.1 0.2,2.8 5,1.9 6.7,1.9 1.7,0 6.4,0 9.6,0.4 3.2,0.4 6.4,1.1 9.6,1.5 3.2,0.4 6.4,0.8 9.7,1 h 4.9 c 0.3,0 3.4,0 2,1.1 -1.4,1.1 -1.1,0.2 -1.4,0.3 l -2.5,0.3 -5,0.3 c -3.3,0.2 -6.5,0 -9.7,0 -6.2,-0.1 -12.7,-0.3 -18.5,1.8 a 12.2,12.2 0 0 0 -6.2,4.6 z m 110.1,99 a 3.5,3.5 0 0 0 -2.6,-1.6 l -4.6,-0.8 a 50.7,50.7 0 0 0 -8.7,-0.4 c -3.1,0.1 -6.1,0.6 -9.1,0.4 a 88.3,88.3 0 0 0 -8.9,-0.4 c -3,0.1 -5.9,0.3 -8.9,0.6 -3,0.3 -4.8,0.4 -7.1,-0.5 -2.3,-0.9 -3.7,-2.9 -6,-3.7 -2.3,-0.8 -4.5,-1.1 -6.2,0 -1.7,1.1 -1.7,4 -1.6,6 0.1,2 0.5,5.7 0.7,8.6 0.2,2.9 0.5,5.8 0.8,8.8 0,0.9 0.1,2 1.2,2.3 1.1,0.3 2,-1.1 2.5,-2.1 0.5,-1 1.3,-5.1 1.7,-7.7 a 26.6,26.6 0 0 1 0.7,-3.9 c 0.4,-1.1 1.4,-1.5 2,-0.4 0.6,1.1 1.2,5.7 1.2,8.1 a 66.4,66.4 0 0 0 0.5,8.9 c 0.4,1.9 1.1,5.4 3.8,3.8 2.7,-1.6 3.5,-4.6 3.6,-7.1 0.1,-2.5 -0.8,-6.3 -1.3,-9.4 -0.5,-3.1 -1.3,-6.3 -2.2,-9.5 0.6,-0.1 1,0.4 1.5,0.7 a 5.7,5.7 0 0 0 2.1,1.3 c 1.6,0.7 3.3,0.6 5.1,0.8 1.8,0.2 2.8,0.1 3.5,0.9 0.7,0.8 0.3,2 0.1,2.8 a 41.1,41.1 0 0 0 -1.5,11 c 0,2.9 0.4,6.1 2.8,8.2 2.4,2.1 6,2.6 9,2.8 a 22.3,22.3 0 0 0 10.1,-2 c 2.7,-1.3 5.1,-3.1 6.1,-6.1 1,-3 0.4,-7.2 0.1,-10.5 -0.3,-3.3 -0.2,-4.7 1.5,-6.2 1.7,-1.5 5.8,-1.7 8.1,-3.7 z m -122.6,6.1 a 6,6 0 0 1 5.1,4.4 c 0.5,1.6 0.6,3.2 1,4.8 a 18.2,18.2 0 0 0 1.6,5 9.3,9.3 0 0 0 6,5.1 c 1.8,0.5 3.5,0.7 5.2,1.3 a 41.4,41.4 0 0 1 4.9,1.9 c 3.3,1.5 6.5,2.3 10.1,1.5 a 54,54 0 0 1 5.8,-0.8 36.2,36.2 0 0 0 4.7,0.2 c 2.3,-0.2 3.7,-1.8 4.3,-4 a 13.5,13.5 0 0 0 0.4,-5.3 46.4,46.4 0 0 0 -1.6,-5.3 c -0.9,-4 0.5,-7.9 2.4,-11.4 1.1,-1.9 2.2,-3.7 3.2,-5.7 a 12.1,12.1 0 0 0 1.9,-5.2 17.1,17.1 0 0 0 -5,1 15.7,15.7 0 0 0 -4.2,2.9 13.3,13.3 0 0 1 -9.5,3.4 h -13 c -4.3,0.1 -8.8,0 -13.1,0.5 -4.3,0.5 -7.9,2.1 -10.2,5.7 z m 45.7,-46.7 c 2.2,1.5 2.1,5.1 3,7.4 0.3,0.7 0.7,1.8 1.7,1.7 1,-0.1 1,-1.8 1.1,-2.6 0.5,-3.2 1.1,-6.4 1.8,-9.5 0.7,-3.1 0.9,-6.3 -0.9,-8.6 -1.8,-2.3 -4.3,-1.7 -6.5,-1.1 -2.2,0.6 -5.9,2.6 -8.7,3.9 a 11.7,11.7 0 0 1 -4,1.3 21,21 0 0 1 -5,-0.2 83.4,83.4 0 0 0 -10,-0.1 c -2.5,0.2 -5.6,0 -8,0.9 -0.8,0.3 -1.3,1.2 -0.5,1.9 0.8,0.7 1.9,0.4 2.5,1.3 0.6,0.9 -0.8,1.9 -1.4,2.5 l -3.5,3.2 a 10.3,10.3 0 0 0 -3.5,5.9 c -0.8,4.1 0.3,9.4 4,11.8 a 11.2,11.2 0 0 0 6.9,1.5 77.2,77.2 0 0 1 9.6,-0.5 37.7,37.7 0 0 0 10.6,-1.5 46,46 0 0 1 5,-1.3 c 1.2,-0.2 2.6,0 3.7,-0.5 a 2.2,2.2 0 0 0 1.2,-1.9 22.1,22.1 0 0 0 0.5,-5.1 c 0.1,-3.5 -0.5,-6.9 0.4,-10.4 z m -11.9,336.6 a 54.4,54.4 0 0 0 4.5,6.2 c 1.2,1.6 2.8,3.2 3.6,5.1 a 6.9,6.9 0 0 0 0.5,1.3 4.7,4.7 0 0 0 2.4,1.3 25.5,25.5 0 0 0 5.5,0.4 l 5.9,-0.6 a 13.5,13.5 0 0 1 6,0 c 4.7,1.2 9,3.7 13.3,5.9 2,1 4.3,2.2 5.4,4.3 1.1,2.1 0.9,3.9 1.9,5.7 1.5,-2.2 3.2,-4.1 1.7,-6.7 a 25.1,25.1 0 0 1 -2.6,-4.5 c -0.6,-1.6 -1,-3.3 -1.5,-5 -0.5,-1.7 -1,-5.9 -2.5,-8.4 a 48.7,48.7 0 0 1 -4.5,-8.8 c -0.7,-2.2 -0.8,-6 -3,-7.4 -2.2,-1.4 -4.5,0 -6.5,0 a 7.6,7.6 0 0 1 -4.9,-2.2 c -2.5,-2.4 -5.1,-7.1 -9.3,-6.4 -2.3,0.4 -4,2.7 -5.7,4.1 -1.7,1.4 -2.6,2.3 -2.9,4.2 -0.3,1.9 0.5,5.7 -0.6,8.2 a 5.1,5.1 0 0 1 -3.2,2.7 c -1.2,0.2 -2.4,-0.2 -3.5,0.6 z M 227.3,518.6 c -2.5,-0.1 -4.7,1.1 -6.9,2.1 l -7.2,3.4 a 40.4,40.4 0 0 0 -11.3,7.7 c -1,0.9 -3.5,2.7 -2.4,4.2 1.1,1.5 3.5,2.5 4.9,4 a 14.8,14.8 0 0 1 2.9,5.2 12.5,12.5 0 0 0 1,2.7 32.1,32.1 0 0 0 2.1,3 c 1.3,2 2.2,4.3 3.7,6.1 a 63.8,63.8 0 0 0 5.2,5.2 5.3,5.3 0 0 0 2.5,1.7 2.8,2.8 0 0 0 2.5,-1.2 c 1.5,-1.4 2.8,-3.1 4.4,-4.5 a 8.7,8.7 0 0 1 2.4,-1.5 c 0.9,-0.5 1,-1.7 1.3,-2.6 0.3,-0.9 1.6,-4.8 2.1,-7.3 a 17.4,17.4 0 0 1 2.3,-6.1 7.7,7.7 0 0 0 0.7,-6.3 c -0.8,-2.6 -0.6,-5.4 -0.6,-8.1 a 28.8,28.8 0 0 1 0.2,-4.1 10.1,10.1 0 0 0 0.6,-3.8 1.6,1.6 0 0 0 -0.6,-1.3 c -0.4,-0.2 -0.7,0.2 -1,0.5 a 5.2,5.2 0 0 1 -1.1,1 c -0.4,0.3 -0.7,0.9 -1.1,1.2 -0.4,0.3 -1.9,-0.4 -2.7,-0.6 a 13.2,13.2 0 0 0 -3.9,-0.6 z M 353.2,436 a 7.3,7.3 0 0 1 -3.3,0.8 l -4.7,0.3 h -9 c -6,-0.1 -12,-0.4 -18,-0.7 a 10.2,10.2 0 0 1 -3.5,-0.5 33,33 0 0 1 -3.2,-1.8 12.6,12.6 0 0 0 -6.9,-0.8 c -2.4,0.5 -3,3 -3.3,5.2 -0.1,0.6 -0.5,2.6 0,3.1 0.5,0.5 2,-0.7 2.7,-0.8 0.7,-0.1 4.8,0.1 5.9,1.7 a 4.2,4.2 0 0 1 0.5,2.2 24.2,24.2 0 0 1 -0.3,4.7 25.1,25.1 0 0 0 0.3,8.2 c 0.5,2.3 1.3,5.3 3.1,6.9 1.8,1.6 1.9,0.4 1.9,-0.8 a 28.1,28.1 0 0 1 0.1,-4.1 c 0.4,-2.9 1.2,-5.6 1.3,-8.5 0.1,-1.3 0.1,-2.7 0.2,-4.1 a 9.1,9.1 0 0 1 0.5,-3.3 2.4,2.4 0 0 1 1.8,-0.9 l 4.4,-0.3 a 18.8,18.8 0 0 1 4.1,0.2 c 0.7,0.2 2,0.3 2.5,1 a 3.4,3.4 0 0 1 0.1,2 2.9,2.9 0 0 0 -0.1,1.3 6.6,6.6 0 0 1 0.6,2 c 0,1.2 -0.7,2.4 -0.9,3.7 a 13.3,13.3 0 0 0 -0.4,4 c 0,2 0.3,3.3 2.6,3.2 a 8.8,8.8 0 0 1 2.8,0 c 1,0.4 1.3,1.3 1.8,2.2 1.5,2.5 4,-0.4 5.2,-1.7 1.2,-1.3 3.2,-3.3 3.1,-5.5 a 6.9,6.9 0 0 0 -0.8,-2.8 c -0.3,-0.8 -1.3,-2.1 -1.2,-3 0.1,-0.9 1.4,-1.1 1.6,-2 0.2,-0.9 -1.3,-1.8 -1.6,-2.8 -0.3,-1 0.2,-1.2 1,-1.4 a 31.8,31.8 0 0 1 4.3,-0.6 61.3,61.3 0 0 1 8.5,-0.9 1.7,1.7 0 0 1 1.7,0.4 c 0.6,0.6 0.7,2.1 0.8,3 a 17.1,17.1 0 0 1 -0.3,7.8 c -0.8,2.7 -2.4,4.8 -2.1,7.8 a 21.2,21.2 0 0 0 1,3.6 c 0,0 0.3,0.8 0.4,0.8 0.1,0 0.8,-0.3 0.9,-0.4 a 7.8,7.8 0 0 0 1.8,-1.1 27.8,27.8 0 0 0 2.7,-2.1 5.4,5.4 0 0 0 1.2,-0.9 c 0.5,-0.4 0.4,-0.9 0.4,-1.5 0.1,-2.9 0.1,-5.8 0,-8.8 -0.1,-3 0.2,-5.3 -0.4,-7.8 a 13.1,13.1 0 0 0 -3.8,-5.8 23.7,23.7 0 0 0 -5.9,-4.5 42.3,42.3 0 0 0 -15.2,-4.4 35.7,35.7 0 0 0 -8,0 c -2.7,0.3 -5.5,0.4 -8,1.3 a 36,36 0 0 0 -6.8,3.4 c 1.7,2.4 5.3,1.7 7.8,1.7 2.5,0 6.8,-0.1 10.2,0 l 10.1,0.3 4.8,0.4 c 1.1,0.3 2.3,0.4 3,1.4 z m 7.1,-93.8 a 65.3,65.3 0 0 0 -10.9,-1.8 109.2,109.2 0 0 0 -11.5,-0.9 112.4,112.4 0 0 0 -11.6,0.4 l -5.6,0.4 a 33.8,33.8 0 0 1 -5.5,0.3 c -3.2,-0.2 -5,-2.2 -6.9,-4.6 -0.7,-0.8 -1.9,-2.7 -3.1,-2.5 -1.2,0.2 -2.1,2.5 -2.3,3.7 a 7.6,7.6 0 0 0 0.6,4.2 c 0.6,1.4 1.7,2.4 2.5,3.7 a 9.9,9.9 0 0 1 1.3,4.1 29.1,29.1 0 0 1 -0.3,5.1 23.7,23.7 0 0 0 0.4,5.3 14,14 0 0 0 1.5,4.9 c 1.2,1.9 5.9,3.3 6.7,0.2 0.4,-1.4 -0.9,-3 -1.4,-4.2 a 19.6,19.6 0 0 1 -1.3,-5.3 49,49 0 0 1 -0.4,-5.4 c -0.1,-1.7 0,-2.7 1.7,-3.4 a 6.3,6.3 0 0 1 6.8,1.4 c 2.3,2.3 1.9,5.7 2.1,8.6 0.2,2.9 1.7,6.6 4.2,8.4 a 8.1,8.1 0 0 0 4.3,1.4 c 2,0.2 4,0.4 6,0.4 a 45.6,45.6 0 0 0 6.4,-0.2 c 1.8,-0.1 4,-0.1 5.6,-0.9 a 4.3,4.3 0 0 0 2.3,-3.2 31.5,31.5 0 0 0 0.6,-6.1 23.6,23.6 0 0 0 -1.1,-6 c -0.4,-1.2 -0.7,-2.2 0.5,-3 2.9,-1.7 7,-1.4 8.4,-5 z m -5.7,138.2 c -0.3,-0.9 -0.5,-2 -1.6,-1.3 a 24.3,24.3 0 0 0 -3.4,3 c -2.3,2.3 -3.4,5.1 -4.9,8 a 69.8,69.8 0 0 1 -5.5,8.6 c -0.5,0.8 -2.2,2.6 -1.2,3.5 1,0.9 1.5,0.7 2.2,0.9 a 25.1,25.1 0 0 0 5.5,0.7 l 5,-0.3 c 0.8,-0.1 1.7,-0.5 2.2,0.4 0.5,0.9 0.2,2 1.2,2.4 3.2,1.2 5.7,-3 6.9,-5.1 a 32.7,32.7 0 0 1 3,-3.5 41.2,41.2 0 0 0 3.3,-4 c 2.1,-2.8 4.1,-5.7 6.1,-8.5 a 64.3,64.3 0 0 1 6.2,-7.6 c 2.1,-2.1 4.1,-4.1 5.2,-7 a 12.3,12.3 0 0 0 0.8,-3.9 c 0.1,-0.9 0,-1.5 1,-1.6 a 20.6,20.6 0 0 1 4.2,0.4 l 2.8,0.2 c 0.7,0.1 2,0.5 2.7,0.1 0.7,-0.4 0.7,-2 0,-2.6 a 10.4,10.4 0 0 0 -4.1,-2.3 9.1,9.1 0 0 1 -5.2,-5.3 c -0.1,-0.2 -0.1,-0.4 -0.3,-0.6 -0.2,-0.2 -0.6,-0.1 -1.1,0.2 l -2.2,2 a 44.8,44.8 0 0 1 -4.4,3.2 l -4.6,3.3 a 34.3,34.3 0 0 0 -4.3,3.2 24.3,24.3 0 0 1 -3.8,3.3 c -0.7,0.5 -1.6,0.8 -2.4,1.3 a 14.5,14.5 0 0 0 -1.6,1.8 c -1.2,1.3 -2.7,2.5 -3.8,3.9 a 4.7,4.7 0 0 1 -1.9,1.5 z m 7.8,44 a 42.8,42.8 0 0 0 8,0 4.9,4.9 0 0 0 3.3,-1.3 l 2.9,-2.3 a 34.8,34.8 0 0 1 6.4,-3.2 18.5,18.5 0 0 0 5.6,-4 c 1.8,-1.9 3.4,-4.1 5.2,-6 l 5.5,-6 c 3.7,-3.8 7.3,-7.7 10.8,-11.8 1.6,-1.9 3.4,-3.9 4.9,-6 1.5,-2.1 1.3,-1.6 0.9,-2.5 -0.4,-0.9 -1.7,-1.6 -2.5,-2.1 -3.5,-2.3 -7.5,-5.2 -11.6,-2.4 -4.1,2.8 -5.2,7.9 -8.8,11 -3.6,3.1 -7.9,6.8 -11.9,10.2 a 43.1,43.1 0 0 0 -5.6,5.7 62.4,62.4 0 0 0 -4.6,6.8 c -1.5,2.3 -3.5,4.2 -4.9,6.5 a 45.8,45.8 0 0 0 -3.6,7.4 z M 397.9,211 a 29.6,29.6 0 0 0 -2.6,-11 66.6,66.6 0 0 0 -6.3,-10.2 96.5,96.5 0 0 0 -7.5,-9.4 c -0.9,-1 -2.7,-2.6 -4.2,-2.7 -1.5,-0.1 -2.7,2.1 -3.5,3.1 -2.7,3.2 -5.3,6.5 -7.8,9.8 l -1.7,2.4 a 7.7,7.7 0 0 0 -1.4,2.5 c -0.3,1.7 1.7,3.6 2.6,5 a 32.3,32.3 0 0 1 4.3,10.5 c 0.4,1.8 0.4,3.8 1.3,5.4 a 4.8,4.8 0 0 0 3.8,2.3 c 2.4,0.4 4.8,-0.2 7.2,-0.4 a 18.8,18.8 0 0 1 3.4,-0.2 10.3,10.3 0 0 0 3.5,0.2 18.1,18.1 0 0 0 5.7,-2.9 c 1.4,-0.9 3.7,-2.4 3.2,-4.4 z m -94,-13.4 a 4.5,4.5 0 0 0 2,3.3 7.9,7.9 0 0 0 4.3,0.8 h 6.5 c 1.4,0 3.3,0.3 4.4,-0.8 1.1,-1.1 0.8,-2.8 0.6,-4.1 -0.2,-1.3 -0.5,-4.3 -0.8,-6.4 -0.3,-2.1 -0.2,-3.5 -1.6,-4.2 -1.4,-0.7 -3.8,-0.6 -5.3,-0.3 -1.5,0.3 -4.1,1 -6.2,1.4 l -6.3,1.1 -12.7,1.7 c -8.6,1.2 -17.3,1.8 -25.9,2.6 l -7.1,0.6 c -1.7,0.2 -4,0.5 -5.2,1.9 -1.2,1.4 -0.5,1.4 -0.7,2.2 -0.2,0.8 -1,0.9 -1.5,1.6 -0.5,0.7 -0.1,1.4 0,2.1 0.1,0.7 0.4,2.4 0.7,3.6 3.5,-1.5 7.2,-1.4 10.9,-1.6 a 64.2,64.2 0 0 1 11.6,-0.2 35.2,35.2 0 0 0 11.2,-0.5 l 5.4,-1.4 5.4,-0.6 c 3.8,0 7.3,0.1 10.3,-2.8 z m -70.2,126.9 c 3.6,1.2 6.9,-0.2 10.5,-0.9 3.6,-0.7 7.4,-0.6 11,-0.7 l 11.2,-0.4 c 3.3,-0.1 6.9,-0.4 10.1,0.3 a 10.2,10.2 0 0 1 6.4,4 c 1.5,2.2 3.1,3.6 5.8,3.2 a 5.8,5.8 0 0 0 2.5,-1.2 c 1,-1.1 0.9,-2.7 1,-4.1 a 43.6,43.6 0 0 0 0.3,-5.1 c 0,-1.2 -0.2,-2.2 -1.5,-2.5 -1.3,-0.3 -5.2,0.3 -7.1,-2 -1.9,-2.3 -0.8,-5.6 -0.6,-8.1 a 35.9,35.9 0 0 0 -0.9,-10.8 c -0.3,-1.1 -1,-2.1 -2.3,-2 a 4.1,4.1 0 0 0 -3.2,3 c -1.4,3.4 -0.6,7.1 -0.6,10.6 a 23.5,23.5 0 0 1 0.1,2.6 5.7,5.7 0 0 1 -0.3,1.8 c -1.2,1.6 -2.3,-1.2 -2.7,-2 -1.3,-2.4 -1.8,-5 -4.8,-5.8 a 11.8,11.8 0 0 0 -7.2,0.5 10.8,10.8 0 0 0 -5.2,5.9 c -0.6,1.5 -1,3.2 -2.1,4.5 a 7.6,7.6 0 0 1 -3.3,2.3 c -1.9,0.6 -3.8,0.7 -5.7,1.2 a 8.9,8.9 0 0 0 -3.8,2.6 c -1.3,1.3 -2.4,1.4 -4.1,1.2 -1.7,-0.2 -2.7,0.6 -3.5,1.9 z M 330,162.6 c -2.1,-2.8 -6.3,-3.4 -9.6,-3.5 a 103.7,103.7 0 0 0 -12.4,0.5 23.2,23.2 0 0 1 -5.9,0.2 c -2,-0.3 -3.9,-1.1 -5.9,-1.4 -4,-0.5 -8.3,0 -12.3,0.2 -11.5,0.6 -23.1,4.1 -34.5,3.7 -2.1,0 -3.8,-0.3 -5.9,0.4 l -5.3,2 a 34.7,34.7 0 0 1 -5.6,1.1 c -3.8,0.4 -7.6,-0.5 -11.4,-0.5 a 26,26 0 0 0 -5.6,0.6 c -1.5,0.4 -1.6,1.9 -0.3,2.5 3.6,1.8 7.9,1 11.7,0.7 3.8,-0.3 8,0.2 12.1,0.3 4.1,0.1 8.2,-0.1 12.3,-0.4 8.2,-0.6 16.5,-1.5 24.8,-2 4.1,-0.2 8.2,0.1 12.3,-0.1 4.1,-0.2 8.1,-0.7 12.2,-1 8.3,-0.8 16.6,-1.5 24.9,-1.7 a 5.9,5.9 0 0 0 4.4,-1.6 z m 1.1,157.7 a 106.5,106.5 0 0 0 11.3,-0.1 c 1.6,-0.2 4.1,-0.4 5.4,-1.4 1.3,-1 0,-2.2 -0.7,-3 -0.7,-0.8 -2.9,-2.8 -4.2,-4.2 -1.3,-1.4 -2.3,-2.9 -3.7,-4.2 a 16.3,16.3 0 0 0 -9.6,-4.3 c -3.3,-0.3 -7.6,-0.2 -10.5,1.6 a 7.7,7.7 0 0 0 -2.7,3 c -0.7,1.4 -1,2.9 -1.9,4.1 a 6.9,6.9 0 0 1 -3.4,2.2 c -1.6,0.5 -3.3,0.3 -4.9,0.7 -1.6,0.4 -3,0.9 -3,2.5 0,1.6 1.3,3.2 2.4,4.1 1.1,0.9 3.4,-0.4 4.9,-0.8 a 19.9,19.9 0 0 1 6.4,-0.6 c 4.7,0.1 9.5,0.7 14.2,0.4 z m -13.2,-74.4 c -0.9,-1.8 -2,-3.5 -2.9,-5.3 -0.9,-1.8 -0.7,-1.7 -1.1,-2.6 -0.4,-0.9 -1,-1.1 -1.9,-1.4 a 7.3,7.3 0 0 0 -2.5,-0.8 c -1.1,-0.1 -2.1,0.2 -3.2,0 a 21.6,21.6 0 0 0 -6.2,-0.9 34,34 0 0 0 -6.3,0.8 c -1.9,0.4 -3.3,1.8 -5.2,2.1 a 29.4,29.4 0 0 1 -5.9,0.2 18.1,18.1 0 0 0 -6.1,0.9 24.1,24.1 0 0 0 -9.1,6 c -1.1,1 -2.4,2.9 -1.9,4.5 0.5,1.6 2.2,1.9 3.4,2.3 a 12.9,12.9 0 0 0 4.8,0.3 c 1.8,-0.3 3,-1.3 4.5,-2.2 a 15.8,15.8 0 0 1 5.2,-2.1 c 2,-0.4 4,-0.3 6,-0.5 2,-0.2 2.5,-0.5 3.7,-0.7 l 3.6,-0.3 7.6,0.2 h 3.7 a 17.1,17.1 0 0 1 3.2,0.1 l 3.6,0.2 a 3.9,3.9 0 0 0 3,-0.8 z m -28.5,199.8 a 17.8,17.8 0 0 0 -2.4,8.2 c -0.2,2.7 -0.1,6 1.1,8.4 0.4,0.8 1.2,1.9 2.2,1.3 1,-0.6 1.2,-2.4 1.4,-3.3 a 21.1,21.1 0 0 0 0.6,-8.3 c -0.1,-1.4 -0.3,-2.8 -0.5,-4.2 a 11.6,11.6 0 0 0 -0.4,-1.8 c -0.2,-0.5 -0.9,-0.8 -0.8,-1.4 0.1,-0.6 1.4,-1.7 1.8,-2.2 a 17.3,17.3 0 0 0 2.1,-3.4 14.8,14.8 0 0 0 1.3,-3.5 c 0.2,-0.7 0.7,-2.2 0.3,-2.9 -0.4,-0.7 -1.4,-0.6 -2,-0.6 a 13.8,13.8 0 0 0 -4,1 c -2.3,1.1 -4.2,2.8 -6.3,4.2 -2.1,1.4 -4.9,2.1 -7.8,2.3 l -8.7,0.2 c -3,-0.1 -6.1,-0.5 -9.1,-0.4 -3,0.1 -5.7,0.4 -8.6,0.5 -2.9,0.1 -6,0 -8.5,1.2 -2.5,1.2 -1.2,3.8 0.7,4.6 1.9,0.8 5.6,1 8.4,1 a 56.9,56.9 0 0 1 10.1,0.3 c 3.2,0.5 6.6,-0.1 9.9,-0.2 3.3,-0.1 3.4,0.2 5.1,0.3 1.7,0.1 3.2,-0.3 4.9,-0.5 1.7,-0.2 6.3,0.3 9.2,-0.8 z m -76.2,-45.2 c 2,1.6 2.6,3.8 3.3,6.1 0.7,2.3 1.6,5.1 2.5,7.7 a 62.3,62.3 0 0 1 2.2,7.7 c 0.5,2.1 0.4,4.6 2.5,5.8 2.1,1.2 5.6,0.2 5.1,-2.3 -0.5,-2.5 -0.8,-2.2 -1.1,-3.3 -0.3,-1.1 -0.5,-3 -0.8,-4.5 -0.3,-1.5 -0.8,-5.3 -1.4,-8 -0.6,-2.7 -1.6,-5.4 -2.1,-8.3 -0.5,-2.9 -0.2,-5.3 -0.6,-7.9 -0.4,-2.6 -1.1,-3.8 -3.3,-3.9 a 6.3,6.3 0 0 0 -5.1,2.5 c -0.7,0.7 -1.1,1.7 -1.8,2.4 -0.7,0.7 -1.9,1 -2.7,1.8 -0.8,0.8 -2.2,4.5 -2.4,6.7 -0.2,2.2 0.5,5.7 0.5,8.5 0,2.8 -0.3,5.9 -0.4,8.8 -0.1,2.9 -0.8,4.7 1.5,5.6 2.3,0.9 5.4,1.4 6.6,-0.6 a 7.1,7.1 0 0 0 0.7,-3.5 13.5,13.5 0 0 0 -0.5,-4.4 c -0.7,-2.8 -2.1,-5.3 -2.5,-8.2 a 50.6,50.6 0 0 1 -0.2,-8.7 z m 9.6,-35.6 v -9.7 c 0,-2.6 0,-5.2 -2.2,-7 -2.2,-1.8 -7.1,-2.1 -10,-0.2 -4.6,3.2 -3.1,9.4 -3.6,14.2 a 27.1,27.1 0 0 1 -2.2,8 c -0.4,0.8 -0.8,2.1 -1.7,2.5 -0.9,0.4 -2.2,-0.3 -3.1,-0.5 -0.9,-0.2 -6.3,-0.5 -6.2,2.4 0.1,2.9 2.8,3.1 4.5,3.1 1.7,0 2.2,-0.6 3.4,-0.8 a 14.8,14.8 0 0 1 4.7,-0.1 3.9,3.9 0 0 0 3,-0.2 5.9,5.9 0 0 0 1.9,-3.2 32.9,32.9 0 0 0 0.3,-4.5 c 0.1,-1.6 0.1,-3.3 0.2,-4.9 0.1,-1.6 0.1,-5.9 1.2,-8.7 0.3,-0.7 1.2,-2.9 2.4,-2.5 1.2,0.4 0.4,2.7 0.3,3.5 -0.5,3.2 -1,6.4 -1.3,9.6 -0.3,3.2 -0.6,7.3 0.2,10.7 a 5.5,5.5 0 0 0 5.6,4.1 c 2.3,-0.3 2.6,-2.6 2.6,-4.5 0.1,-3.8 0,-7.6 0,-11.3 z m -47,329.4 c -2.2,2.5 -3.1,5.8 -4.5,8.8 -1.4,3 -3.9,5.7 -5.7,8.6 -1.8,2.9 -3.4,5.3 -2.2,7.7 1.2,2.4 3.1,1.2 4.7,1.1 1.6,-0.1 3.2,0.2 4.6,-1.2 1.4,-1.4 2.2,-4.1 2.4,-6.2 0.2,-2.1 0.2,-5.2 0.4,-7.7 a 22.4,22.4 0 0 1 1.9,-7.6 64.4,64.4 0 0 1 9.5,-16 34.1,34.1 0 0 0 3,-4.4 c 0.7,-1 2.1,-3.1 1.7,-4.4 -0.4,-1.3 -3.7,0.2 -4.5,0.7 -2.5,1.7 -4.5,4.2 -7.4,5.4 a 58.1,58.1 0 0 1 -17.5,3.6 c -1.7,0.1 -8.8,0.1 -6.6,3.5 2.2,3.4 9.9,2.8 14.5,2.6 a 13.1,13.1 0 0 1 3.4,0.3 9.5,9.5 0 0 0 -0.3,5.3 7.5,7.5 0 0 1 2.6,-0.1 z m 154.3,7.2 a 24.8,24.8 0 0 0 1.7,-3.2 c 0.5,-1.2 0.8,-2.3 1.3,-3.5 a 50.5,50.5 0 0 0 3.3,-7.1 c 0.8,-2.6 1.4,-5.2 2.4,-7.6 a 70.5,70.5 0 0 1 3.6,-7.3 c -1.8,-0.2 -1.7,-2.2 -2.2,-3.6 -0.5,-1.4 -1.6,-1.3 -3,-1 -4.8,1 -9.9,1.8 -14.6,3.6 a 41.6,41.6 0 0 1 -7.1,2.1 c -0.5,0.1 -1.7,0 -1.5,0.9 0.2,0.9 0.8,0.7 1,1 l 1.3,1.3 a 12.8,12.8 0 0 1 1.7,2.2 22.4,22.4 0 0 0 1.3,2.7 l 2.2,2.9 a 9.7,9.7 0 0 1 1.9,2.6 4.4,4.4 0 0 1 0.2,1.6 3.5,3.5 0 0 0 0.6,1.4 c 0.6,1.2 1.1,2.4 1.8,3.6 0.7,1.2 2.7,4.9 4.1,7.4 z M 276.2,255.4 c 2.1,2.3 4,5.3 7.3,5.8 a 18.3,18.3 0 0 0 4.7,-0.2 c 2,-0.3 4,-0.4 6,-0.5 3.9,-0.2 7.8,-0.2 11.6,-0.1 3.8,0.1 7.3,0.6 10.8,-0.3 a 8.3,8.3 0 0 0 4.1,-2 c 1,-1.1 0.7,-2.4 0,-3.6 -1.7,-2.9 -5.1,-3.3 -8.1,-4.1 -1.2,-0.4 -1.3,-1.7 -2.6,-1.8 a 34.9,34.9 0 0 0 -4.6,0.1 h -5.7 c -1,0 -2.4,-0.4 -3.3,0.4 -0.9,0.8 -0.5,1.1 -1.3,1.5 l -2.6,1.6 a 26.5,26.5 0 0 1 -5.4,2.5 15.1,15.1 0 0 1 -5.6,0.7 c -1.7,-0.1 -3.7,-1.3 -5.3,0 z m 9.9,124 c -3.5,-1.9 -7.6,-2.3 -11.4,-2.4 a 93.1,93.1 0 0 0 -12.9,0.8 55.5,55.5 0 0 0 -11.5,2.1 37.6,37.6 0 0 0 -5.5,2.3 14,14 0 0 1 -5.3,1.9 c -1.9,0.3 -3.9,-0.1 -5.9,0.1 a 16.6,16.6 0 0 0 -5.8,1.5 c -2.1,1 -0.2,2.2 1.2,2.5 1.4,0.3 4.2,0.3 6.3,0.5 a 46,46 0 0 0 12.3,-0.5 87.7,87.7 0 0 1 12.5,-1.9 l 7.4,-0.2 a 23.5,23.5 0 0 0 7,-0.8 c 4.2,-1.3 7.8,-3.7 11.6,-5.9 z m 92.8,-18.8 c -0.5,-5.7 -1,-12.2 -4.5,-17 -1.7,-2.1 -3.8,-3.5 -6.6,-3.4 a 8,8 0 0 0 -5.7,3.1 c -1,1.2 -2.8,3.2 -1.6,4.7 a 9.1,9.1 0 0 0 2.4,2 7.2,7.2 0 0 1 2.4,2.8 c 1.2,2.5 1.1,5.8 1.3,8.5 0.2,2.7 0.9,5.9 2.9,7.5 2,1.6 4.8,-0.1 6.4,-1.4 a 8.7,8.7 0 0 0 3,-6.8 z m -116,127.3 c 3.2,0 6.4,0 9.7,-0.2 a 75.7,75.7 0 0 1 9.5,0.2 49.1,49.1 0 0 0 9.4,-0.1 c 2.6,-0.3 5.4,-0.8 7.2,-2.9 a 5.7,5.7 0 0 0 0.7,-5.9 c -0.9,-2.3 -2.9,-3.1 -5.3,-2.7 -2.4,0.4 -2.3,0.9 -3.6,1.2 a 9.3,9.3 0 0 1 -4.4,0.1 25.7,25.7 0 0 0 -4,-0.6 12.2,12.2 0 0 0 -4.6,0.9 49.4,49.4 0 0 1 -5.2,1.3 34.3,34.3 0 0 0 -4.6,1.1 c -2.9,1.3 -4.1,4.7 -4.8,7.6 z M 372.7,321.4 c -2,-1.9 -3,-4.3 -4.1,-6.8 -1.1,-2.5 -2.5,-5.7 -3.8,-8.5 -1.3,-2.8 -4,-9.2 -9,-9.1 -1.6,0 -4.6,0.3 -5.2,2.1 -0.6,1.8 0.6,5.4 1.4,7.7 0.8,2.3 2.2,5.5 3.2,8.4 1,2.9 1.1,5.3 2.7,7.2 a 5.6,5.6 0 0 0 5.9,1.7 c 3.1,-0.7 5.8,-2.2 8.9,-2.7 z m -88.6,10.3 a 14.1,14.1 0 0 0 -6.7,-4.3 c -3.1,-0.8 -6.5,-0.3 -9.6,-0.3 -6.8,0 -13.6,-0.3 -20.3,1.2 a 17.1,17.1 0 0 0 -7.7,3.6 c -0.8,0.6 -2.3,1.7 -2,2.9 0.3,1.2 2.2,1 3.1,1.1 a 155,155 0 0 0 21.5,0.7 23.3,23.3 0 0 0 5.3,-0.6 47.2,47.2 0 0 0 5.3,-1.8 68.7,68.7 0 0 1 11.1,-2.5 z m -36.9,169.5 c -2.6,-0.4 -3.2,-3.7 -4.3,-5.7 a 11.8,11.8 0 0 0 -4.6,-4.8 10.1,10.1 0 0 0 -3,-1.3 c -1.7,-0.5 -1.4,1 -0.8,2.1 1.5,2.6 3.1,5.2 4.7,7.7 1.6,2.5 3.2,4.9 5,7.2 a 10,10 0 0 0 5.1,3.7 c 1.8,0.5 4.6,0.7 5.9,-1 1.3,-1.7 1.4,-5.2 1,-7.7 a 32.8,32.8 0 0 0 -3.4,-9.2 c -0.5,-0.9 -1.6,-2.5 -1.1,-3.6 0.5,-1.1 2.5,-1.4 3.5,-1.8 -2.4,-1.2 -4.9,-2 -7.1,-3.4 l -1.3,-1.1 c -0.2,-0.2 -0.4,-0.5 -0.7,-0.6 -0.3,-0.1 -0.2,-0.4 -0.6,0 -0.4,0.4 -0.9,2.4 -1,3.3 -0.3,2.9 1,5.2 1.8,7.9 a 21.2,21.2 0 0 1 0.9,8.3 z M 355.5,330.5 c -2.1,-2.1 -4.8,-2.5 -7.7,-2.8 L 337.7,327 a 123.7,123.7 0 0 0 -20.2,0.7 c -1.4,0.2 -2.9,0.3 -4.3,0.6 a 4.9,4.9 0 0 0 -1.7,0.6 l -0.9,0.5 c -0.6,0.4 -0.6,0.4 -0.4,0.8 0.2,0.4 2,2.1 2.8,2.7 a 10.6,10.6 0 0 0 3.3,1.8 27.6,27.6 0 0 0 4,0.6 l 5.3,0.4 a 51.5,51.5 0 0 0 9.6,-0.5 47.7,47.7 0 0 0 5.1,-1.3 44.6,44.6 0 0 1 5.1,-0.7 c 3.5,-0.4 7.2,-0.6 10.1,-2.7 z m 2.9,52.9 c -0.3,-0.7 -2.5,-1.2 -3.2,-1.5 a 15.8,15.8 0 0 1 -3.1,-2.7 c -2,-1.9 -5.3,-2 -8,-2.1 a 151.3,151.3 0 0 0 -20.2,0.2 c -2.7,0.2 -5.9,-0.1 -8,2 a 2.8,2.8 0 0 0 -0.7,3 c 0.5,1.2 2,1.8 3.1,2.1 a 8.5,8.5 0 0 0 4.2,0.1 l 4.8,-0.2 a 69.5,69.5 0 0 1 10.2,0.2 l 5.4,0.5 a 33.3,33.3 0 0 0 5.4,-0.7 49.3,49.3 0 0 1 5.5,-0.3 c 1.3,0 3.5,0.6 4.6,-0.6 z m -112.6,51.4 c 1.2,1.1 3.6,1.5 5.1,1.8 a 21.8,21.8 0 0 0 5.7,0.3 33.1,33.1 0 0 0 5.5,-0.4 33.5,33.5 0 0 1 5.5,-1.1 68.5,68.5 0 0 1 12,0.3 17.2,17.2 0 0 0 2.4,0.4 c 0.8,-0.1 1.4,-1 1.9,-1.5 a 57.1,57.1 0 0 0 3.9,-4.7 c -3.7,0.2 -7.4,-0.2 -11,-0.3 -3.6,-0.1 -8,-0.2 -12,-0.1 -4,0.1 -7.7,0 -11.3,0.7 a 11.9,11.9 0 0 0 -7.7,4.6 z m -21.7,4.2 c -4.5,0 -7.7,3 -7.6,7.5 a 80.9,80.9 0 0 0 0.8,9.9 c 0.4,2.9 2.1,5.5 2.8,8.4 a 24.3,24.3 0 0 1 0.8,4.7 c 0.2,1.3 0.2,3 0.9,4.2 0.7,1.2 3.9,-1.2 4.3,-2.3 a 17.3,17.3 0 0 0 0.4,-9.3 c -0.6,-3 -2.5,-5.5 -3.4,-8.4 -0.9,-2.9 0.5,-6.5 2,-9.6 a 19.6,19.6 0 0 0 1.2,-2.6 c 0.2,-0.5 0.6,-1.1 0.5,-1.6 -0.1,-0.5 -1.9,-0.9 -2.7,-0.9 z m 20.8,-245.1 c 0.2,-2.4 -2.7,-1.3 -4.1,-1.1 l -7.4,1 -3.3,0.7 a 1.7,1.7 0 0 0 -1.2,0.6 c -0.4,0.6 -0.3,1.4 -0.5,2 a 8,8 0 0 1 -0.9,2.6 8.9,8.9 0 0 1 -2,1.9 c -0.9,0.8 -0.1,1.8 0.3,2.8 0.4,1 1.6,4.5 3.5,3.4 a 15.6,15.6 0 0 1 6,-1.5 c 2.6,-0.1 5.2,-0.4 7.8,-0.7 0.6,0 1.1,0 1.4,-0.5 a 7.6,7.6 0 0 0 0.1,-2.6 61.3,61.3 0 0 1 0.3,-8.6 z m 21.8,256.9 h -3.6 c -0.5,0 -1.9,-0.3 -2.4,0.2 -0.5,0.5 -0.1,1.4 0,1.9 a 9.4,9.4 0 0 0 1.2,3 15.7,15.7 0 0 0 8.5,6.9 23.5,23.5 0 0 0 5.3,0.9 c 1.6,0.1 3.8,0.5 4.4,-1.4 a 17,17 0 0 0 0.2,-7.1 c -0.1,-1.4 0,-3.6 -1.1,-4.7 -1.1,-1.1 -3.2,-0.6 -4.6,-0.2 -1.4,0.4 -5.3,0.5 -7.9,0.5 z m 62.3,35.5 c 2.4,0 4.9,0.1 7.3,-0.1 2.4,-0.2 4.4,-0.3 6.2,-1.5 3.9,-2.8 -1.5,-6.5 -4,-7.4 a 20.5,20.5 0 0 0 -13.4,-0.3 10,10 0 0 0 -4.8,3.2 c -0.9,1 -2,2.6 -1.8,4 0.2,1.4 1.5,1.8 2.7,2 a 68,68 0 0 0 7.8,0.1 z m -32.9,-122 a 61.9,61.9 0 0 0 0.3,7.4 c 0.2,1.7 0.6,4.6 2.2,5.5 1.6,0.9 3.3,0.5 4.6,-0.1 a 4.7,4.7 0 0 0 2.7,-3.1 c 0.5,-1.9 -0.1,-4 -0.5,-5.9 -0.4,-1.9 -1,-5 -1.6,-7.5 -0.6,-2.5 -1,-5.1 -1.6,-7.6 -0.6,-2.5 -1,-6 -3.1,-4.1 -2.1,1.9 -2.2,4.7 -2.5,6.8 a 62,62 0 0 0 -0.5,8.6 z m 10.8,134.2 v 9 c 0,1.3 0.1,2.2 1.5,1.6 1.4,-0.6 3.7,-1.9 3.9,-4.3 0.2,-2.4 -0.2,-6.1 -0.2,-9.1 0,-3 0.3,-5.2 1.8,-7.3 1.5,-2.1 1.8,-1.8 2,-3.2 a 5.5,5.5 0 0 0 -0.8,-3.5 10.2,10.2 0 0 0 -4.9,-4.5 c -1.7,-0.8 -3.9,-1.6 -4.1,1 a 30.1,30.1 0 0 0 0.1,5.2 38.5,38.5 0 0 1 0.8,4.7 51.6,51.6 0 0 1 -0.1,10.4 z M 218.6,175.4 c 1.5,2.1 2.9,4.8 0.6,7 -2.3,2.2 -2.6,1.1 -4.1,1.4 -1.5,0.3 -1.6,1.5 -0.7,2.6 a 26.7,26.7 0 0 0 3.7,3.8 9,9 0 0 0 1.9,1.5 c 0.5,0.4 1.4,1.1 2.1,1 0.7,-0.1 0.8,-0.8 1.2,-1.2 a 14.2,14.2 0 0 1 2.2,-0.5 54.6,54.6 0 0 1 5.7,-0.4 c -1.3,-4.1 -3.2,-7.9 -4.3,-12 -0.4,-1.5 -0.7,-3.1 -2.5,-3.3 a 28.2,28.2 0 0 0 -5.8,0.1 z m 151.7,229.7 0.3,-6.3 a 5.2,5.2 0 0 0 -1,-4 6.6,6.6 0 0 0 -3.6,-2.3 c -1.5,-0.4 -1.6,0.9 -1.8,2.1 -0.4,4.7 -1,9.6 -0.6,14.3 0.2,2.1 1.3,10 4.9,8.6 1.7,-0.7 1.5,-3.3 1.6,-4.8 0.1,-1.5 0,-5.1 0.2,-7.6 z m -128.7,50.1 c -0.1,-1.4 -0.2,-2.8 -1.6,-3.4 -1.4,-0.6 -3.4,0 -4.8,1 a 3.3,3.3 0 0 0 -1.5,3.6 c 0.2,2 0.6,3.9 0.9,5.8 0.3,1.9 0.8,3.8 1.3,5.7 a 10,10 0 0 0 2.2,4.2 c 0.9,0.9 2.3,1.5 3.4,0.6 1.1,-0.9 1.2,-3.1 1,-4.6 -0.2,-1.5 -1,-4.3 -1.2,-6.5 a 27.2,27.2 0 0 1 0.3,-6.4 z M 213.5,323.1 a 24.6,24.6 0 0 0 -6,1.2 c -1.3,0.5 -3.8,1.3 -3.5,3.2 0.3,1.9 3.3,1.5 4.6,1.5 a 12.4,12.4 0 0 1 5,1 12.2,12.2 0 0 1 4.3,3.1 c 1.1,1.1 3,3.1 4.7,3 3.7,0 1.3,-6.5 0.2,-8.1 a 11.9,11.9 0 0 0 -9.3,-4.9 z M 386,391.8 c -0.7,-1.3 -1.4,-3.5 -2.9,-4 -1.5,-0.5 -3,0.4 -4,1.2 -2.9,2.2 -2.9,6.6 -3,9.9 a 50.2,50.2 0 0 0 0.4,6.7 c 0.1,1.4 0.1,4.5 1.6,5.3 1.5,0.8 2.9,-1.9 3.2,-3 a 21.5,21.5 0 0 0 0.8,-6.2 c 0.1,-2.4 0.2,-4.9 0.2,-7.3 0.1,-0.8 0.1,-1.8 0.9,-2.2 0.8,-0.4 1.9,0 2.8,-0.4 z m -28.7,-205 a 11,11 0 0 0 7.4,-3.9 c 2.2,-2.8 3.1,-6.6 4.1,-10 0.3,-1 1.3,-3.3 -0.5,-3.6 -1.8,-0.3 -2.6,2 -3.4,2.9 a 50.2,50.2 0 0 1 -7.8,7.5 c -1.5,1.2 -3.2,2.5 -3.2,4.5 0,2 1.7,2.7 3.4,2.6 z m -85.7,285.9 a 19.9,19.9 0 0 0 6.9,-0.9 l 3.3,-1 a 3.1,3.1 0 0 0 1.8,-0.7 c 1.3,-1.4 -0.6,-2.3 -1.7,-2.7 a 32,32 0 0 0 -6.8,-1.6 l -6.9,-0.7 c -2,-0.2 -3.9,-0.6 -4.6,1.9 -1.2,4.4 4.9,5.8 8,5.7 z m -0.8,-216 a 16.3,16.3 0 0 0 -5.2,1.2 c -1.2,0.6 -3.6,1.8 -2.8,3.5 0.8,1.7 3,2.6 4.5,3.2 a 15.2,15.2 0 0 0 5.6,1.7 c 3,0.1 4.8,-3.3 4.1,-6.1 -0.7,-2.8 -3.6,-3.5 -6.2,-3.5 z m 24.5,231.9 a 6.7,6.7 0 0 0 -3.6,1.2 5.6,5.6 0 0 0 -1.3,2.8 22.9,22.9 0 0 0 -0.3,6.4 c 0.1,1.9 0.4,4.1 1.6,5.6 a 15,15 0 0 0 2.4,2 l 1,0.7 c 0.5,0.3 0.8,0.8 1.3,0.3 0.5,-0.5 0.5,-2.1 0.6,-2.9 0.1,-0.8 0,-2.2 -0.1,-3.3 a 37,37 0 0 0 -0.7,-6.6 c -0.5,-2 -1.3,-4.1 -0.9,-6.2 z M 228.5,352.1 c -1.5,0.9 -2,3.3 -2.4,4.8 a 24.7,24.7 0 0 0 -0.8,6 30.8,30.8 0 0 0 0.7,6.1 c 0.2,1.3 0.5,3.9 2.2,4.1 1.7,0.2 2.1,-2.8 2.2,-4 a 21.5,21.5 0 0 0 -0.2,-6.2 26.9,26.9 0 0 1 -0.6,-6.3 c 0.2,-1.8 0.5,-3.3 -1.1,-4.5 z m -2.4,-57.7 a 13.8,13.8 0 0 1 -7,5.1 c -1.3,0.6 -3,0.8 -3.7,2.2 -0.7,1.4 0.6,1.9 1.8,2.2 3,0.6 6.8,0.3 9,-2.2 2.2,-2.5 1.5,-5 -0.1,-7.3 z m 2.6,117.7 a 32.4,32.4 0 0 0 2,10.2 c 0.4,1.2 1.1,2.2 2.6,1.7 a 2.2,2.2 0 0 0 1.5,-2.8 c -0.8,-3.6 -2,-7.2 -3,-10.8 -0.3,-0.8 -0.6,-3.4 -2.1,-2.9 -1.5,0.5 -0.9,3.6 -1,4.6 z m 73.8,-89 c -0.1,-0.8 -0.2,-3.1 -1.2,-3.6 -1,-0.5 -2,0.9 -2.5,1.3 -2.1,1.9 -2.9,4.4 -3.5,7 -0.2,0.8 -1,2.6 0.1,3.1 1.1,0.5 2.5,-0.9 3.3,-1.4 a 7.9,7.9 0 0 0 3.8,-6.4 z m -0.5,-10 c 1.2,-0.5 1.8,-2.1 2.4,-3.2 a 16.6,16.6 0 0 0 1.1,-3.8 c 0.3,-2 0.4,-6 -1.6,-7.2 -2,-1.2 -3,3.7 -3.1,4.9 a 41.7,41.7 0 0 0 0.1,5 c 0.2,1.4 0.2,3.1 1.1,4.3 z M 147.7,717.5 c -0.7,0.1 -1.1,0.8 -1.7,1.2 l -1.6,0.7 a 7,7 0 0 0 -3.2,1.3 c -2,1.9 2.1,3 3.3,3.2 1.2,0.2 4.9,1.2 4.7,-1.4 -0.1,-0.9 -0.3,-5.1 -1.5,-5 z M 269.3,172.1 a 2.7,2.7 0 0 0 -3.3,3.2 3.1,3.1 0 0 0 2,1.9 14.2,14.2 0 0 0 3.1,1.1 c 1.9,0.1 2.9,-2.1 2.7,-3.8 a 3.6,3.6 0 0 0 -1.3,-2.1 l -1.3,-0.4 c -0.6,0 -1.3,0.4 -1.9,0.1 z m -26.4,102.6 c -1.5,0.1 -4.2,0.5 -4.7,2.4 -0.5,1.9 2.5,2.8 3.8,3.1 1.3,0.3 3.5,0 4.2,-1.9 a 2.4,2.4 0 0 0 -0.5,-2.4 4.2,4.2 0 0 0 -2.8,-1.2 z m -20.4,240.8 c 1,0.5 2.8,-0.6 3.6,-0.9 0.8,-0.3 2.8,-1.3 4.2,-2 1.4,-0.7 3.1,-1.7 2.2,-3.9 a 9.1,9.1 0 0 0 -0.7,-1.4 c -0.1,-0.1 -0.4,-0.5 -0.6,-0.5 -0.2,0 -0.4,0.1 -0.6,0.4 a 21.3,21.3 0 0 1 -2.6,2.6 c -2,1.8 -4.1,3.5 -5.5,5.7 z m -3.8,-202.4 c 0,-1.2 0.1,-4.6 -2.2,-3.1 -2.3,1.5 -1.8,4 -1.7,5.8 a 4.4,4.4 0 0 0 0.8,2.5 c 0.4,0.4 1.3,1.1 2,0.8 0.7,-0.3 0.7,-1.9 0.9,-2.6 a 12.7,12.7 0 0 0 0.2,-3.4 z m 32.4,-64.6 c 0.1,1.3 0,4.2 2,4.3 2,0.1 2.5,-2.9 2.4,-4.3 a 4,4 0 0 0 -2.5,-3.6 c -2,-0.6 -1.8,2.4 -1.9,3.6 z m -34.9,-70.1 c -0.2,-3.5 -5.4,-3.2 -5.2,0.2 0.2,3.4 5.3,3.1 5.2,-0.2 z m 220.2,205.2 v 3.2 a 6.9,6.9 0 0 0 0,-3.2 z"
       transform="translate(-21.6,-148.8)"
       id="path1"
       style="fill:#e71d36;fill-opacity:1" />
    <path
       d="m 98,662.4 c 1.9,2.4 1.9,5.8 1.8,8.7 -0.1,2.9 -0.4,6.7 -0.7,10 -0.5,6.3 -3,12.2 -4.3,18.4 -0.7,3.3 -1.2,6.5 -1.6,9.8 -0.1,1.5 -0.3,3 -0.5,4.5 a 28.7,28.7 0 0 0 -0.7,5 c -0.1,3.1 0.9,6 2,8.9 1.1,2.9 2.1,6.1 1.2,9.4 -0.4,1.4 -1,2.7 -1.3,4.1 -0.3,1.4 -0.5,2.6 -0.9,3.9 -0.4,1.3 -2.5,3.6 -4.6,5 -2.1,1.4 -0.7,0.9 -1.2,1.3 a 1.8,1.8 0 0 1 -1.4,0.4 c -0.7,0 -1.3,0.1 -1.5,-0.6 a 4.8,4.8 0 0 1 0,-1.2 6.6,6.6 0 0 0 -0.1,-2 c -0.1,-1.9 -0.1,-3.7 -0.1,-5.6 0,-1.9 0,-6.3 0.3,-9.4 0.3,-3.1 2.1,-5.7 2.5,-8.8 0.1,-1.5 -0.1,-2.9 -0.1,-4.4 a 23.3,23.3 0 0 1 0.6,-5.3 c 0.5,-3.2 1.4,-6.3 2,-9.4 1.6,-7.5 2.4,-15 3.4,-22.5 a 99.1,99.1 0 0 1 1.8,-10.9 c 0.4,-1.8 0.8,-3.6 1.3,-5.3 0.5,-1.7 0.8,-3.1 2.1,-4 z"
       transform="translate(-21.6,-148.8)"
       id="path2"
       style="fill:#e71d36;fill-opacity:1" />
    <path
       d="m 109.2,749.9 c -1.4,-0.1 -3.6,-0.5 -4.5,-1.8 -0.9,-1.3 -0.3,-3.2 0,-4.5 a 105.1,105.1 0 0 1 4.1,-11.1 24.1,24.1 0 0 0 1.6,-5.4 44.7,44.7 0 0 0 -0.1,-5.2 14.2,14.2 0 0 1 3.3,-8.4 47.3,47.3 0 0 1 3.7,-4 7,7 0 0 0 1.3,-1.7 c 0.1,-0.7 -0.7,-1.3 -0.4,-1.9 0.3,-0.6 3.1,2.4 3.4,2.9 0.3,0.5 2.2,2.8 1.3,4.5 a 42.1,42.1 0 0 0 -2.8,4.5 c -0.3,0.6 -0.5,1.4 -1.1,1.8 -0.6,0.4 -1,0.3 -1.4,1 a 21.8,21.8 0 0 0 -1.1,4.4 c -0.6,1.9 -1.1,3.8 -1.6,5.8 -1.1,3.9 -1.8,8 -4.1,11.4 a 9.9,9.9 0 0 0 -1.7,3.2 17,17 0 0 0 0.1,4.5 z"
       transform="translate(-21.6,-148.8)"
       id="path3"
       style="fill:#e71d36;fill-opacity:1" />
    <path
       d="m 127.5,660.2 c -0.1,-4.8 3.5,-7.5 7.8,-8.4 4.3,-0.9 8.1,-1.1 10.5,1.9 2.4,3 2.2,7.1 1.1,10.1 -1.1,3 -6.3,5.9 -10,6.3 -5.4,0.6 -9.3,-5 -9.4,-9.9 z M 139,662 c 0,-4.3 -6.6,-4.4 -6.7,-0.1 -0.1,4.3 6.6,4.4 6.7,0.1 z"
       transform="translate(-21.6,-148.8)"
       id="path4"
       style="fill:#e71d36;fill-opacity:1" />
    <path
       d="m 321.5,216.4 a 4.2,4.2 0 0 1 0.1,-5.7 7.5,7.5 0 0 1 2.5,-1.3 c 1.4,-0.5 2,0.3 2.6,1.5 a 4.7,4.7 0 0 1 -1.1,5 c -1.1,1.1 -2.9,1.8 -4.1,0.5 z"
       transform="translate(-21.6,-148.8)"
       id="path5"
       style="fill:#e71d36;fill-opacity:1" />
    <path
       d="m 383.9,197.8 c 2.6,0 4.9,1.9 4.6,4.6 a 4.2,4.2 0 0 1 -5.4,4 c -2.2,-0.5 -3.8,-1.8 -4,-4.1 -0.2,-2.3 2.3,-4.6 4.8,-4.5 z m 2.4,4.2 c -0.1,-3.4 -5.4,-3.2 -5.2,0.2 0.2,3.4 5.3,3.1 5.2,-0.2 z"
       transform="translate(-21.6,-148.8)"
       id="path6"
       style="fill:#e71d36;fill-opacity:1" />
  </g>
  <metadata
     id="metadata12">
    <rdf:RDF>
      <cc:Work
         rdf:about="">
        <dc:title>svg</dc:title>
      </cc:Work>
    </rdf:RDF>
  </metadata>
</svg>
